<svg width="242" height="94" viewBox="0 0 242 94" fill="none" xmlns="http://www.w3.org/2000/svg">
<g clip-path="url(#clip0_993_7556)">
<path fill-rule="evenodd" clip-rule="evenodd" d="M123.784 9.30981C120.991 2.63245 102.437 8.75588 94.8042 26.4816C90.4266 36.2109 89.0139 47.0122 90.7425 57.5382C92.4711 68.0642 97.2645 77.8488 104.525 85.6714C108.359 88.4448 112.793 90.2781 117.467 91.0229C122.142 91.7678 126.927 91.4033 131.435 89.959C135.943 88.5148 140.047 86.0312 143.416 82.7091C146.785 79.3871 149.324 75.3198 150.827 70.8362C152.966 61.5511 153.23 51.9334 151.604 42.5452C149.979 33.1569 146.496 24.1866 141.359 16.1584C137.174 11.5356 127.706 6.19774 123.784 9.30981ZM122.412 14.2952C118.287 15.051 114.467 16.9743 111.405 19.8364C108.343 22.6984 106.168 26.3788 105.14 30.4397C102.4 37.832 101.635 45.8098 102.92 53.5873C104.205 61.3647 107.497 68.6737 112.47 74.7943C114.629 76.3063 117.11 77.2974 119.717 77.6894C122.325 78.0814 124.988 77.8638 127.497 77.0535C130.005 76.2432 132.292 74.8625 134.176 73.0199C136.06 71.1774 137.49 68.9233 138.354 66.435C141.692 57.5419 142.135 21.1941 125.619 17.0245C124.894 16.8839 124.218 16.5588 123.657 16.0806C123.095 15.6024 122.666 14.9874 122.412 14.2952Z" fill="#623061"/>
<path fill-rule="evenodd" clip-rule="evenodd" d="M200.838 68.1365C203.288 88.6822 203.157 94.5236 208.441 93.9697C213.735 93.4057 211.758 89.79 211.224 66.6962C219.593 65.3567 228.95 65.6085 228.285 59.7067C227.609 53.8149 220.087 56.1213 211.042 56.7054C210.619 33.9138 210.7 34.4475 209.56 14.0126C207.886 -11.2465 155.735 47.6008 162.37 61.7915C166.908 71.1176 190.422 69.2846 200.838 68.1365ZM199.608 57.2895C198.499 46.1606 198.105 39.8156 197.218 27.8205C190.131 34.5372 184.052 42.2408 179.169 50.6928C174.531 59.7067 174.228 55.8695 181.952 56.6752C187.81 57.2795 193.719 57.4608 199.608 57.209V57.2895Z" fill="#623061"/>
<path fill-rule="evenodd" clip-rule="evenodd" d="M53.9566 64.4904C56.1851 83.4448 56.0237 92.3178 61.7309 91.784C67.4482 91.2603 65.0181 86.9799 64.524 63.7753C73.3772 63.0704 82.2707 63.5538 81.5951 57.5311C81.0102 52.3644 76.0291 53.9758 64.3223 53.8348C63.9392 31.8489 63.9593 32.0201 62.8804 11.837C62.8012 10.6701 62.418 9.54424 61.7687 8.57101C61.1193 7.59777 60.2266 6.81103 59.1789 6.28882C58.1312 5.7666 56.965 5.52707 55.796 5.594C54.627 5.66093 53.4958 6.03199 52.5147 6.67035C36.9548 21.2574 23.916 38.3134 13.9258 57.1483C13.6566 58.1329 13.6149 59.1657 13.8037 60.1687C13.9926 61.1717 14.4071 62.1188 15.016 62.9384C15.6248 63.758 16.4122 64.4288 17.3186 64.9C18.2249 65.3713 19.2266 65.6307 20.2481 65.6587C20.2481 65.6587 37.6317 65.3868 53.9566 64.4904ZM52.7668 53.6435C51.7887 43.4814 51.5568 39.7248 50.6191 26.9844C43.6486 35.2943 37.1385 43.9787 31.1179 52.9989C37.1881 53.2205 45.043 53.4723 52.7668 53.6435Z" fill="#623061"/>
</g>
<defs>
<clipPath id="clip0_993_7556">
<rect width="242" height="94" fill="white"/>
</clipPath>
</defs>
</svg>
