<svg width="202" height="184" viewBox="0 0 202 184" fill="none" xmlns="http://www.w3.org/2000/svg">
<path d="M136.037 66.3717C121.706 66.3717 107.118 65.7895 93.4717 61.9884C80.0822 58.2729 67.7885 51.0645 56.8304 42.7261C49.6562 37.2983 43.1327 32.9665 33.8182 33.6171C24.706 34.1102 15.9921 37.5129 8.95693 43.3253C-2.89157 53.7013 -1.11087 72.9295 3.63196 86.3875C10.7548 106.711 32.4314 120.871 50.8547 130.032C72.1375 140.665 95.5263 146.846 118.967 150.39C139.513 153.523 165.915 155.783 183.722 142.377C200.074 130.032 204.56 101.883 200.553 82.8774C199.581 77.2628 196.592 72.1968 192.146 68.6318C180.657 60.2249 163.518 65.8409 150.608 66.1149C145.814 66.2176 140.934 66.3375 136.037 66.3717Z" fill="#F7F7F7"/>
<path d="M101.656 183.71C136.37 183.71 164.511 181.955 164.511 179.789C164.511 177.624 136.37 175.868 101.656 175.868C66.9421 175.868 38.8008 177.624 38.8008 179.789C38.8008 181.955 66.9421 183.71 101.656 183.71Z" fill="#F7F7F7"/>
<path d="M12.9629 28.6178L35.2216 26.7343C37.9973 26.4913 40.7722 27.2091 43.0818 28.7675C45.3914 30.326 47.0956 32.6305 47.9091 35.2954L69.2433 106.695L65.0655 114.177C63.9924 116.105 63.4627 118.288 63.5328 120.493C63.6028 122.698 64.2701 124.843 65.4634 126.699C66.6567 128.555 68.3314 130.052 70.3087 131.031C72.2861 132.01 74.492 132.434 76.6914 132.258L162.131 124.998" stroke="#623061" stroke-linecap="round" stroke-linejoin="round"/>
<path d="M51.0938 46.1335L150.402 37.7094C151.38 37.6256 152.365 37.7631 153.283 38.1117C154.201 38.4604 155.028 39.0112 155.704 39.7233C156.38 40.4355 156.887 41.2907 157.188 42.2255C157.488 43.1603 157.574 44.1507 157.439 45.1233L150.71 93.6987C150.506 95.1561 149.817 96.5024 148.755 97.5211C147.693 98.5397 146.319 99.1715 144.854 99.3148L69.2432 106.694L51.0938 46.1335Z" fill="white" stroke="#623061" stroke-linecap="round" stroke-linejoin="round"/>
<path d="M86.1954 148.627C90.6493 148.627 94.2599 145.016 94.2599 140.562C94.2599 136.108 90.6493 132.498 86.1954 132.498C81.7415 132.498 78.1309 136.108 78.1309 140.562C78.1309 145.016 81.7415 148.627 86.1954 148.627Z" fill="white" stroke="#623061" stroke-linecap="round" stroke-linejoin="round"/>
<path d="M142.356 143.866C146.809 143.866 150.42 140.256 150.42 135.802C150.42 131.348 146.809 127.737 142.356 127.737C137.902 127.737 134.291 131.348 134.291 135.802C134.291 140.256 137.902 143.866 142.356 143.866Z" fill="white" stroke="#623061" stroke-linecap="round" stroke-linejoin="round"/>
<path d="M30.59 24.8053L9.60523 26.5858C7.78671 26.7401 6.43759 28.3394 6.59189 30.158C6.7462 31.9765 8.34549 33.3256 10.164 33.1713L31.1488 31.3907C32.9673 31.2364 34.3165 29.6371 34.1622 27.8186C34.0079 26.0001 32.4086 24.651 30.59 24.8053Z" fill="#623061"/>
<path d="M92.9062 83.6477C93.3158 80.5228 94.7812 77.6318 97.0595 75.4542C99.3379 73.2766 102.292 71.9433 105.432 71.6755C108.573 71.4077 111.71 72.2213 114.324 73.9816C116.938 75.7419 118.872 78.3429 119.805 81.3533" stroke="#623061" stroke-linecap="round" stroke-linejoin="round"/>
<path d="M120.029 65.1742C121.088 65.1742 121.947 64.3156 121.947 63.2565C121.947 62.1974 121.088 61.3389 120.029 61.3389C118.97 61.3389 118.111 62.1974 118.111 63.2565C118.111 64.3156 118.97 65.1742 120.029 65.1742Z" fill="#623061"/>
<path d="M89.6364 67.7426C90.6955 67.7426 91.5541 66.884 91.5541 65.8249C91.5541 64.7658 90.6955 63.9072 89.6364 63.9072C88.5773 63.9072 87.7188 64.7658 87.7188 65.8249C87.7188 66.884 88.5773 67.7426 89.6364 67.7426Z" fill="#623061"/>
<path d="M35.6152 138.183V145.562" stroke="#623061" stroke-linecap="round" stroke-linejoin="round"/>
<path d="M31.9355 141.863H39.2981" stroke="#623061" stroke-linecap="round" stroke-linejoin="round"/>
<path d="M153.262 1V8.36251" stroke="#623061" stroke-linecap="round" stroke-linejoin="round"/>
<path d="M149.58 4.68018H156.943" stroke="#623061" stroke-linecap="round" stroke-linejoin="round"/>
<path d="M66.0938 23.0015V30.364" stroke="#623061" stroke-linecap="round" stroke-linejoin="round"/>
<path d="M62.3945 26.6831H69.7742" stroke="#623061" stroke-linecap="round" stroke-linejoin="round"/>
<path d="M171.633 50.072C172.598 50.072 173.38 49.2901 173.38 48.3256C173.38 47.361 172.598 46.5791 171.633 46.5791C170.669 46.5791 169.887 47.361 169.887 48.3256C169.887 49.2901 170.669 50.072 171.633 50.072Z" fill="#623061" stroke="#623061" stroke-linecap="round" stroke-linejoin="round"/>
<path d="M106.365 34.3696C107.292 34.3696 108.043 33.6184 108.043 32.6916C108.043 31.7649 107.292 31.0137 106.365 31.0137C105.439 31.0137 104.688 31.7649 104.688 32.6916C104.688 33.6184 105.439 34.3696 106.365 34.3696Z" fill="#623061"/>
<path d="M117.631 156.143C118.558 156.143 119.309 155.391 119.309 154.465C119.309 153.538 118.558 152.787 117.631 152.787C116.704 152.787 115.953 153.538 115.953 154.465C115.953 155.391 116.704 156.143 117.631 156.143Z" fill="#623061"/>
</svg>
