<svg width="142" height="142" viewBox="0 0 142 142" fill="none" xmlns="http://www.w3.org/2000/svg">
<circle cx="71" cy="71" r="71" fill="#FFD151"/>
<path d="M116.397 71.658L126.304 72.6159L125.563 80.2775L115.656 79.3195L115.807 77.7545L124.469 78.5921L124.907 74.0605L116.245 73.2229L116.397 71.658Z" fill="#111111"/>
<path d="M120.012 81.622L120.612 81.8117C122.089 82.2788 123.112 83.0204 123.68 84.0364C124.246 85.0567 124.339 86.1665 123.96 87.3658C123.581 88.5651 122.866 89.4193 121.816 89.9285C120.765 90.442 119.5 90.4652 118.023 89.998L117.423 89.8084C115.946 89.3413 114.925 88.5953 114.36 87.5707C113.794 86.5503 113.7 85.4405 114.079 84.2412C114.458 83.042 115.173 82.1877 116.223 81.6785C117.272 81.1737 118.535 81.1549 120.012 81.622ZM119.471 83.1287C118.402 82.7906 117.501 82.7614 116.767 83.0408C116.037 83.326 115.549 83.8553 115.305 84.6287C115.06 85.4022 115.155 86.1156 115.588 86.769C116.027 87.4238 116.78 87.9202 117.849 88.2582L118.566 88.4849C119.635 88.8229 120.535 88.8493 121.266 88.5642C122.001 88.2804 122.49 87.7518 122.735 86.9783C122.979 86.2049 122.883 85.4908 122.444 84.836C122.009 84.1869 121.257 83.6934 120.188 83.3554L119.471 83.1287Z" fill="#111111"/>
<path d="M116.474 92.054L117.02 92.3658C118.366 93.1342 119.209 94.0748 119.549 95.1877C119.89 96.3006 119.755 97.3913 119.145 98.4599C118.546 99.5086 117.792 100.172 116.883 100.451C115.973 100.729 115.105 100.632 114.278 100.16L114.189 100.109L114.972 98.7375L115.067 98.7917C115.605 99.0991 116.137 99.1826 116.663 99.0422C117.19 98.9019 117.646 98.4934 118.032 97.8166C118.414 97.1478 118.48 96.4585 118.229 95.7486C117.983 95.0409 117.337 94.3888 116.292 93.7922L115.616 93.4058C114.65 92.8543 113.779 92.6378 113.003 92.7562C112.231 92.8768 111.65 93.2775 111.262 93.9582C110.898 94.5953 110.795 95.1745 110.954 95.6956C111.113 96.2167 111.441 96.6502 111.936 96.996L112.027 97.0561L111.244 98.4274L111.153 98.3672C110.37 97.8361 109.856 97.1229 109.612 96.2276C109.369 95.3385 109.547 94.3696 110.146 93.3209C110.758 92.2484 111.63 91.576 112.762 91.3038C113.895 91.0378 115.132 91.2879 116.474 92.054Z" fill="#111111"/>
<path d="M107.833 97.8368L115.122 104.614L113.744 106.096L106.637 103.259C106.493 103.2 106.352 103.137 106.214 103.071C106.08 103.008 105.948 102.939 105.82 102.863L105.782 102.903C105.868 103.026 105.948 103.153 106.024 103.286C106.099 103.419 106.17 103.553 106.237 103.689L109.578 110.577L108.191 112.069L100.902 105.291L101.949 104.165L107.005 108.866C107.109 108.962 107.222 109.071 107.346 109.192C107.473 109.317 107.582 109.434 107.673 109.543L107.71 109.503C107.626 109.387 107.535 109.25 107.439 109.092C107.346 108.938 107.267 108.792 107.201 108.656L103.965 101.997L104.868 101.026L111.735 103.78C111.875 103.836 112.028 103.903 112.192 103.981C112.356 104.065 112.499 104.145 112.621 104.222L112.659 104.182C112.543 104.099 112.418 103.998 112.285 103.881C112.155 103.766 112.038 103.661 111.935 103.565L106.879 98.8631L107.833 97.8368Z" fill="#111111"/>
<path d="M102.473 109.995L102.82 110.519C103.676 111.811 104.005 113.03 103.809 114.177C103.608 115.327 102.983 116.249 101.935 116.944C100.886 117.638 99.7933 117.854 98.6565 117.59C97.5159 117.328 96.5178 116.552 95.6622 115.26L95.3149 114.736C94.4593 113.444 94.1337 112.222 94.3381 111.07C94.5388 109.92 95.1634 108.998 96.2121 108.304C97.2607 107.609 98.3535 107.394 99.4902 107.657C100.623 107.924 101.618 108.703 102.473 109.995ZM101.106 110.827C100.486 109.892 99.8038 109.303 99.0575 109.059C98.31 108.822 97.5981 108.927 96.9217 109.375C96.2454 109.823 95.8707 110.437 95.7976 111.218C95.727 112.003 96.0012 112.863 96.6203 113.797L97.0355 114.424C97.6546 115.359 98.3379 115.945 99.0854 116.182C99.8355 116.423 100.549 116.32 101.225 115.872C101.901 115.424 102.275 114.808 102.345 114.023C102.415 113.245 102.14 112.388 101.521 111.454L101.106 110.827Z" fill="#111111"/>
<path d="M95.2337 119.359L95.6994 120.52L88.4475 123.429L87.9818 122.268L90.8813 121.105L87.6418 113.028L89.101 112.443L92.3406 120.52L95.2337 119.359Z" fill="#111111"/>
<path d="M83.5145 114.533L85.5285 124.28L82.1411 124.98C81.0476 125.206 80.1528 125.11 79.4565 124.69C78.7558 124.272 78.3091 123.597 78.1164 122.664C77.9237 121.731 78.0652 120.929 78.5409 120.259C79.0121 119.589 79.7944 119.141 80.8879 118.915L82.7356 118.533L81.9748 114.851L83.5145 114.533ZM82.9873 119.752L81.1999 120.121C80.4858 120.269 80.0237 120.543 79.8135 120.945C79.5998 121.352 79.5473 121.819 79.6561 122.346C79.765 122.872 79.9968 123.273 80.3516 123.549C80.7028 123.83 81.2355 123.897 81.9496 123.749L83.737 123.38L82.9873 119.752Z" fill="#111111"/>
<path d="M75.5426 116.022L75.7731 125.973L69.3764 126.121L69.3474 124.87L74.1723 124.759L74.1039 121.806L69.9009 121.904L69.8721 120.66L74.0751 120.562L73.9997 117.309L69.1065 117.423L69.0775 116.172L75.5426 116.022Z" fill="#111111"/>
<path d="M66.8089 124.807L66.6076 126.042L58.896 124.784L59.0974 123.549L62.1807 124.052L63.5815 115.464L65.1333 115.717L63.7324 124.305L66.8089 124.807Z" fill="#111111"/>
<path d="M55.9546 124.009L54.4725 123.484L55.7384 119.908L53.9598 119.278C52.8771 118.895 52.1544 118.342 51.7915 117.619C51.4286 116.896 51.4015 116.098 51.7102 115.226C52.0204 114.35 52.5447 113.743 53.2832 113.405C54.0217 113.066 54.9322 113.089 56.0148 113.472L59.2756 114.626L55.9546 124.009ZM56.1535 118.735L57.3783 115.275L55.6513 114.663C54.9768 114.425 54.4443 114.42 54.0537 114.649C53.6574 114.881 53.3703 115.248 53.1924 115.751C53.016 116.249 53.0104 116.709 53.1756 117.13C53.335 117.554 53.7519 117.885 54.4264 118.124L56.1535 118.735Z" fill="#111111"/>
<path d="M48.5359 110.154L42.829 118.309L36.5227 113.895L42.2296 105.741L43.5177 106.642L38.5281 113.772L42.2582 116.382L47.2477 109.253L48.5359 110.154Z" fill="#111111"/>
<path d="M38.0723 108.375L37.6118 108.803C36.4771 109.858 35.3278 110.383 34.1639 110.376C32.997 110.366 31.9853 109.9 31.1288 108.979C30.2722 108.058 29.8813 107.015 29.9559 105.85C30.0273 104.682 30.6304 103.571 31.7652 102.516L32.2257 102.087C33.3605 101.032 34.5128 100.511 35.6829 100.525C36.8498 100.535 37.8616 101.001 38.7181 101.922C39.5746 102.843 39.9655 103.886 39.891 105.05C39.8133 106.212 39.2071 107.32 38.0723 108.375ZM37.0281 107.162C37.8492 106.398 38.3189 105.629 38.4374 104.853C38.5495 104.076 38.3293 103.391 37.7769 102.797C37.2245 102.203 36.5572 101.934 35.7748 101.989C34.9891 102.048 34.1857 102.458 33.3647 103.222L32.814 103.734C31.993 104.497 31.5265 105.267 31.4144 106.043C31.299 106.823 31.5175 107.51 32.0699 108.104C32.6223 108.698 33.2913 108.965 34.0771 108.907C34.8563 108.848 35.6565 108.437 36.4775 107.674L37.0281 107.162Z" fill="#111111"/>
<path d="M30.795 100.243L30.2559 100.567C28.9276 101.365 27.6948 101.641 26.5575 101.393C25.4202 101.146 24.5347 100.495 23.9011 99.4404C23.2792 98.4052 23.0693 97.4228 23.2712 96.4935C23.4731 95.5641 23.9823 94.8541 24.7988 94.3637L24.8867 94.3109L25.6999 95.6645L25.6061 95.7208C25.0748 96.04 24.7417 96.4634 24.6068 96.991C24.4718 97.5186 24.605 98.1165 25.0063 98.7845C25.4029 99.4447 25.9721 99.8391 26.7139 99.9677C27.4517 100.099 28.3363 99.8543 29.3677 99.2347L30.0357 98.8334C30.9889 98.2608 31.6037 97.6071 31.88 96.8723C32.1524 96.1398 32.0867 95.4376 31.6831 94.7657C31.3053 94.1367 30.8502 93.7642 30.3179 93.648C29.7856 93.5318 29.2475 93.6052 28.7037 93.8681L28.6064 93.9185L27.7932 92.5649L27.8905 92.5144C28.7367 92.0911 29.6101 91.9918 30.5106 92.2164C31.4048 92.4395 32.1629 93.0686 32.7848 94.1039C33.4207 95.1626 33.5807 96.252 33.2648 97.3722C32.9426 98.4908 32.1193 99.4478 30.795 100.243Z" fill="#111111"/>
<path d="M30.0012 89.9382L20.5227 92.9749L19.9053 91.048L25.8592 86.2405C25.9813 86.1439 26.1049 86.0517 26.2299 85.9638C26.3505 85.8773 26.4754 85.7966 26.6046 85.7217L26.5879 85.6697C26.4393 85.6838 26.2886 85.6914 26.1358 85.6925C25.983 85.6936 25.831 85.6896 25.6798 85.6806L18.0387 85.2215L17.4171 83.2815L26.8957 80.2448L27.365 81.7096L20.7899 83.8161C20.6553 83.8592 20.5049 83.905 20.3386 83.9535C20.1679 84.0034 20.0126 84.0412 19.8725 84.0669L19.8891 84.119C20.032 84.1019 20.1958 84.0902 20.3803 84.0837C20.5605 84.0786 20.7262 84.0805 20.8775 84.0895L28.2681 84.5284L28.6727 85.7914L22.9089 90.4302C22.791 90.5254 22.658 90.6255 22.5097 90.7304C22.3558 90.8324 22.2157 90.9179 22.0895 90.9871L22.1062 91.0391C22.2352 90.9787 22.3836 90.9192 22.5515 90.8606C22.715 90.8034 22.864 90.7533 22.9986 90.7102L29.5737 88.6037L30.0012 89.9382Z" fill="#111111"/>
<path d="M22.0225 79.3353L21.3951 79.3789C19.8494 79.4865 18.626 79.1718 17.7251 78.435C16.8238 77.6937 16.3296 76.6956 16.2423 75.4408C16.155 74.1861 16.5064 73.1292 17.2963 72.2702C18.086 71.4067 19.2537 70.9212 20.7994 70.8137L21.4268 70.7701C22.9725 70.6625 24.1962 70.9817 25.0978 71.7276C25.999 72.469 26.4933 73.467 26.5806 74.7218C26.6679 75.9766 26.3165 77.0334 25.5266 77.8924C24.7363 78.7468 23.5683 79.2278 22.0225 79.3353ZM21.9729 77.7353C23.0913 77.6575 23.9405 77.354 24.5204 76.8249C25.0954 76.2915 25.3548 75.6202 25.2985 74.811C25.2422 74.0017 24.8924 73.3728 24.2491 72.9242C23.6012 72.4758 22.718 72.2906 21.5996 72.3684L20.8495 72.4205C19.7311 72.4983 18.8844 72.8039 18.3093 73.3373C17.7297 73.871 17.4681 74.5424 17.5243 75.3517C17.5806 76.1609 17.9327 76.7897 18.5806 77.238C19.2237 77.6821 20.1044 77.8652 21.2228 77.7875L21.9729 77.7353Z" fill="#111111"/>
<path d="M17.4255 68.3538L16.1852 68.1904L17.2059 60.4439L18.4461 60.6073L18.038 63.7046L26.6656 64.8413L26.4602 66.4001L17.8327 65.2634L17.4255 68.3538Z" fill="#111111"/>
<path d="M27.3734 60.4384L17.9064 57.3659L18.9741 54.0759C19.3188 53.0139 19.8455 52.2841 20.5543 51.8864C21.2645 51.4845 22.0726 51.4305 22.9786 51.7245C23.8845 52.0185 24.5112 52.5382 24.8587 53.2834C25.2076 54.0243 25.2097 54.9257 24.865 55.9877L24.2826 57.7823L27.8588 58.9429L27.3734 60.4384ZM23.0992 57.3982L23.6627 55.6622C23.8878 54.9686 23.8777 54.4311 23.6326 54.0497C23.3845 53.6626 23.0047 53.386 22.4932 53.22C21.9817 53.054 21.5184 53.057 21.1033 53.2289C20.6852 53.395 20.3636 53.8249 20.1385 54.5185L19.5751 56.2545L23.0992 57.3982Z" fill="#111111"/>
<path d="M29.9291 52.8923L21.1613 48.1816L24.1896 42.5452L25.2916 43.1372L23.0074 47.3887L25.6089 48.7863L27.5986 45.0829L28.6946 45.6717L26.7049 49.3752L29.5713 50.9152L31.8878 46.6035L32.9898 47.1956L29.9291 52.8923Z" fill="#111111"/>
<path d="M26.6178 40.9033L25.6422 40.1203L30.5328 34.0267L31.5084 34.8097L29.553 37.2461L36.3398 42.6929L35.3557 43.9191L28.5689 38.4723L26.6178 40.9033Z" fill="#111111"/>
<path d="M32.6002 31.8851L33.786 30.8527L36.2772 33.7142L37.7002 32.4753C38.5664 31.7212 39.4035 31.364 40.2115 31.4037C41.0195 31.4435 41.7273 31.8122 42.3347 32.51C42.9452 33.2111 43.216 33.9664 43.1471 34.7756C43.0782 35.5848 42.6107 36.3665 41.7445 37.1206L39.1357 39.3919L32.6002 31.8851ZM37.0942 34.6525L39.5046 37.4211L40.8863 36.2182C41.426 35.7484 41.6921 35.2871 41.6846 34.8343C41.6776 34.3752 41.499 33.9445 41.1489 33.5424C40.8018 33.1436 40.4043 32.9126 39.9565 32.8494C39.5091 32.7797 39.0155 32.9797 38.4759 33.4495L37.0942 34.6525Z" fill="#111111"/>
<path d="M48.1463 32.2687L43.83 23.3002L50.7658 19.9621L55.0821 28.9306L53.6654 29.6125L49.8916 21.7712L45.7892 23.7455L49.5631 31.5868L48.1463 32.2687Z" fill="#111111"/>
<path d="M54.6939 24.0082L54.5456 23.397C54.1802 21.8913 54.2851 20.6325 54.8602 19.6206C55.4398 18.6078 56.3408 17.953 57.5631 17.6564C58.7855 17.3598 59.8863 17.5288 60.8657 18.1634C61.8494 18.797 62.524 19.8666 62.8894 21.3724L63.0377 21.9836C63.4031 23.4894 63.2937 24.7493 62.7097 25.7632C62.1301 26.7761 61.2292 27.4309 60.0068 27.7275C58.7845 28.0241 57.6837 27.855 56.7043 27.2204C55.7294 26.5847 55.0592 25.514 54.6939 24.0082ZM56.2629 23.6908C56.5272 24.7803 56.9689 25.5665 57.5878 26.0494C58.2102 26.5268 58.9155 26.6698 59.7038 26.4785C60.4921 26.2873 61.0534 25.8369 61.3877 25.1273C61.721 24.4134 61.7554 23.5117 61.491 22.4222L61.3137 21.6915C61.0494 20.602 60.606 19.8185 59.9837 19.3411C59.3603 18.8593 58.6545 18.714 57.8662 18.9053C57.0778 19.0966 56.5171 19.5492 56.1838 20.2632C55.854 20.9716 55.8212 21.8706 56.0856 22.9601L56.2629 23.6908Z" fill="#111111"/>
<path d="M65.5036 21.5838L65.4866 20.9551C65.4448 19.4062 65.811 18.1973 66.5853 17.3284C67.3597 16.4595 68.3618 16.0085 69.5919 15.9752C70.7991 15.9426 71.7578 16.2427 72.4678 16.8754C73.1779 17.5082 73.5458 18.3006 73.5715 19.2527L73.5743 19.3552L71.9958 19.3979L71.9928 19.2885C71.9761 18.669 71.7711 18.1707 71.378 17.7939C70.9848 17.417 70.3988 17.2391 69.6198 17.2601C68.8499 17.2809 68.2266 17.5827 67.75 18.1654C67.2732 18.7436 67.0511 19.6341 67.0836 20.8368L67.1047 21.6158C67.1347 22.7274 67.4018 23.5841 67.9058 24.1859C68.4098 24.7832 69.0535 25.0712 69.8371 25.0501C70.5706 25.0302 71.1187 24.8171 71.4816 24.4107C71.8444 24.0042 72.0451 23.4996 72.0835 22.8968L72.0874 22.7873L73.6659 22.7446L73.662 22.8541C73.6146 23.7991 73.2717 24.6085 72.6335 25.2822C71.9996 25.9513 71.0791 26.3021 69.8718 26.3347C68.6373 26.3681 67.6099 25.9719 66.7898 25.1461C65.9741 24.3156 65.5453 23.1282 65.5036 21.5838Z" fill="#111111"/>
<path d="M75.2957 25.9671L77.3469 16.2276L79.3269 16.6446L80.5586 24.1973C80.582 24.3513 80.601 24.5043 80.6156 24.6564C80.631 24.804 80.6394 24.9525 80.6405 25.1018L80.694 25.113C80.7553 24.9769 80.8233 24.8422 80.8979 24.7089C80.9726 24.5756 81.0512 24.4454 81.1338 24.3184L85.3137 17.9055L87.3071 18.3253L85.2559 28.0647L83.7509 27.7478L85.1737 20.9917C85.2028 20.8534 85.2375 20.7001 85.2776 20.5315C85.3187 20.3586 85.3627 20.2048 85.4097 20.0703L85.3561 20.0591C85.3003 20.1917 85.2295 20.3398 85.1438 20.5034C85.0591 20.6625 84.9754 20.8055 84.8928 20.9325L80.8544 27.1378L79.5567 26.8645L78.3775 19.5604C78.3531 19.4109 78.332 19.2458 78.3141 19.065C78.3017 18.8808 78.2967 18.7167 78.299 18.5728L78.2455 18.5616C78.2342 18.7036 78.2125 18.862 78.1804 19.0368C78.1491 19.2072 78.119 19.3616 78.0898 19.4998L76.667 26.2559L75.2957 25.9671Z" fill="#111111"/>
<path d="M88.4327 24.259L88.7054 23.6923C89.3773 22.2961 90.2564 21.389 91.3427 20.9711C92.433 20.5551 93.5449 20.6199 94.6782 21.1653C95.8116 21.7108 96.5559 22.5394 96.911 23.651C97.2703 24.7646 97.1139 26.0195 96.4419 27.4157L96.1692 27.9824C95.4973 29.3786 94.6141 30.2837 93.5196 30.6977C92.4293 31.1136 91.3174 31.0489 90.184 30.5034C89.0507 29.9579 88.3064 29.1294 87.9513 28.0178C87.6002 26.9081 87.7607 25.6552 88.4327 24.259ZM89.8473 25.0081C89.3612 26.0183 89.2044 26.9063 89.3769 27.6721C89.5556 28.4359 90.0104 28.9936 90.7414 29.3454C91.4723 29.6972 92.192 29.7047 92.9003 29.3679C93.6106 29.0269 94.2088 28.3514 94.695 27.3412L95.0211 26.6636C95.5073 25.6534 95.661 24.7665 95.4824 24.0028C95.3057 23.235 94.8519 22.6751 94.1209 22.3234C93.39 21.9716 92.6693 21.9661 91.959 22.3071C91.2548 22.6459 90.6596 23.3204 90.1734 24.3305L89.8473 25.0081Z" fill="#111111"/>
<path d="M100.053 25.5716L100.807 24.5736L107.04 29.2844L106.286 30.2825L103.794 28.399L98.5473 35.3416L97.2929 34.3937L102.54 27.451L100.053 25.5716Z" fill="#111111"/>
<path d="M101.954 38.0422L109.268 31.2911L111.614 33.8327C112.371 34.6532 112.75 35.4697 112.749 36.2824C112.752 37.0985 112.404 37.8296 111.704 38.4756C111.004 39.1217 110.244 39.4138 109.424 39.352C108.607 39.2935 107.82 38.854 107.063 38.0336L105.783 36.6473L103.02 39.1975L101.954 38.0422ZM106.697 35.8034L107.935 37.1445C108.43 37.6803 108.904 37.9347 109.356 37.9076C109.815 37.8808 110.242 37.6851 110.637 37.3203C111.033 36.9556 111.257 36.5501 111.31 36.1039C111.37 35.6581 111.152 35.1672 110.658 34.6314L109.42 33.2903L106.697 35.8034Z" fill="#111111"/>
<path d="M107.372 44.0635L115.769 38.7205L119.204 44.1188L118.149 44.7904L115.558 40.7185L113.066 42.3038L115.323 45.8508L114.274 46.5187L112.017 42.9717L109.271 44.7184L111.899 48.8479L110.843 49.5195L107.372 44.0635Z" fill="#111111"/>
<path d="M119.374 46.8778L120.533 46.4077L123.469 53.6487L122.31 54.1187L121.136 51.2236L113.071 54.4933L112.48 53.0363L120.545 49.7665L119.374 46.8778Z" fill="#111111"/>
<path d="M124.364 56.6102L124.682 58.1499L120.967 58.9176L121.348 60.7653C121.581 61.89 121.481 62.7947 121.051 63.4794C120.62 64.164 119.951 64.6 119.045 64.7872C118.135 64.9753 117.344 64.8409 116.672 64.384C116.001 63.9271 115.549 63.1363 115.317 62.0116L114.617 58.6241L124.364 56.6102ZM119.748 59.1694L116.153 59.9121L116.524 61.7063C116.669 62.407 116.94 62.8651 117.338 63.0806C117.742 63.2997 118.205 63.3553 118.727 63.2474C119.245 63.1405 119.641 62.9074 119.916 62.5481C120.196 62.1924 120.264 61.6642 120.119 60.9635L119.748 59.1694Z" fill="#111111"/>
</svg>
