<svg width="76" height="26" viewBox="0 0 76 26" fill="transparent" xmlns="http://www.w3.org/2000/svg">
<g clip-path="url(#clip0_792_3124)">
<path d="M75.3272 0.650391H0.672363V25.3504H75.3272V0.650391Z" stroke="currentColor" stroke-width="1.4"/>
<path d="M13.2305 8.30758V17.5498H11.9629V8.30758H13.2305ZM19.4105 8.30758V17.5498H18.1626V8.30758H19.4105ZM22.4844 8.30758V9.31053H15.0953V8.30758H22.4844ZM35.4092 8.30758V17.5498H34.135L29.3206 10.4214V17.5498H28.053V8.30758H29.3206L34.1547 15.455V8.30758H35.4092ZM40.9586 17.6767C40.4638 17.6767 40.015 17.5963 39.6122 17.4355C39.2137 17.2705 38.8701 17.0399 38.5811 16.7437C38.2964 16.4474 38.0775 16.0962 37.9242 15.69C37.7709 15.2837 37.6943 14.8394 37.6943 14.3569V14.0903C37.6943 13.5318 37.7798 13.0345 37.9505 12.5986C38.1213 12.1585 38.3533 11.7861 38.6467 11.4815C38.9401 11.1767 39.2729 10.9461 39.6451 10.7895C40.0172 10.633 40.4026 10.5547 40.801 10.5547C41.309 10.5547 41.7468 10.6393 42.1146 10.8086C42.4868 10.9778 42.7911 11.2148 43.0276 11.5196C43.2641 11.82 43.4392 12.1755 43.553 12.5859C43.6669 12.9922 43.7238 13.4365 43.7238 13.919V14.4458H38.4168V13.4873H42.5087V13.3984C42.4912 13.0937 42.4255 12.7975 42.3116 12.5098C42.2022 12.222 42.0271 11.985 41.7862 11.7988C41.5454 11.6126 41.217 11.5196 40.801 11.5196C40.5252 11.5196 40.2712 11.5766 40.0391 11.6909C39.8071 11.8009 39.6079 11.966 39.4415 12.186C39.2751 12.4061 39.1459 12.6748 39.0539 12.9922C38.962 13.3096 38.916 13.6756 38.916 14.0903V14.3569C38.916 14.6828 38.962 14.9896 39.0539 15.2773C39.1502 15.5609 39.2882 15.8105 39.4677 16.0263C39.6516 16.2422 39.8727 16.4115 40.1311 16.5342C40.3938 16.6569 40.6916 16.7183 41.0244 16.7183C41.4534 16.7183 41.8169 16.6336 42.1146 16.4644C42.4124 16.2951 42.6729 16.0687 42.8962 15.7852L43.6318 16.3501C43.4786 16.5743 43.2838 16.7881 43.0473 16.9912C42.8108 17.1943 42.5197 17.3594 42.1738 17.4863C41.8322 17.6133 41.4272 17.6767 40.9586 17.6767ZM46.8957 11.7608V17.5498H45.6805V10.6816H46.8628L46.8957 11.7608ZM49.1156 10.6436L49.1091 11.7354C49.0083 11.7142 48.912 11.7015 48.8201 11.6973C48.7325 11.6888 48.6317 11.6846 48.518 11.6846C48.2377 11.6846 47.9903 11.7269 47.7758 11.8115C47.5612 11.8962 47.3795 12.0147 47.2306 12.167C47.0818 12.3193 46.9635 12.5013 46.8759 12.7129C46.7928 12.9202 46.738 13.1488 46.7117 13.3984L46.3702 13.5888C46.3702 13.1741 46.4118 12.7848 46.495 12.4209C46.5826 12.057 46.7161 11.7354 46.8957 11.4561C47.0752 11.1725 47.3028 10.9525 47.5787 10.7959C47.859 10.6351 48.1917 10.5547 48.5771 10.5547C48.6646 10.5547 48.7653 10.5653 48.8792 10.5864C48.993 10.6034 49.0718 10.6224 49.1156 10.6436ZM55.1248 16.2168V7.7998H56.3465V17.5498H55.23L55.1248 16.2168ZM50.3433 14.1919V14.0586C50.3433 13.5338 50.409 13.0578 50.5404 12.6303C50.6761 12.1987 50.8666 11.8284 51.1118 11.5196C51.3614 11.2106 51.657 10.9736 51.9985 10.8086C52.3444 10.6393 52.7297 10.5547 53.1544 10.5547C53.6011 10.5547 53.9908 10.6309 54.3235 10.7832C54.6607 10.9313 54.9453 11.1493 55.1774 11.437C55.4138 11.7205 55.5999 12.0633 55.7357 12.4653C55.8714 12.8673 55.9655 13.3223 56.0181 13.83V14.4141C55.9699 14.9176 55.8758 15.3704 55.7357 15.7724C55.5999 16.1745 55.4138 16.5173 55.1774 16.8008C54.9453 17.0843 54.6607 17.3022 54.3235 17.4546C53.9864 17.6027 53.5923 17.6767 53.1413 17.6767C52.7253 17.6767 52.3444 17.59 51.9985 17.4165C51.657 17.243 51.3614 16.9996 51.1118 16.6865C50.8666 16.3734 50.6761 16.0052 50.5404 15.5821C50.409 15.1546 50.3433 14.6912 50.3433 14.1919ZM51.5649 14.0586V14.1919C51.5649 14.5346 51.6 14.8563 51.6701 15.1568C51.7445 15.4572 51.8583 15.7217 52.0116 15.9502C52.1649 16.1787 52.3597 16.3585 52.5961 16.4897C52.8326 16.6167 53.115 16.6802 53.4434 16.6802C53.8463 16.6802 54.1769 16.5977 54.4352 16.4326C54.6979 16.2675 54.9081 16.0497 55.0657 15.7788C55.2234 15.508 55.346 15.2138 55.4335 14.8965V13.3667C55.381 13.134 55.3043 12.9096 55.2037 12.6938C55.1074 12.4738 54.9804 12.2791 54.8227 12.1099C54.6694 11.9363 54.479 11.7988 54.2513 11.6973C54.028 11.5957 53.7631 11.5449 53.4565 11.5449C53.1238 11.5449 52.837 11.6126 52.5961 11.748C52.3597 11.8792 52.1649 12.0612 52.0116 12.294C51.8583 12.5224 51.7445 12.7891 51.6701 13.0937C51.6 13.3942 51.5649 13.7158 51.5649 14.0586ZM62.914 15.728C62.914 15.5587 62.8746 15.4022 62.7958 15.2583C62.7213 15.1102 62.5659 14.9769 62.3294 14.8584C62.0974 14.7357 61.7471 14.6299 61.2786 14.541C60.8845 14.4606 60.5276 14.3654 60.208 14.2553C59.8927 14.1454 59.6234 14.012 59.4001 13.8555C59.1812 13.6989 59.0126 13.5148 58.8944 13.3032C58.7761 13.0916 58.717 12.8441 58.717 12.5605C58.717 12.2897 58.7784 12.0337 58.901 11.7925C59.0279 11.5513 59.2052 11.3376 59.433 11.1513C59.665 10.9652 59.943 10.8192 60.2671 10.7134C60.5911 10.6076 60.9524 10.5547 61.3508 10.5547C61.92 10.5547 62.406 10.652 62.8089 10.8467C63.2118 11.0414 63.5205 11.3016 63.735 11.6275C63.9496 11.9491 64.0569 12.3066 64.0569 12.7002H62.8417C62.8417 12.5098 62.7826 12.3257 62.6644 12.148C62.5506 11.966 62.382 11.8158 62.1587 11.6973C61.9398 11.5788 61.6705 11.5196 61.3508 11.5196C61.0136 11.5196 60.74 11.5703 60.5298 11.6719C60.324 11.7692 60.1729 11.894 60.0766 12.0464C59.9847 12.1987 59.9387 12.3596 59.9387 12.5288C59.9387 12.6558 59.9606 12.77 60.0044 12.8716C60.0525 12.9689 60.1357 13.0599 60.254 13.1446C60.3722 13.225 60.5386 13.3011 60.7531 13.373C60.9677 13.445 61.2414 13.5169 61.5741 13.5888C62.1565 13.7158 62.6359 13.8681 63.0125 14.0459C63.3891 14.2236 63.6693 14.4416 63.8532 14.6997C64.0371 14.9579 64.1291 15.271 64.1291 15.6391C64.1291 15.9396 64.0634 16.2147 63.932 16.4644C63.805 16.714 63.6189 16.9298 63.3738 17.1118C63.1329 17.2895 62.8439 17.4292 62.5068 17.5308C62.174 17.6281 61.7997 17.6767 61.3837 17.6767C60.7575 17.6767 60.2277 17.5688 59.7942 17.353C59.3607 17.1372 59.0323 16.8579 58.809 16.5151C58.5857 16.1724 58.474 15.8105 58.474 15.4297H59.6957C59.7132 15.7513 59.8095 16.0074 59.9847 16.1977C60.1598 16.384 60.3744 16.5173 60.6283 16.5977C60.8823 16.6738 61.1341 16.7119 61.3837 16.7119C61.7165 16.7119 61.9945 16.6696 62.2178 16.5849C62.4455 16.5003 62.6184 16.384 62.7367 16.2358C62.8549 16.0878 62.914 15.9184 62.914 15.728Z" fill="currentColor"/>
</g>
<defs>
<clipPath id="clip0_792_3124">
<rect width="76" height="26" fill="currentColor"/>
</clipPath>
</defs>
</svg>
