<svg width="1440" height="28" viewBox="0 0 1440 28" fill="none" xmlns="http://www.w3.org/2000/svg">
<path fill-rule="evenodd" clip-rule="evenodd" d="M-0.0876622 4.54731C4.30397 -1.51577 13.3379 -1.51577 17.7295 4.54731L20.569 8.46748C24.9606 14.5306 33.9945 14.5306 38.3861 8.46749L41.2256 4.54731C45.6172 -1.51576 54.6511 -1.51577 59.0428 4.54731L61.8822 8.46748C66.2738 14.5306 75.3078 14.5306 79.6994 8.46748L82.5389 4.54731C86.9305 -1.51577 95.9644 -1.51577 100.356 4.54731L104.157 9.79546C109.425 17.0684 104.229 27.2481 95.2488 27.2481H75.4855H66.0961H34.1722H24.7829H5.01957C-3.96084 27.2481 -9.157 17.0684 -3.88902 9.79546L-0.0876622 4.54731Z" fill="#F7F7F7"/>
<path fill-rule="evenodd" clip-rule="evenodd" d="M82.9123 4.54731C87.304 -1.51577 96.3379 -1.51577 100.729 4.54731L103.569 8.46748C107.961 14.5306 116.994 14.5306 121.386 8.46749L124.226 4.54731C128.617 -1.51576 137.651 -1.51577 142.043 4.54731L144.882 8.46748C149.274 14.5306 158.308 14.5306 162.699 8.46748L165.539 4.54731C169.93 -1.51577 178.964 -1.51577 183.356 4.54731L187.157 9.79546C192.425 17.0684 187.229 27.2481 178.249 27.2481H158.485H149.096H117.172H107.783H88.0196C79.0392 27.2481 73.843 17.0684 79.111 9.79546L82.9123 4.54731Z" fill="#F7F7F7"/>
<path fill-rule="evenodd" clip-rule="evenodd" d="M165.912 4.54731C170.304 -1.51577 179.338 -1.51577 183.729 4.54731L186.569 8.46748C190.961 14.5306 199.994 14.5306 204.386 8.46749L207.226 4.54731C211.617 -1.51576 220.651 -1.51577 225.043 4.54731L227.882 8.46748C232.274 14.5306 241.308 14.5306 245.699 8.46748L248.539 4.54731C252.93 -1.51577 261.964 -1.51577 266.356 4.54731L270.157 9.79546C275.425 17.0684 270.229 27.2481 261.249 27.2481H241.485H232.096H200.172H190.783H171.02C162.039 27.2481 156.843 17.0684 162.111 9.79546L165.912 4.54731Z" fill="#F7F7F7"/>
<path fill-rule="evenodd" clip-rule="evenodd" d="M247.912 4.54731C252.304 -1.51577 261.338 -1.51577 265.729 4.54731L268.569 8.46748C272.961 14.5306 281.994 14.5306 286.386 8.46749L289.226 4.54731C293.617 -1.51576 302.651 -1.51577 307.043 4.54731L309.882 8.46748C314.274 14.5306 323.308 14.5306 327.699 8.46748L330.539 4.54731C334.93 -1.51577 343.964 -1.51577 348.356 4.54731L352.157 9.79546C357.425 17.0684 352.229 27.2481 343.249 27.2481H323.485H314.096H282.172H272.783H253.02C244.039 27.2481 238.843 17.0684 244.111 9.79546L247.912 4.54731Z" fill="#F7F7F7"/>
<path fill-rule="evenodd" clip-rule="evenodd" d="M330.912 4.54731C335.304 -1.51577 344.338 -1.51577 348.729 4.54731L351.569 8.46748C355.961 14.5306 364.994 14.5306 369.386 8.46749L372.226 4.54731C376.617 -1.51576 385.651 -1.51577 390.043 4.54731L392.882 8.46748C397.274 14.5306 406.308 14.5306 410.699 8.46748L413.539 4.54731C417.93 -1.51577 426.964 -1.51577 431.356 4.54731L435.157 9.79546C440.425 17.0684 435.229 27.2481 426.249 27.2481H406.485H397.096H365.172H355.783H336.02C327.039 27.2481 321.843 17.0684 327.111 9.79546L330.912 4.54731Z" fill="#F7F7F7"/>
<path fill-rule="evenodd" clip-rule="evenodd" d="M413.912 4.54731C418.304 -1.51577 427.338 -1.51577 431.729 4.54731L434.569 8.46748C438.961 14.5306 447.994 14.5306 452.386 8.46749L455.226 4.54731C459.617 -1.51576 468.651 -1.51577 473.043 4.54731L475.882 8.46748C480.274 14.5306 489.308 14.5306 493.699 8.46748L496.539 4.54731C500.93 -1.51577 509.964 -1.51577 514.356 4.54731L518.157 9.79546C523.425 17.0684 518.229 27.2481 509.249 27.2481H489.485H480.096H448.172H438.783H419.02C410.039 27.2481 404.843 17.0684 410.111 9.79546L413.912 4.54731Z" fill="#F7F7F7"/>
<path fill-rule="evenodd" clip-rule="evenodd" d="M496.912 4.54731C501.304 -1.51577 510.338 -1.51577 514.729 4.54731L517.569 8.46748C521.961 14.5306 530.994 14.5306 535.386 8.46749L538.226 4.54731C542.617 -1.51576 551.651 -1.51577 556.043 4.54731L558.882 8.46748C563.274 14.5306 572.308 14.5306 576.699 8.46748L579.539 4.54731C583.93 -1.51577 592.964 -1.51577 597.356 4.54731L601.157 9.79546C606.425 17.0684 601.229 27.2481 592.249 27.2481H572.485H563.096H531.172H521.783H502.02C493.039 27.2481 487.843 17.0684 493.111 9.79546L496.912 4.54731Z" fill="#F7F7F7"/>
<path fill-rule="evenodd" clip-rule="evenodd" d="M579.912 4.54731C584.304 -1.51577 593.338 -1.51577 597.729 4.54731L600.569 8.46748C604.961 14.5306 613.994 14.5306 618.386 8.46749L621.226 4.54731C625.617 -1.51576 634.651 -1.51577 639.043 4.54731L641.882 8.46748C646.274 14.5306 655.308 14.5306 659.699 8.46748L662.539 4.54731C666.93 -1.51577 675.964 -1.51577 680.356 4.54731L684.157 9.79546C689.425 17.0684 684.229 27.2481 675.249 27.2481H655.485H646.096H614.172H604.783H585.02C576.039 27.2481 570.843 17.0684 576.111 9.79546L579.912 4.54731Z" fill="#F7F7F7"/>
<path fill-rule="evenodd" clip-rule="evenodd" d="M662.912 4.54731C667.304 -1.51577 676.338 -1.51577 680.729 4.54731L683.569 8.46748C687.961 14.5306 696.994 14.5306 701.386 8.46749L704.226 4.54731C708.617 -1.51576 717.651 -1.51577 722.043 4.54731L724.882 8.46748C729.274 14.5306 738.308 14.5306 742.699 8.46748L745.539 4.54731C749.93 -1.51577 758.964 -1.51577 763.356 4.54731L767.157 9.79546C772.425 17.0684 767.229 27.2481 758.249 27.2481H738.485H729.096H697.172H687.783H668.02C659.039 27.2481 653.843 17.0684 659.111 9.79546L662.912 4.54731Z" fill="#F7F7F7"/>
<path fill-rule="evenodd" clip-rule="evenodd" d="M745.912 4.54731C750.304 -1.51577 759.338 -1.51577 763.729 4.54731L766.569 8.46748C770.961 14.5306 779.994 14.5306 784.386 8.46749L787.226 4.54731C791.617 -1.51576 800.651 -1.51577 805.043 4.54731L807.882 8.46748C812.274 14.5306 821.308 14.5306 825.699 8.46748L828.539 4.54731C832.93 -1.51577 841.964 -1.51577 846.356 4.54731L850.157 9.79546C855.425 17.0684 850.229 27.2481 841.249 27.2481H821.485H812.096H780.172H770.783H751.02C742.039 27.2481 736.843 17.0684 742.111 9.79546L745.912 4.54731Z" fill="#F7F7F7"/>
<path fill-rule="evenodd" clip-rule="evenodd" d="M828.912 4.54731C833.304 -1.51577 842.338 -1.51577 846.729 4.54731L849.569 8.46748C853.961 14.5306 862.994 14.5306 867.386 8.46749L870.226 4.54731C874.617 -1.51576 883.651 -1.51577 888.043 4.54731L890.882 8.46748C895.274 14.5306 904.308 14.5306 908.699 8.46748L911.539 4.54731C915.93 -1.51577 924.964 -1.51577 929.356 4.54731L933.157 9.79546C938.425 17.0684 933.229 27.2481 924.249 27.2481H904.485H895.096H863.172H853.783H834.02C825.039 27.2481 819.843 17.0684 825.111 9.79546L828.912 4.54731Z" fill="#F7F7F7"/>
<path fill-rule="evenodd" clip-rule="evenodd" d="M911.912 4.54731C916.304 -1.51577 925.338 -1.51577 929.729 4.54731L932.569 8.46748C936.961 14.5306 945.994 14.5306 950.386 8.46749L953.226 4.54731C957.617 -1.51576 966.651 -1.51577 971.043 4.54731L973.882 8.46748C978.274 14.5306 987.308 14.5306 991.699 8.46748L994.539 4.54731C998.93 -1.51577 1007.96 -1.51577 1012.36 4.54731L1016.16 9.79546C1021.43 17.0684 1016.23 27.2481 1007.25 27.2481H987.485H978.096H946.172H936.783H917.02C908.039 27.2481 902.843 17.0684 908.111 9.79546L911.912 4.54731Z" fill="#F7F7F7"/>
<path fill-rule="evenodd" clip-rule="evenodd" d="M994.912 4.54731C999.304 -1.51577 1008.34 -1.51577 1012.73 4.54731L1015.57 8.46748C1019.96 14.5306 1028.99 14.5306 1033.39 8.46749L1036.23 4.54731C1040.62 -1.51576 1049.65 -1.51577 1054.04 4.54731L1056.88 8.46748C1061.27 14.5306 1070.31 14.5306 1074.7 8.46748L1077.54 4.54731C1081.93 -1.51577 1090.96 -1.51577 1095.36 4.54731L1099.16 9.79546C1104.43 17.0684 1099.23 27.2481 1090.25 27.2481H1070.49H1061.1H1029.17H1019.78H1000.02C991.039 27.2481 985.843 17.0684 991.111 9.79546L994.912 4.54731Z" fill="#F7F7F7"/>
<path fill-rule="evenodd" clip-rule="evenodd" d="M1077.91 4.54731C1082.3 -1.51577 1091.34 -1.51577 1095.73 4.54731L1098.57 8.46748C1102.96 14.5306 1111.99 14.5306 1116.39 8.46749L1119.23 4.54731C1123.62 -1.51576 1132.65 -1.51577 1137.04 4.54731L1139.88 8.46748C1144.27 14.5306 1153.31 14.5306 1157.7 8.46748L1160.54 4.54731C1164.93 -1.51577 1173.96 -1.51577 1178.36 4.54731L1182.16 9.79546C1187.43 17.0684 1182.23 27.2481 1173.25 27.2481H1153.49H1144.1H1112.17H1102.78H1083.02C1074.04 27.2481 1068.84 17.0684 1074.11 9.79546L1077.91 4.54731Z" fill="#F7F7F7"/>
<path fill-rule="evenodd" clip-rule="evenodd" d="M1160.91 4.54731C1165.3 -1.51577 1174.34 -1.51577 1178.73 4.54731L1181.57 8.46748C1185.96 14.5306 1194.99 14.5306 1199.39 8.46749L1202.23 4.54731C1206.62 -1.51576 1215.65 -1.51577 1220.04 4.54731L1222.88 8.46748C1227.27 14.5306 1236.31 14.5306 1240.7 8.46748L1243.54 4.54731C1247.93 -1.51577 1256.96 -1.51577 1261.36 4.54731L1265.16 9.79546C1270.43 17.0684 1265.23 27.2481 1256.25 27.2481H1236.49H1227.1H1195.17H1185.78H1166.02C1157.04 27.2481 1151.84 17.0684 1157.11 9.79546L1160.91 4.54731Z" fill="#F7F7F7"/>
<path fill-rule="evenodd" clip-rule="evenodd" d="M1243.91 4.54731C1248.3 -1.51577 1257.34 -1.51577 1261.73 4.54731L1264.57 8.46748C1268.96 14.5306 1277.99 14.5306 1282.39 8.46749L1285.23 4.54731C1289.62 -1.51576 1298.65 -1.51577 1303.04 4.54731L1305.88 8.46748C1310.27 14.5306 1319.31 14.5306 1323.7 8.46748L1326.54 4.54731C1330.93 -1.51577 1339.96 -1.51577 1344.36 4.54731L1348.16 9.79545C1353.43 17.0684 1348.23 27.2481 1339.25 27.2481H1319.49H1310.1H1278.17H1268.78H1249.02C1240.04 27.2481 1234.84 17.0684 1240.11 9.79545L1243.91 4.54731Z" fill="#F7F7F7"/>
<path fill-rule="evenodd" clip-rule="evenodd" d="M1326.91 4.54731C1331.3 -1.51577 1340.34 -1.51577 1344.73 4.54731L1347.57 8.46748C1351.96 14.5306 1360.99 14.5306 1365.39 8.46749L1368.23 4.54731C1372.62 -1.51576 1381.65 -1.51577 1386.04 4.54731L1388.88 8.46748C1393.27 14.5306 1402.31 14.5306 1406.7 8.46748L1409.54 4.54731C1413.93 -1.51577 1422.96 -1.51577 1427.36 4.54731L1431.16 9.79545C1436.43 17.0684 1431.23 27.2481 1422.25 27.2481H1402.49H1393.1H1361.17H1351.78H1332.02C1323.04 27.2481 1317.84 17.0684 1323.11 9.79545L1326.91 4.54731Z" fill="#F7F7F7"/>
<path fill-rule="evenodd" clip-rule="evenodd" d="M1409.91 4.54731C1414.3 -1.51577 1423.34 -1.51577 1427.73 4.54731L1430.57 8.46748C1434.96 14.5306 1443.99 14.5306 1448.39 8.46749L1451.23 4.54731C1455.62 -1.51576 1464.65 -1.51577 1469.04 4.54731L1471.88 8.46748C1476.27 14.5306 1485.31 14.5306 1489.7 8.46748L1492.54 4.54731C1496.93 -1.51577 1505.96 -1.51577 1510.36 4.54731L1514.16 9.79545C1519.43 17.0684 1514.23 27.2481 1505.25 27.2481H1485.49H1476.1H1444.17H1434.78H1415.02C1406.04 27.2481 1400.84 17.0684 1406.11 9.79545L1409.91 4.54731Z" fill="#F7F7F7"/>
</svg>

