<svg fill="none" xmlns="http://www.w3.org/2000/svg" viewBox="0 0 40 40"><g clip-path="url(#clip0_993_3268)"><path d="M31.43 17.43c-2-1.44-4.46-2.22-6.87-2.24a18.03 18.03 0 0 0-3.17.02A7.47 7.47 0 0 0 18.5 5.1 7.47 7.47 0 0 0 8.39 8a7.47 7.47 0 0 0 2.9 10.11 5.5 5.5 0 0 0 1.86.7l.39 2.04-1.75-1.1a3.54 3.54 0 0 0-4.82.92 3.3 3.3 0 0 0 .8 4.65l5.22 4.2a10.14 10.14 0 0 0 1.99 3.37c.62.74 1.43 1.45 2.2 1.98l.34 1.76c.1.56.55.86 1.1.75l12.62-2.41c.46-.1.84-.64.75-1.1l-.46-2.42a12.06 12.06 0 0 0 1.25-8.03l-1.03-5.38c.02-.39-.1-.55-.3-.61zM9.36 12.6a5.47 5.47 0 0 1 4.53-6.44 5.47 5.47 0 0 1 6.45 4.53 5.32 5.32 0 0 1-1.24 4.57l-.9-4.64a3.21 3.21 0 0 0-3.71-2.36 3.09 3.09 0 0 0-2.59 3.57l.92 4.82a5.65 5.65 0 0 1-3.46-4.05zm21.63 11.06c.56 2.4.16 4.87-1.06 7.03-.15.22-.3.44-.24.72l.37 1.95-10.76 2.05-.25-1.3c-.05-.27-.3-.52-.51-.67a7.43 7.43 0 0 1-2.06-1.72 9.3 9.3 0 0 1-1.72-2.94 1.34 1.34 0 0 0-.3-.52L9 23.83a1.56 1.56 0 0 1-.67-1.02c-.07-.37.02-.87.25-1.2a1.72 1.72 0 0 1 2.22-.43l3.2 2.18.54 2.78 1.59-1.26-2.56-13.36c-.03-.67.42-1.33 1.18-1.38.65-.13 1.39.21 1.51.86l2.04 10.67 1.93.02-.82-4.27c.08-.11.17-.13.24-.24.65-.12 1.32-.15 1.99-.19l.9 4.74 1.54-.01-.92-4.82 1.16.06c.49 0 .99.1 1.48.2l.9 4.64h1.53l-.82-4.28c.9.22 1.76.63 2.53 1.16L31 23.67z" fill="#222"/></g><defs><clipPath id="clip0_993_3268"><path fill="#fff" transform="rotate(-10.83 34.33 2.67)" d="M0 0h34v34H0z"/></clipPath></defs></svg>
