<svg width="4" height="20" viewBox="0 0 4 20" fill="none" xmlns="http://www.w3.org/2000/svg">
<path d="M0 18.1867C0 17.6906 0.170704 17.2666 0.512111 16.9147C0.862745 16.5539 1.3564 16.3735 1.99308 16.3735C2.63898 16.3735 3.13264 16.5539 3.47405 16.9147C3.82468 17.2666 4 17.6906 4 18.1867C4 18.6829 3.82468 19.1114 3.47405 19.4723C3.13264 19.8241 2.63898 20 1.99308 20C1.3564 20 0.862745 19.8241 0.512111 19.4723C0.170704 19.1114 0 18.6829 0 18.1867ZM0.636678 13.9107L0.401384 0H3.59862L3.36332 13.9107H0.636678Z" fill="white"/>
</svg>
