<svg width="20" height="20" viewBox="0 0 20 20" fill="none" xmlns="http://www.w3.org/2000/svg">
<path d="M7.55065 1.60843C5.97565 1.6001 4.44232 3.11677 5.14232 5.0001H2.50065C2.05862 5.0001 1.6347 5.17569 1.32214 5.48825C1.00958 5.80082 0.833984 6.22474 0.833984 6.66677V8.33343C0.833984 8.55445 0.921782 8.76641 1.07806 8.92269C1.23434 9.07897 1.4463 9.16676 1.66732 9.16676H9.16732V6.66677H10.834V9.16676H18.334C18.555 9.16676 18.767 9.07897 18.9232 8.92269C19.0795 8.76641 19.1673 8.55445 19.1673 8.33343V6.66677C19.1673 6.22474 18.9917 5.80082 18.6792 5.48825C18.3666 5.17569 17.9427 5.0001 17.5006 5.0001H14.859C15.834 2.2751 12.1673 0.3501 10.4756 2.7001L10.0007 3.33343L9.52565 2.68343C9.00065 1.94177 8.27565 1.61677 7.55065 1.60843ZM7.50065 3.33343C8.24232 3.33343 8.61732 4.23343 8.09232 4.75843C7.56732 5.28343 6.66732 4.90843 6.66732 4.16677C6.66732 3.94575 6.75511 3.73379 6.9114 3.57751C7.06768 3.42123 7.27964 3.33343 7.50065 3.33343ZM12.5007 3.33343C13.2423 3.33343 13.6173 4.23343 13.0923 4.75843C12.5673 5.28343 11.6673 4.90843 11.6673 4.16677C11.6673 3.94575 11.7551 3.73379 11.9114 3.57751C12.0677 3.42123 12.2796 3.33343 12.5007 3.33343ZM1.66732 10.0001V16.6668C1.66732 17.1088 1.84291 17.5327 2.15547 17.8453C2.46803 18.1578 2.89196 18.3334 3.33398 18.3334H16.6673C17.1093 18.3334 17.5333 18.1578 17.8458 17.8453C18.1584 17.5327 18.334 17.1088 18.334 16.6668V10.0001H10.834V16.6668H9.16732V10.0001H1.66732Z" fill="#222222"/>
</svg>
