<svg width="22" height="22" viewBox="0 0 22 22" fill="none" xmlns="http://www.w3.org/2000/svg">
<path fill-rule="evenodd" clip-rule="evenodd" d="M3.30547 3.16017L3.5163 3.58367L1.54547 6.34284C1.41948 6.51942 1.36019 6.73497 1.37815 6.95115C1.39611 7.16733 1.49015 7.37013 1.64355 7.52351L3.01855 8.89851C3.15461 9.03444 3.32997 9.12413 3.51981 9.1549C3.70966 9.18566 3.90437 9.15593 4.07639 9.06992L5.22589 8.49609L5.86022 9.34126L3.96272 15.4151C3.91022 15.3761 3.85827 15.3364 3.80689 15.2959C3.66884 15.1889 3.53722 15.0738 3.41272 14.9513C3.24414 14.7802 3.01515 14.6821 2.775 14.6781C2.53486 14.6742 2.30275 14.7646 2.12859 14.93C1.95443 15.0954 1.85214 15.3225 1.84372 15.5625C1.8353 15.8026 1.92142 16.0363 2.08355 16.2135L2.66655 16.7314C3.03047 17.0202 3.56489 17.396 4.26889 17.7691C5.6833 18.5171 7.77605 19.2504 10.5416 19.2504C13.3072 19.2504 15.4009 18.5171 16.8144 17.7691C17.3791 17.4728 17.9154 17.1255 18.4167 16.7314C18.5579 16.6187 19.0171 16.1979 18.9997 16.2135C19.1548 16.0504 19.2444 15.8359 19.2515 15.611C19.2587 15.3861 19.1828 15.1664 19.0384 14.9937C18.894 14.8211 18.6911 14.7077 18.4685 14.675C18.2458 14.6423 18.0189 14.6927 17.831 14.8165L16.8868 10.0948C17.3662 10.543 17.8841 11.236 18.4305 12.3268C18.482 12.4383 18.5553 12.5383 18.6461 12.6208C18.737 12.7034 18.8435 12.7669 18.9594 12.8075C19.0752 12.8481 19.198 12.865 19.3206 12.8573C19.4431 12.8495 19.5628 12.8172 19.6726 12.7623C19.7824 12.7074 19.88 12.631 19.9598 12.5377C20.0395 12.4443 20.0996 12.3359 20.1366 12.2188C20.1737 12.1018 20.1868 11.9785 20.1752 11.8563C20.1637 11.7341 20.1277 11.6154 20.0695 11.5073C19.1015 9.57042 18.0656 8.46676 16.9097 7.88926C15.9408 7.40434 14.9783 7.34292 14.1625 7.33376H10.7781C10.6865 7.05622 10.5828 6.7828 10.4674 6.51426C10.0925 5.63976 9.46181 4.49942 8.43972 3.47734C7.37731 2.41492 6.2828 1.98959 5.42114 1.84567C5.07576 1.78727 4.7247 1.76973 4.37522 1.79342C4.27164 1.80076 3.96272 1.84567 3.90222 1.86126C3.76917 1.89466 3.64531 1.9575 3.53977 2.04514C3.43424 2.13279 3.34972 2.243 3.29245 2.36765C3.23518 2.49231 3.20662 2.62823 3.20887 2.76539C3.21113 2.90256 3.24414 3.03747 3.30547 3.16017ZM13.1321 17.1558L12.1971 14.6671H9.80097L8.81189 17.3034C9.34814 17.3758 9.9238 17.4171 10.5407 17.4171C11.5023 17.4171 12.3649 17.3163 13.1303 17.1558H13.1321Z" fill="#222222"/>
</svg>
