<svg width="17" height="13" viewBox="0 0 17 13" fill="none" xmlns="http://www.w3.org/2000/svg">
<path d="M13.1364 11.7812C12.829 11.7812 12.5341 11.6528 12.3168 11.4243C12.0994 11.1957 11.9773 10.8857 11.9773 10.5625C11.9773 10.2393 12.0994 9.92927 12.3168 9.70071C12.5341 9.47215 12.829 9.34375 13.1364 9.34375C13.4438 9.34375 13.7386 9.47215 13.956 9.70071C14.1733 9.92927 14.2955 10.2393 14.2955 10.5625C14.2955 10.8857 14.1733 11.1957 13.956 11.4243C13.7386 11.6528 13.4438 11.7812 13.1364 11.7812ZM14.2955 4.46875L15.81 6.5H12.3636V4.46875M3.86364 11.7812C3.55623 11.7812 3.26141 11.6528 3.04404 11.4243C2.82666 11.1957 2.70455 10.8857 2.70455 10.5625C2.70455 10.2393 2.82666 9.92927 3.04404 9.70071C3.26141 9.47215 3.55623 9.34375 3.86364 9.34375C4.17105 9.34375 4.46587 9.47215 4.68324 9.70071C4.90061 9.92927 5.02273 10.2393 5.02273 10.5625C5.02273 10.8857 4.90061 11.1957 4.68324 11.4243C4.46587 11.6528 4.17105 11.7812 3.86364 11.7812ZM14.6818 3.25H12.3636V0H1.54545C0.687727 0 0 0.723125 0 1.625V10.5625H1.54545C1.54545 11.209 1.78969 11.829 2.22443 12.2861C2.65918 12.7432 3.24882 13 3.86364 13C4.47846 13 5.0681 12.7432 5.50284 12.2861C5.93758 11.829 6.18182 11.209 6.18182 10.5625H10.8182C10.8182 11.209 11.0624 11.829 11.4972 12.2861C11.9319 12.7432 12.5215 13 13.1364 13C13.7512 13 14.3408 12.7432 14.7756 12.2861C15.2103 11.829 15.4545 11.209 15.4545 10.5625H17V6.5L14.6818 3.25Z" fill="#333333"/>
</svg>
