<svg width="893" height="398" viewBox="0 0 893 398" fill="none" xmlns="http://www.w3.org/2000/svg">
<mask id="mask0_3047_1094" style="mask-type:luminance" maskUnits="userSpaceOnUse" x="0" y="0" width="893" height="398">
<path d="M892.8 0H0V397.51H892.8V0Z" fill="white"/>
</mask>
<g mask="url(#mask0_3047_1094)">
<path d="M701.4 359.34H-12.75V347.34H701.4C779.29 347.34 842.66 283.97 842.66 206.08C842.66 128.19 779.29 64.8198 701.4 64.8198H636.01V52.8198H701.4C785.91 52.8198 854.66 121.57 854.66 206.08C854.66 290.59 785.91 359.34 701.4 359.34Z" fill="url(#paint0_linear_3047_1094)"/>
<path d="M610.66 22.55L610.86 42.29L615.12 46.79V63.99L620.25 67.92L674.52 69.27L680.64 64.97L681.82 46.6L685.47 42.3V22.11L682.46 18.25L616.1 18.99C613.96 19.01 610.79 20.49 610.66 22.55Z" fill="url(#paint1_linear_3047_1094)"/>
<path d="M704.46 69.3498L707.06 69.4098C707.93 69.4198 708.8 69.4498 709.66 69.5398L714.84 69.9298C716.56 70.0898 718.28 70.3598 719.99 70.5598C720.85 70.6798 721.71 70.7598 722.56 70.8998L725.11 71.3598L733.75 21.8698C732.22 21.6098 730.7 21.2998 729.17 21.0898L724.56 20.4998C723.02 20.3198 721.49 20.0898 719.95 19.9498L715.32 19.5898C713.78 19.4798 712.23 19.3498 710.69 19.2598L706.05 19.1398L701.41 19.0298H697.37C694.78 19.0298 692.7 21.0998 692.78 23.5998L693.44 43.2698L697.49 45.8098V62.0298C697.49 64.0298 698.33 65.8398 699.69 67.1398C700.03 67.4698 700.4 67.7598 700.8 68.0198C701 68.1498 701.21 68.2698 701.41 68.3798C701.59 68.4998 701.78 68.5998 701.97 68.6998C702.75 69.0998 703.58 69.3298 704.46 69.3498Z" fill="#F2F2F2"/>
<path d="M687.11 40.81V22.95C687.11 19.79 684.44 17.21 681.16 17.21H615.15C611.87 17.21 609.2 19.78 609.2 22.95V40.81C609.2 44.54 612.34 47.57 616.21 47.57H680.1C683.96 47.56 687.11 44.53 687.11 40.81ZM681.16 20.21C682.72 20.21 684 21.44 684 22.95V40.81C684 42.88 682.25 44.57 680.1 44.57H616.21C614.06 44.57 612.31 42.88 612.31 40.81V22.95C612.31 21.44 613.58 20.21 615.15 20.21H681.16Z" fill="url(#paint2_linear_3047_1094)"/>
<path d="M682.46 60.7201V44.5601H613.84V60.7201C613.84 66.0801 618.36 70.4401 623.92 70.4401H672.37C677.94 70.4401 682.46 66.0801 682.46 60.7201ZM679.35 47.5601V60.7201C679.35 64.4301 676.22 67.4401 672.38 67.4401H623.93C620.09 67.4401 616.96 64.4201 616.96 60.7201V47.5601H679.35Z" fill="url(#paint3_linear_3047_1094)"/>
<path d="M671.03 57.5002C671.03 54.9602 668.88 52.8901 666.24 52.8901C663.6 52.8901 661.45 54.9602 661.45 57.5002C661.45 60.0402 663.6 62.1101 666.24 62.1101C668.88 62.1201 671.03 60.0502 671.03 57.5002ZM667.92 57.5002C667.92 58.3902 667.17 59.1101 666.25 59.1101C665.33 59.1101 664.57 58.3902 664.57 57.5002C664.57 56.6102 665.32 55.8901 666.25 55.8901C667.17 55.8901 667.92 56.6102 667.92 57.5002Z" fill="#1F2F8C"/>
<path d="M729.37 47.03C728.06 46.81 726.77 46.54 725.45 46.36L721.51 45.86C720.19 45.7 718.88 45.51 717.57 45.38L713.61 45.08L709.65 44.78L705.68 44.68L701.71 44.58L697.72 44.57C695.57 44.57 693.82 42.88 693.82 40.81V22.95C693.82 21.44 695.09 20.21 696.66 20.21H700.79C701.43 20.2 702.29 20.23 703.06 20.25L705.42 20.31L710.13 20.43C711.7 20.47 713.27 20.64 714.84 20.74L719.55 21.1C721.12 21.22 722.68 21.47 724.24 21.65L728.93 22.25C730.49 22.45 732.04 22.78 733.59 23.04L734.11 20.08C732.53 19.81 730.96 19.49 729.37 19.28L724.61 18.67C723.02 18.49 721.44 18.23 719.84 18.11L715.06 17.74C713.47 17.64 711.87 17.47 710.28 17.42L705.49 17.29L703.1 17.23C702.32 17.21 701.44 17.18 700.81 17.19H696.68C693.4 17.19 690.73 19.76 690.73 22.93V40.79C690.73 44.52 693.87 47.55 697.74 47.55L701.73 47.56L705.63 47.66L709.53 47.76L713.42 48.05L717.31 48.34C718.6 48.47 719.89 48.66 721.18 48.82L725.05 49.31C726.34 49.48 727.61 49.75 728.89 49.97L729.37 47.03Z" fill="#1F2F8C"/>
<path d="M725.44 69.5597L722.9 69.0998C722.05 68.9498 721.19 68.8797 720.34 68.7597C718.63 68.5597 716.92 68.2997 715.2 68.1197C711.75 67.8797 708.32 67.5297 704.85 67.5297C704.03 67.5097 703.25 67.2998 702.53 66.9398C702.17 66.7598 701.83 66.5397 701.51 66.2897C701.17 66.0397 700.8 65.7698 700.5 65.4698C699.24 64.2498 698.46 62.5698 698.46 60.7198V47.5597C701.08 47.5297 703.61 47.6197 706.15 47.6797C707.42 47.7197 708.69 47.7197 709.96 47.7897L713.76 48.0797L717.56 48.3697L721.34 48.8498L725.12 49.3297C726.38 49.5097 727.62 49.7697 728.87 49.9797L729.39 47.0197C727.99 46.7897 726.6 46.4797 725.18 46.3097L720.95 45.7697C718.13 45.3497 715.29 45.1898 712.45 44.9698C709.62 44.6898 706.77 44.7097 703.92 44.6197C701.08 44.5097 698.21 44.5697 695.36 44.5597V60.7198C695.36 63.3998 696.49 65.8297 698.32 67.5897C699.23 68.4697 700.34 69.1797 701.51 69.6797C702.53 70.1997 703.63 70.5097 704.8 70.5397C708.19 70.5397 711.55 70.8897 714.93 71.1197C716.61 71.2897 718.28 71.5397 719.95 71.7397C720.79 71.8497 721.63 71.9298 722.46 72.0698L724.95 72.5197L725.44 69.5597Z" fill="#1F2F8C"/>
<path d="M715 58.15C715.24 55.62 713.41 53.4 710.91 53.21C710.29 53.17 709.69 53.24 709.14 53.44C708.59 53.66 708.09 53.99 707.67 54.39C706.82 55.21 706.29 56.35 706.25 57.62C706.21 58.89 706.66 60.06 707.4 60.91C707.77 61.34 708.22 61.69 708.72 61.93C709.22 62.19 709.77 62.37 710.35 62.42C712.67 62.61 714.76 60.68 715 58.15ZM712.16 57.94C712.09 58.83 711.36 59.5 710.53 59.43C709.7 59.37 709.05 58.59 709.1 57.7C709.14 56.81 709.87 56.14 710.73 56.21C711.58 56.27 712.23 57.05 712.16 57.94Z" fill="#1F2F8C"/>
<path d="M780.46 40.4203L772.13 58.3203C772.77 60.3003 773.35 62.3003 773.91 64.2703L766.07 79.5703C766.79 81.4403 767.53 83.1903 768.14 85.1003C781.42 92.9203 793.24 103.05 803.16 114.65C805.35 115 807.58 115.38 809.85 115.8C814.78 112.14 819.74 108.5 824.71 104.92C826.56 104.95 828.42 105.01 830.31 105.09L846.19 92.6303C846.5 90.9403 846.79 89.2403 847.07 87.5203C830.76 67.7903 810.34 51.5903 787.59 40.0403C785.37 38.9303 781.48 38.5803 780.46 40.4203Z" fill="#F2F2F2"/>
<path d="M745.6 76.6101C742.28 75.4001 738.86 74.5201 735.48 73.5401L730.32 72.3501L729.03 72.0501L727.73 71.8201L725.12 71.3601L733.76 21.8701C746.17 24.0301 758.36 27.4701 770.08 32.1001C772.88 33.1901 774.28 36.0001 773.19 38.2801L764.84 56.0901L760.12 56.9601L754.17 72.0501C753.44 73.9101 752.09 75.3201 750.55 76.1201C749.03 76.8801 747.26 77.1601 745.6 76.6101Z" fill="#F2F2F2"/>
<path d="M818.49 135.27C822.05 141.21 825.16 147.4 827.84 153.78L874.25 134.55C869.51 123.09 863.61 112.1 856.7 101.82C855 99.3499 851.9 98.6199 849.94 100.15L834.32 112.12C834.41 113.72 834.52 115.28 834.55 116.87L821.08 125.91C817.78 128.16 816.62 132.35 818.49 135.27Z" fill="#F2F2F2"/>
<path d="M832.5 105.49L846.66 94.6099C849.18 92.6999 849.32 88.68 846.92 85.69C830.58 65.99 810.24 49.6399 787.42 37.9599C785.72 37.0899 783.89 36.8699 782.33 37.2599C780.75 37.6799 779.45 38.67 778.78 40.1L771.22 56.2899C770.43 57.9799 770.44 59.8299 771.05 61.4599C771.64 63.1299 772.82 64.5899 774.49 65.4499C792.95 75.0499 809.48 88.33 822.85 104.27C823.48 104.97 824.19 105.55 824.96 105.99C825.73 106.42 826.58 106.69 827.45 106.81C829.19 107.03 831.02 106.62 832.5 105.49ZM844.61 87.59C845.75 88.98 845.67 90.91 844.5 91.84L830.55 102.99C829.74 103.64 828.73 103.87 827.77 103.75C826.81 103.62 825.89 103.13 825.17 102.33C811.54 86.0899 794.7 72.5499 775.89 62.7699C773.99 61.7999 773.19 59.49 774.09 57.63L781.96 41.59C782.62 40.23 784.46 39.7899 786.06 40.6099C808.5 52.1099 828.53 68.2 844.61 87.59Z" fill="#1F2F8C"/>
<path d="M814.14 114.35L826.66 104.14C812.31 86.4502 794.11 71.9402 773.79 61.7002L766.54 76.1402C765.34 78.5402 765.14 81.1702 765.7 83.4302C766.29 85.6602 767.57 87.6902 769.58 88.8402C781.27 95.6002 791.88 104.21 801.07 114.12C801.9 114.94 802.79 115.63 803.83 116.06C804.86 116.5 806.01 116.73 807.19 116.75C809.57 116.77 812.06 116.03 814.14 114.35ZM822.39 103.71L812.35 112.21C810.93 113.41 809.2 113.97 807.56 113.94C806.74 113.93 805.95 113.76 805.23 113.45C804.52 113.13 803.86 112.67 803.28 112.08C793.88 101.96 783.04 93.1602 771.09 86.2502C769.67 85.4302 768.75 84.0302 768.38 82.4202C767.99 80.8602 768.15 79.0502 769.02 77.4102L775.15 65.7702C793.13 75.2302 809.26 88.2002 822.39 103.71Z" fill="#1F2F8C"/>
<path d="M784.52 82.9102C785.96 80.8002 785.41 78.0002 783.3 76.6502C782.25 75.9802 781.03 75.7902 779.9 76.0902C778.76 76.4002 777.74 77.1502 777.1 78.2402C776.45 79.3302 776.29 80.5702 776.53 81.6702C776.76 82.7802 777.37 83.8102 778.36 84.4402C780.31 85.7002 783.08 85.0002 784.52 82.9102ZM782.12 81.3702C781.63 82.1202 780.67 82.3602 779.96 81.9102C779.26 81.4602 779.07 80.4702 779.53 79.7202C780 78.9602 780.96 78.7202 781.69 79.1902C782.41 79.6402 782.6 80.6202 782.12 81.3702Z" fill="#1F2F8C"/>
<path d="M809.72 104.45C811.58 102.72 811.69 99.8299 809.97 98.0199C808.18 96.2699 805.27 96.3899 803.53 98.2399C801.78 100.1 801.76 102.9 803.42 104.53C805.03 106.22 807.86 106.18 809.72 104.45ZM807.76 102.38C807.12 103 806.13 103.01 805.56 102.41C804.98 101.81 804.98 100.84 805.6 100.2C806.22 99.5699 807.25 99.5199 807.84 100.13C808.44 100.75 808.4 101.76 807.76 102.38Z" fill="#1F2F8C"/>
<path d="M850.66 144.32C846.61 134.53 841.58 125.14 835.69 116.33C834.51 114.56 834.84 112.2 836.54 110.99L851.14 100.7C852.37 99.8302 854.22 100.31 855.25 101.77C862.35 112.18 868.34 123.35 873.16 135L875.93 133.85C871.03 122.01 864.94 110.66 857.73 100.08C855.52 96.9502 851.63 95.9402 849.1 97.8302L834.7 108.4C831.7 110.64 831.08 114.91 833.2 117.99C838.99 126.64 843.92 135.85 847.9 145.46L850.66 144.32Z" fill="#1F2F8C"/>
<path d="M829.53 153.07C826.84 146.73 823.78 140.54 820.22 134.62C818.5 131.86 819.54 127.96 822.63 125.88L833.59 118.61C839.2 127.08 844 136.08 847.89 145.46L850.66 144.31C846.34 133.78 840.84 123.74 834.35 114.38L821.06 123.56C818.84 125.1 817.48 127.25 816.83 129.55C816.19 131.85 816.44 134.18 817.65 136.15C821.13 141.94 824.12 147.99 826.75 154.2L829.53 153.07Z" fill="#1F2F8C"/>
<path d="M833.54 138.17C834.67 137.59 835.47 136.62 835.84 135.51C836.2 134.4 836.18 133.13 835.53 132.06C834.28 129.89 831.49 129.19 829.31 130.49C827.13 131.8 826.29 134.51 827.46 136.52C828.07 137.52 828.97 138.24 830.07 138.54C831.16 138.85 832.41 138.75 833.54 138.17ZM832.24 135.63C831.46 136.05 830.51 135.79 830.08 135.07C829.66 134.35 829.95 133.4 830.73 132.96C831.5 132.52 832.48 132.77 832.91 133.51C833.34 134.25 833.04 135.21 832.24 135.63Z" fill="#1F2F8C"/>
<path d="M771 30.5001C759.09 25.7801 746.69 22.2801 734.08 20.0801L733.56 23.0401C745.97 25.2101 758.17 28.6501 769.89 33.3001C771.56 33.9601 772.45 35.6301 771.86 37.0201L764.98 53.5101C764.17 55.4201 761.91 56.3401 759.93 55.5501C750.06 51.7101 739.8 48.8501 729.37 47.0301L728.85 49.9901C739.09 51.7801 749.15 54.5801 758.84 58.3501C760.59 59.0501 762.47 58.9501 764.11 58.3101C765.73 57.7001 767.13 56.4801 767.88 54.7801L775.07 38.4301C775.71 36.9801 775.59 35.3601 774.87 33.8901C774.16 32.4201 772.77 31.2201 771 30.5001Z" fill="#1F2F8C"/>
<path d="M729.37 47.0303L728.85 49.9903C738.85 51.7303 748.68 54.4503 758.16 58.0803L753.45 70.3603C752.78 72.0903 751.54 73.4003 750.1 74.1403C748.65 74.8903 746.99 75.1603 745.44 74.6303L743 73.8003C742.18 73.5303 741.35 73.3203 740.52 73.0803C738.86 72.6303 737.22 72.1103 735.55 71.6903L730.52 70.5303C729.69 70.3203 728.84 70.1603 727.99 70.0203L725.45 69.5703L724.93 72.5303L727.42 72.9703C728.25 73.1003 729.08 73.2603 729.9 73.4703L734.82 74.6003C736.45 75.0103 738.06 75.5203 739.68 75.9603C740.49 76.2003 741.31 76.3903 742.11 76.6603L744.5 77.4803C745.6 77.8503 746.73 77.9503 747.86 77.8003C748.99 77.6603 750.07 77.3703 751.12 76.8203C753.2 75.7503 755.04 73.8603 756.05 71.3803L762.13 56.4103C751.58 52.1403 740.58 48.9803 729.37 47.0303Z" fill="#1F2F8C"/>
<path d="M747.43 64.8103C748.23 62.4003 746.97 59.7303 744.54 59.0903C742.13 58.4103 739.66 59.8503 739.03 62.3203C738.4 64.7903 739.71 67.3102 741.95 67.9502C744.2 68.5402 746.63 67.2303 747.43 64.8103ZM744.72 63.9403C744.46 64.7903 743.59 65.3003 742.79 65.0703C741.99 64.8403 741.53 63.9603 741.77 63.1003C742.01 62.2403 742.87 61.7403 743.7 61.9703C744.52 62.2003 744.98 63.0803 744.72 63.9403Z" fill="#1F2F8C"/>
<path d="M883.56 183.91L863.98 186.48C862.66 188.08 861.39 189.64 859.97 191.17L842.84 192.76C841.65 194.38 840.45 195.95 839.26 197.49C839.47 205.21 839.1 212.94 838.12 220.55C837.09 228.16 835.4 235.63 833.15 242.91L834.51 246.01C834.97 247.06 835.41 248.12 835.79 249.17C841.51 251.36 847.22 253.59 852.92 255.87C853.9 257.45 854.87 259.06 855.83 260.7L874.86 267.43C876.44 266.78 878.02 266.11 879.61 265.41C887.5 240.99 890.19 215.06 887.73 189.74C887.6 187.25 885.61 183.79 883.56 183.91Z" fill="#F2F2F2"/>
<path d="M834.37 173.88C832.67 167.04 830.59 160.28 827.84 153.77L874.25 134.54C879.07 146.18 882.7 158.32 885.07 170.69C885.6 173.65 883.97 176.34 881.49 176.63L861.96 179.13L858.75 175.6L842.82 178.67C840.85 179.05 838.97 178.66 837.46 177.79C835.91 176.94 834.76 175.58 834.37 173.88Z" fill="#F2F2F2"/>
<path d="M823.99 266.83C820.98 273.06 817.32 278.97 813.37 284.65L854.46 313.55C861.59 303.42 867.71 292.57 872.7 281.21C873.98 278.49 872.86 275.45 870.52 274.62L852.05 267.84C850.79 268.79 849.46 269.69 848.13 270.56L833.28 264.03C831.45 263.23 829.49 263.17 827.82 263.68C826.15 264.18 824.83 265.3 823.99 266.83Z" fill="#F2F2F2"/>
<path d="M856.7 262.75L873.48 268.87C876.44 269.97 879.87 267.91 881.1 264.27C885.05 252.08 887.75 239.47 889.13 226.74C890.52 214.01 890.61 201.2 889.43 188.45C889.32 186.55 888.4 184.9 887.23 183.79C886.04 182.68 884.52 182.11 882.96 182.32L865.25 184.62C863.4 184.86 861.83 185.87 860.77 187.25C860.24 187.94 859.84 188.73 859.61 189.58C859.36 190.43 859.22 191.35 859.29 192.29C861.09 213.02 858.85 234.11 852.55 253.95C851.35 257.5 853.21 261.44 856.7 262.75ZM878.24 263.35C877.67 265.06 876.04 266.04 874.61 265.55L857.71 259.75C855.75 259.07 854.72 256.87 855.4 254.86C861.82 234.65 864.1 213.16 862.27 192.04C862.18 190.97 862.55 189.97 863.14 189.2C863.73 188.43 864.61 187.89 865.63 187.77L883.39 185.81C884.88 185.64 886.33 186.95 886.44 188.74C888.77 213.78 886.05 239.33 878.24 263.35Z" fill="#1F2F8C"/>
<path d="M839.32 251.98L854.65 257.08C861.87 235.48 864.36 212.34 862.09 189.69L846.02 191.31C843.35 191.58 841.01 192.82 839.37 194.52C838.55 195.37 837.91 196.34 837.5 197.38C837.29 197.9 837.15 198.44 837.06 199C836.95 199.56 836.89 200.13 836.9 200.71L837.03 205.79C837.01 207.48 836.94 209.17 836.91 210.87C836.88 211.72 836.89 212.56 836.84 213.41L836.64 215.94C836.48 217.62 836.45 219.32 836.21 220.99C835.5 227.71 834.18 234.34 832.53 240.87C831.88 243.1 832.38 245.42 833.62 247.44C834.79 249.42 836.78 251.13 839.32 251.98ZM852.78 253.26L840.22 249.35C836.69 248.22 834.53 244.75 835.42 241.63C837.11 234.95 838.46 228.18 839.19 221.31C839.43 219.6 839.47 217.87 839.63 216.15L839.83 213.57C839.89 212.71 839.88 211.84 839.91 210.98C839.94 209.25 840.02 207.52 840.03 205.79L839.89 200.6C839.89 198.95 840.48 197.43 841.62 196.25C842.75 195.08 844.37 194.25 846.22 194.1L859.33 193.03C861 213.27 858.83 233.85 852.78 253.26Z" fill="#1F2F8C"/>
<path d="M849.88 210.14C852.42 210.22 854.56 208.25 854.59 205.74C854.52 203.23 852.4 201.27 849.86 201.36C847.32 201.45 845.29 203.43 845.36 205.76C845.33 208.1 847.32 210.06 849.88 210.14ZM849.95 207.29C849.05 207.28 848.37 206.59 848.36 205.76C848.34 204.92 849.04 204.23 849.93 204.22C850.82 204.21 851.56 204.89 851.59 205.75C851.6 206.61 850.83 207.3 849.95 207.29Z" fill="#1F2F8C"/>
<path d="M845.36 242.97C847.82 243.61 850.28 242.15 850.84 239.71C851.11 238.49 850.89 237.29 850.22 236.33C849.54 235.37 848.5 234.66 847.25 234.42C846 234.18 844.78 234.44 843.83 235.04C842.87 235.64 842.1 236.56 841.84 237.7C841.32 239.96 842.9 242.33 845.36 242.97ZM846 240.2C845.13 239.99 844.58 239.17 844.77 238.35C844.96 237.54 845.82 237.03 846.69 237.21C847.56 237.39 848.11 238.22 847.92 239.06C847.73 239.89 846.87 240.4 846 240.2Z" fill="#1F2F8C"/>
<path d="M833.58 298.86C839.68 290.19 844.92 280.92 849.2 271.23C849.64 270.25 850.44 269.55 851.33 269.16C852.22 268.77 853.25 268.71 854.2 269.11L870.71 275.93C872.1 276.5 872.73 278.34 871.97 279.97C866.95 291.54 860.74 302.58 853.49 312.88L855.94 314.61C863.3 304.14 869.61 292.92 874.71 281.17C875.53 279.44 875.52 277.56 875.03 276.02C874.52 274.47 873.47 273.25 871.99 272.67L855.35 266.17C853.61 265.49 851.75 265.62 850.16 266.32C849.36 266.67 848.63 267.18 848.02 267.81C847.39 268.43 846.83 269.17 846.44 270.03C842.24 279.54 837.1 288.64 831.11 297.15L833.58 298.86Z" fill="#1F2F8C"/>
<path d="M814.87 285.7C818.81 280.04 822.46 274.16 825.47 267.95C825.84 267.22 826.39 266.62 826.99 266.11C827.59 265.6 828.3 265.23 829.08 264.98C830.63 264.5 832.45 264.55 834.15 265.31L846.16 270.68C842.02 279.95 836.97 288.82 831.13 297.13L833.58 298.86C840.13 289.55 845.71 279.56 850.17 269.09L835.3 262.78C832.83 261.74 830.18 261.69 827.93 262.39C825.65 263.08 823.9 264.57 822.79 266.61C819.84 272.68 816.28 278.44 812.42 283.97L814.87 285.7Z" fill="#1F2F8C"/>
<path d="M829.63 281.11C831.82 282.41 834.61 281.7 835.86 279.53C837.04 277.32 836.09 274.56 833.83 273.42C831.55 272.27 828.87 273.04 827.77 275.09C826.6 277.12 827.44 279.82 829.63 281.11ZM831.05 278.65C830.27 278.21 829.98 277.27 830.4 276.55C830.82 275.83 831.74 275.55 832.54 275.97C833.32 276.38 833.67 277.36 833.24 278.1C832.8 278.83 831.82 279.08 831.05 278.65Z" fill="#1F2F8C"/>
<path d="M886.91 170.62C884.52 158.04 880.84 145.69 875.94 133.85L873.17 135C877.99 146.65 881.61 158.8 883.96 171.18C884.28 172.95 883.32 174.59 881.84 174.85L864.24 177.88C862.2 178.22 860.23 176.8 859.86 174.7C857.81 164.31 854.73 154.12 850.68 144.33L847.91 145.48C851.89 155.09 854.91 165.08 856.92 175.28C857.58 178.97 861.12 181.53 864.8 181L882.46 178.31C885.58 177.85 887.58 174.4 886.91 170.62Z" fill="#1F2F8C"/>
<path d="M850.66 144.32L847.89 145.47C851.78 154.85 854.76 164.6 856.77 174.56L843.87 177.16C840.27 177.86 836.67 175.86 835.96 172.69C834.24 166.02 832.19 159.43 829.52 153.08L826.75 154.23C829.37 160.44 831.37 166.89 833.05 173.41C833.55 175.67 835.13 177.47 837.16 178.65C839.15 179.83 841.72 180.38 844.36 179.9L860.26 177.01C858.23 165.81 855.01 154.84 850.66 144.32Z" fill="#1F2F8C"/>
<path d="M845.34 169.09C847.82 168.47 849.26 166.01 848.58 163.6C848.24 162.4 847.44 161.46 846.42 160.93C845.36 160.41 844.1 160.29 842.89 160.68C841.68 161.07 840.74 161.88 840.19 162.86C839.6 163.86 839.39 165.02 839.71 166.15C840.34 168.39 842.89 169.71 845.34 169.09ZM844.57 166.35C843.71 166.59 842.83 166.13 842.6 165.32C842.37 164.52 842.88 163.65 843.73 163.4C844.58 163.15 845.47 163.6 845.7 164.43C845.93 165.26 845.42 166.12 844.57 166.35Z" fill="#1F2F8C"/>
<path d="M817.91 347.9L805.21 332.78C803.13 332.51 801.09 332.21 799.07 331.89L788.51 318.31C786.53 318.21 784.59 318.09 782.61 317.84C780.99 318.89 779.43 320.02 777.78 321.01L772.84 323.98L767.76 326.7C766.07 327.6 764.3 328.36 762.58 329.21C755.62 332.41 748.42 335.02 741.07 337.04C739.83 338.88 738.54 340.74 737.2 342.61C738.42 348.63 739.6 354.66 740.72 360.68C739.91 362.34 739.06 364 738.19 365.68L742.71 385.36C744.11 386.36 745.53 387.35 746.97 388.33C759.38 385.11 771.45 380.63 782.9 374.95C794.35 369.26 805.2 362.4 815.23 354.54C817.17 352.98 819.11 349.57 817.91 347.9Z" fill="#F2F2F2"/>
<path d="M799.89 300.99L801.72 299.07L802.64 298.11L803.51 297.11L806.99 293.1L810.26 288.93L811.08 287.89L811.84 286.81L813.37 284.65L854.46 313.55C847.22 323.84 838.95 333.4 829.81 342.04C828.73 343.07 827.4 343.62 826.15 343.65C824.87 343.66 823.69 343.18 822.89 342.22L810.29 327.12C810.75 325.61 811.12 324.02 811.51 322.49L800.36 310.71C798.99 309.26 798.28 307.44 798.21 305.7C798.17 304.83 798.31 303.98 798.59 303.2C798.86 302.37 799.28 301.63 799.89 300.99Z" fill="#F2F2F2"/>
<path d="M715.93 342.13C714.21 342.31 712.47 342.4 710.75 342.55C709.89 342.61 709.02 342.7 708.16 342.74L705.56 342.8L702.96 342.87L701.66 342.91C701.24 342.92 700.66 342.91 700.17 342.92H694.01V393.16H698.04H700.06C700.74 393.16 701.36 393.17 702.18 393.14C705.27 393.06 708.36 393.01 711.45 392.88L720.71 392.16L729.93 390.98C732.89 390.46 734.87 388 734.32 385.56L730.14 366.32L725.75 364.52L723.31 348.48C722.67 344.54 719.37 341.68 715.93 342.13Z" fill="#F2F2F2"/>
<path d="M736.91 367.49L740.73 384.94C741.39 388.03 744.97 389.86 748.71 388.97C773.55 382.56 797 370.97 817.2 355.25C818.7 354.07 819.66 352.5 819.98 350.92C820.3 349.35 819.93 347.72 818.92 346.52L807.45 332.83C806.24 331.39 804.59 330.66 802.82 330.47C801.06 330.3 799.24 330.76 797.76 331.92C781.26 344.6 762.24 353.98 742.12 359.3C740.31 359.84 738.81 360.87 737.87 362.37C736.92 363.84 736.51 365.67 736.91 367.49ZM747.96 386.07C746.21 386.49 744.5 385.62 744.16 384.15L740 366.78C739.52 364.74 740.84 362.79 742.89 362.2C763.39 356.78 782.77 347.22 799.58 334.3C801.25 332.98 803.68 333.22 804.99 334.83L816.2 348.74C817.15 349.91 816.78 351.77 815.36 352.88C795.48 368.36 772.4 379.77 747.96 386.07Z" fill="#1F2F8C"/>
<path d="M736.7 347.11L740.61 362.79C762.74 357.36 783.57 346.95 801.43 332.86L791.41 320.18C789.75 318.08 787.45 316.79 785.17 316.35C784.04 316.15 782.87 316.12 781.74 316.3C780.62 316.49 779.56 316.91 778.62 317.58C777.27 318.6 775.82 319.46 774.4 320.38C772.98 321.29 771.58 322.23 770.09 323.04C768.62 323.87 767.17 324.74 765.7 325.55L761.2 327.85C755.13 330.77 748.89 333.37 742.45 335.39C740.24 336.09 738.51 337.65 737.48 339.8C736.45 341.95 736.05 344.5 736.7 347.11ZM742.82 359.1L739.39 346.4C738.45 342.8 740.24 339.21 743.35 338.25C749.92 336.18 756.3 333.53 762.51 330.54L767.11 328.18C768.62 327.35 770.1 326.46 771.6 325.61C773.12 324.79 774.55 323.82 776 322.89C777.45 321.95 778.93 321.07 780.31 320.03C781.65 319.08 783.3 318.83 784.92 319.18C786.55 319.54 788.07 320.41 789.21 321.9L797.17 332.38C781.01 344.68 762.44 353.82 742.82 359.1Z" fill="#1F2F8C"/>
<path d="M777.67 333.6C778.32 334.68 779.36 335.45 780.48 335.73C781.6 336 782.82 335.83 783.87 335.16C785.98 333.82 786.52 331 785.05 328.88C783.62 326.81 780.85 326.14 778.89 327.39C777.91 328.02 777.29 329.03 777.07 330.17C776.86 331.29 777.01 332.5 777.67 333.6ZM780.09 332.1C779.62 331.34 779.81 330.36 780.51 329.91C781.21 329.46 782.18 329.7 782.67 330.44C783.16 331.18 782.97 332.16 782.25 332.63C781.53 333.09 780.56 332.85 780.09 332.1Z" fill="#1F2F8C"/>
<path d="M747.53 347.33C748.31 349.75 750.87 351.07 753.24 350.27C755.6 349.43 756.7 346.7 755.77 344.36C754.82 341.98 752.31 340.81 750.12 341.59C747.91 342.32 746.75 344.9 747.53 347.33ZM750.22 346.41C749.93 345.57 750.34 344.67 751.13 344.4C751.93 344.15 752.81 344.56 753.12 345.4C753.43 346.23 753.04 347.18 752.23 347.44C751.41 347.72 750.51 347.26 750.22 346.41Z" fill="#1F2F8C"/>
<path d="M694 367.6L701.98 367.59L709.93 367.38L717.86 366.78L725.75 365.78C727.85 365.43 729.85 366.77 730.22 368.81L733.31 386.4C733.58 387.88 732.35 389.35 730.58 389.66C727.47 390.15 724.33 390.49 721.21 390.9C718.08 391.22 714.94 391.41 711.8 391.66C708.66 391.83 705.52 391.85 702.37 391.94L701.22 391.96H700.19H698.13H694V394.96H698.13H700.19H701.22L702.39 394.94C705.58 394.85 708.78 394.82 711.97 394.65C715.16 394.4 718.35 394.21 721.53 393.88C724.7 393.47 727.89 393.12 731.05 392.62C734.83 391.96 737.4 388.87 736.77 385.77L733.34 368.24C732.59 364.58 728.99 362.17 725.3 362.8L717.56 363.78L709.78 364.37L701.98 364.58L694.01 364.59V367.6H694Z" fill="#1F2F8C"/>
<path d="M694 344.72H700.06H701.55L702.85 344.68L705.44 344.61C707.17 344.57 708.9 344.55 710.62 344.38L715.79 343.98C719.02 343.56 722.11 346.21 722.67 349.88L724.58 362.9C722.06 363.21 719.54 363.57 717.02 363.83L709.42 364.4L701.8 364.59L694.01 364.6V367.6C699.74 367.62 705.43 367.59 711.11 367.28L715.37 366.96C716.79 366.86 718.21 366.76 719.62 366.55L723.85 366.01L725.97 365.74L728.07 365.37L725.42 349.43C724.97 346.77 723.6 344.61 721.81 343.06C720 341.51 717.78 340.69 715.48 340.99L710.43 341.38C708.75 341.55 707.05 341.57 705.36 341.61L702.82 341.68L701.55 341.72H700.06H694V344.72Z" fill="#1F2F8C"/>
<path d="M706.89 354.52C706.97 357.05 709.08 359.14 711.57 358.9C714.07 358.71 715.9 356.5 715.64 353.96C715.39 351.43 713.29 349.51 710.96 349.69C708.65 349.92 706.81 351.96 706.89 354.52ZM709.74 354.42C709.69 353.53 710.33 352.75 711.16 352.69C711.99 352.63 712.73 353.3 712.8 354.18C712.87 355.07 712.23 355.84 711.38 355.91C710.52 355.97 709.79 355.31 709.74 354.42Z" fill="#1F2F8C"/>
<path d="M830.87 343.54C840.17 334.77 848.59 325.06 855.95 314.59L853.5 312.86C846.26 323.16 837.97 332.71 828.81 341.35C827.51 342.59 825.63 342.68 824.61 341.56L812.59 328.35C811.2 326.81 811.33 324.37 812.87 322.9C820.53 315.59 827.48 307.52 833.57 298.86L831.12 297.13C825.14 305.63 818.32 313.55 810.8 320.73C809.42 322.02 808.75 323.8 808.59 325.51C808.46 327.24 808.97 329.03 810.2 330.43L821.97 343.87C824.03 346.25 828.13 346.23 830.87 343.54Z" fill="#1F2F8C"/>
<path d="M833.58 298.86L831.13 297.13C825.29 305.44 818.65 313.18 811.34 320.23L802.21 310.76C799.65 308.07 799.54 304.09 801.75 301.69C804.19 299.24 806.38 296.57 808.63 293.96L811.83 289.89C812.38 289.22 812.88 288.52 813.37 287.81L814.87 285.7L812.42 283.97L810.95 286.03C810.47 286.72 809.98 287.41 809.44 288.06L806.31 292.04C804.1 294.59 801.96 297.21 799.57 299.6C798.77 300.44 798.2 301.44 797.85 302.52C797.46 303.57 797.29 304.71 797.34 305.88C797.43 308.22 798.37 310.7 800.19 312.66L811.17 324.51C819.51 316.78 827.03 308.16 833.58 298.86Z" fill="#1F2F8C"/>
<path d="M809.79 307.65C811.62 309.39 814.6 309.39 816.2 307.47C817.84 305.57 817.58 302.72 815.61 301.1C813.65 299.48 810.8 299.59 809.28 301.36C807.8 303.15 807.93 305.88 809.79 307.65ZM811.74 305.57C811.08 304.97 810.99 303.97 811.53 303.34C812.08 302.71 813.07 302.67 813.74 303.25C814.41 303.83 814.51 304.83 813.95 305.48C813.4 306.12 812.4 306.17 811.74 305.57Z" fill="#1F2F8C"/>
<path d="M650.01 389.62L649.81 369.88L645.55 365.38V348.18L640.42 344.25L586.15 342.9L580.03 347.2L578.85 365.57L575.2 369.87V390.06L578.21 393.92L644.57 393.18C646.71 393.16 649.88 391.67 650.01 389.62Z" fill="#F2F2F2"/>
<path d="M668.87 342.9H694.01V393.14H661.25C658.66 393.14 656.58 391.07 656.66 388.57L657.32 368.9L661.37 366.36V350.13C661.36 346.14 664.72 342.9 668.87 342.9Z" fill="#F2F2F2"/>
<path d="M555.66 342.9H531.03V393.14H563.29C565.88 393.14 567.96 391.07 567.88 388.57L567.22 368.9L563.17 366.36V350.13C563.16 346.14 559.8 342.9 555.66 342.9Z" fill="#F2F2F2"/>
<path d="M573.57 371.36V389.22C573.57 392.38 576.24 394.96 579.52 394.96H645.53C648.81 394.96 651.48 392.39 651.48 389.22V371.36C651.48 367.63 648.34 364.6 644.47 364.6H580.57C576.71 364.6 573.57 367.63 573.57 371.36ZM579.51 391.96C577.95 391.96 576.67 390.73 576.67 389.22V371.36C576.67 369.29 578.42 367.6 580.57 367.6H644.46C646.61 367.6 648.36 369.29 648.36 371.36V389.22C648.36 390.73 647.09 391.96 645.52 391.96H579.51Z" fill="#1F2F8C"/>
<path d="M578.21 351.45V367.61H646.83V351.45C646.83 346.09 642.31 341.73 636.75 341.73H588.3C582.73 341.72 578.21 346.09 578.21 351.45ZM581.32 364.6V351.44C581.32 347.73 584.45 344.719 588.29 344.719H636.74C640.58 344.719 643.71 347.74 643.71 351.44V364.6H581.32Z" fill="#1F2F8C"/>
<path d="M625.91 354.659C625.91 357.199 628.06 359.269 630.7 359.269C633.34 359.269 635.49 357.199 635.49 354.659C635.49 352.119 633.34 350.049 630.7 350.049C628.06 350.049 625.91 352.119 625.91 354.659ZM629.02 354.659C629.02 353.769 629.77 353.049 630.69 353.049C631.61 353.049 632.37 353.769 632.37 354.659C632.37 355.549 631.62 356.269 630.69 356.269C629.77 356.279 629.02 355.549 629.02 354.659Z" fill="#1F2F8C"/>
<path d="M589.64 354.659C589.64 357.199 591.79 359.269 594.43 359.269C597.07 359.269 599.22 357.199 599.22 354.659C599.22 352.119 597.07 350.049 594.43 350.049C591.79 350.049 589.64 352.119 589.64 354.659ZM592.75 354.659C592.75 353.769 593.5 353.049 594.42 353.049C595.34 353.049 596.1 353.769 596.1 354.659C596.1 355.549 595.35 356.269 594.42 356.269C593.5 356.279 592.75 355.549 592.75 354.659Z" fill="#1F2F8C"/>
<path d="M531.03 367.6H562.97C565.12 367.6 566.87 369.29 566.87 371.36V389.22C566.87 390.73 565.6 391.96 564.03 391.96H531.03V394.96H564.03C567.31 394.96 569.98 392.39 569.98 389.22V371.36C569.98 367.63 566.84 364.6 562.97 364.6H531.03V367.6Z" fill="#1F2F8C"/>
<path d="M531.03 344.72H555.25C559.09 344.72 562.22 347.74 562.22 351.44V364.6H531.03V367.6H565.34V351.44C565.34 346.08 560.82 341.72 555.26 341.72H531.04V344.72H531.03Z" fill="#1F2F8C"/>
<path d="M544.41 354.66C544.41 357.2 546.56 359.27 549.2 359.27C551.84 359.27 553.99 357.2 553.99 354.66C553.99 352.12 551.84 350.05 549.2 350.05C546.56 350.05 544.41 352.12 544.41 354.66ZM547.52 354.66C547.52 353.77 548.27 353.05 549.19 353.05C550.11 353.05 550.87 353.77 550.87 354.66C550.87 355.55 550.12 356.27 549.19 356.27C548.27 356.28 547.52 355.55 547.52 354.66Z" fill="#1F2F8C"/>
<path d="M661.01 394.96H694V391.96H661.01C659.45 391.96 658.17 390.73 658.17 389.22V371.36C658.17 369.29 659.92 367.6 662.07 367.6H694V364.6H662.07C658.21 364.6 655.06 367.63 655.06 371.36V389.22C655.06 392.38 657.73 394.96 661.01 394.96Z" fill="#1F2F8C"/>
<path d="M694 367.6V364.6H662.82V351.44C662.82 347.73 665.95 344.72 669.79 344.72H694V341.72H669.79C664.23 341.72 659.71 346.08 659.71 351.44V367.6H694Z" fill="#1F2F8C"/>
<path d="M671.14 354.66C671.14 357.2 673.29 359.27 675.93 359.27C678.57 359.27 680.72 357.2 680.72 354.66C680.72 352.12 678.57 350.05 675.93 350.05C673.29 350.05 671.14 352.12 671.14 354.66ZM674.25 354.66C674.25 353.77 675 353.05 675.92 353.05C676.84 353.05 677.6 353.77 677.6 354.66C677.6 355.55 676.85 356.27 675.92 356.27C675 356.28 674.25 355.55 674.25 354.66Z" fill="#1F2F8C"/>
<path d="M487.04 389.62L486.84 369.88L482.58 365.38V348.18L477.45 344.25L423.18 342.9L417.06 347.2L415.88 365.57L412.23 369.87V390.06L415.24 393.92L481.6 393.18C483.73 393.16 486.91 391.67 487.04 389.62Z" fill="#F2F2F2"/>
<path d="M505.89 342.9H531.03V393.14H498.27C495.68 393.14 493.6 391.07 493.68 388.57L494.34 368.9L498.39 366.36V350.13C498.39 346.14 501.75 342.9 505.89 342.9Z" fill="#F2F2F2"/>
<path d="M392.68 342.9H368.05V393.14H400.31C402.9 393.14 404.98 391.07 404.9 388.57L404.24 368.9L400.19 366.36V350.13C400.18 346.14 396.83 342.9 392.68 342.9Z" fill="#F2F2F2"/>
<path d="M410.59 371.36V389.22C410.59 392.38 413.26 394.96 416.54 394.96H482.55C485.83 394.96 488.5 392.39 488.5 389.22V371.36C488.5 367.63 485.36 364.6 481.49 364.6H417.6C413.73 364.6 410.59 367.63 410.59 371.36ZM416.54 391.96C414.98 391.96 413.7 390.73 413.7 389.22V371.36C413.7 369.29 415.45 367.6 417.6 367.6H481.49C483.64 367.6 485.39 369.29 485.39 371.36V389.22C485.39 390.73 484.12 391.96 482.55 391.96H416.54Z" fill="#1F2F8C"/>
<path d="M415.23 351.45V367.61H483.85V351.45C483.85 346.09 479.33 341.73 473.77 341.73H425.32C419.76 341.72 415.23 346.09 415.23 351.45ZM418.34 364.6V351.44C418.34 347.73 421.47 344.719 425.31 344.719H473.76C477.6 344.719 480.73 347.74 480.73 351.44V364.6H418.34Z" fill="#1F2F8C"/>
<path d="M462.94 354.659C462.94 357.199 465.09 359.269 467.73 359.269C470.37 359.269 472.52 357.199 472.52 354.659C472.52 352.119 470.37 350.049 467.73 350.049C465.08 350.049 462.94 352.119 462.94 354.659ZM466.05 354.659C466.05 353.769 466.8 353.049 467.72 353.049C468.64 353.049 469.4 353.769 469.4 354.659C469.4 355.549 468.65 356.269 467.72 356.269C466.8 356.279 466.05 355.549 466.05 354.659Z" fill="#1F2F8C"/>
<path d="M426.67 354.659C426.67 357.199 428.82 359.269 431.46 359.269C434.1 359.269 436.25 357.199 436.25 354.659C436.25 352.119 434.1 350.049 431.46 350.049C428.81 350.049 426.67 352.119 426.67 354.659ZM429.78 354.659C429.78 353.769 430.53 353.049 431.45 353.049C432.37 353.049 433.13 353.769 433.13 354.659C433.13 355.549 432.38 356.269 431.45 356.269C430.53 356.279 429.78 355.549 429.78 354.659Z" fill="#1F2F8C"/>
<path d="M368.05 367.6H399.99C402.14 367.6 403.89 369.29 403.89 371.36V389.22C403.89 390.73 402.62 391.96 401.05 391.96H368.05V394.96H401.05C404.33 394.96 407 392.39 407 389.22V371.36C407 367.63 403.86 364.6 399.99 364.6H368.05V367.6Z" fill="#1F2F8C"/>
<path d="M368.05 344.72H392.27C396.11 344.72 399.24 347.74 399.24 351.44V364.6H368.05V367.6H402.36V351.44C402.36 346.08 397.84 341.72 392.28 341.72H368.06V344.72H368.05Z" fill="#1F2F8C"/>
<path d="M381.44 354.66C381.44 357.2 383.59 359.27 386.23 359.27C388.87 359.27 391.02 357.2 391.02 354.66C391.02 352.12 388.87 350.05 386.23 350.05C383.58 350.05 381.44 352.12 381.44 354.66ZM384.55 354.66C384.55 353.77 385.3 353.05 386.22 353.05C387.14 353.05 387.9 353.77 387.9 354.66C387.9 355.55 387.15 356.27 386.22 356.27C385.3 356.28 384.55 355.55 384.55 354.66Z" fill="#1F2F8C"/>
<path d="M498.04 394.96H531.03V391.96H498.04C496.48 391.96 495.2 390.73 495.2 389.22V371.36C495.2 369.29 496.95 367.6 499.1 367.6H531.03V364.6H499.1C495.24 364.6 492.09 367.63 492.09 371.36V389.22C492.09 392.38 494.76 394.96 498.04 394.96Z" fill="#1F2F8C"/>
<path d="M531.03 367.6V364.6H499.85V351.44C499.85 347.73 502.98 344.72 506.82 344.72H531.03V341.72H506.82C501.26 341.72 496.74 346.08 496.74 351.44V367.6H531.03Z" fill="#1F2F8C"/>
<path d="M508.17 354.66C508.17 357.2 510.32 359.27 512.96 359.27C515.6 359.27 517.75 357.2 517.75 354.66C517.75 352.12 515.6 350.05 512.96 350.05C510.31 350.05 508.17 352.12 508.17 354.66ZM511.28 354.66C511.28 353.77 512.03 353.05 512.95 353.05C513.87 353.05 514.63 353.77 514.63 354.66C514.63 355.55 513.88 356.27 512.95 356.27C512.03 356.28 511.28 355.55 511.28 354.66Z" fill="#1F2F8C"/>
<path d="M324.06 389.62L323.86 369.88L319.6 365.38V348.18L314.47 344.25L260.2 342.9L254.08 347.2L252.9 365.57L249.25 369.87V390.06L252.26 393.92L318.62 393.18C320.76 393.16 323.93 391.67 324.06 389.62Z" fill="#F2F2F2"/>
<path d="M342.92 342.9H368.06V393.14H335.3C332.71 393.14 330.63 391.07 330.71 388.57L331.37 368.9L335.42 366.36V350.13C335.41 346.14 338.77 342.9 342.92 342.9Z" fill="#F2F2F2"/>
<path d="M229.71 342.9H205.08V393.14H237.34C239.93 393.14 242.01 391.07 241.93 388.57L241.27 368.9L237.22 366.36V350.13C237.21 346.14 233.85 342.9 229.71 342.9Z" fill="#F2F2F2"/>
<path d="M247.62 371.36V389.22C247.62 392.38 250.29 394.96 253.57 394.96H319.58C322.86 394.96 325.53 392.39 325.53 389.22V371.36C325.53 367.63 322.39 364.6 318.52 364.6H254.63C250.76 364.6 247.62 367.63 247.62 371.36ZM253.57 391.96C252.01 391.96 250.73 390.73 250.73 389.22V371.36C250.73 369.29 252.48 367.6 254.63 367.6H318.52C320.67 367.6 322.42 369.29 322.42 371.36V389.22C322.42 390.73 321.15 391.96 319.58 391.96H253.57Z" fill="#1F2F8C"/>
<path d="M252.26 351.45V367.61H320.88V351.45C320.88 346.09 316.36 341.73 310.8 341.73H262.35C256.78 341.72 252.26 346.09 252.26 351.45ZM255.37 364.6V351.44C255.37 347.73 258.5 344.719 262.34 344.719H310.79C314.63 344.719 317.76 347.74 317.76 351.44V364.6H255.37Z" fill="#1F2F8C"/>
<path d="M299.96 354.659C299.96 357.199 302.11 359.269 304.75 359.269C307.39 359.269 309.54 357.199 309.54 354.659C309.54 352.119 307.39 350.049 304.75 350.049C302.11 350.049 299.96 352.119 299.96 354.659ZM303.07 354.659C303.07 353.769 303.82 353.049 304.74 353.049C305.66 353.049 306.42 353.769 306.42 354.659C306.42 355.549 305.67 356.269 304.74 356.269C303.82 356.279 303.07 355.549 303.07 354.659Z" fill="#1F2F8C"/>
<path d="M263.69 354.659C263.69 357.199 265.84 359.269 268.48 359.269C271.12 359.269 273.27 357.199 273.27 354.659C273.27 352.119 271.12 350.049 268.48 350.049C265.84 350.049 263.69 352.119 263.69 354.659ZM266.8 354.659C266.8 353.769 267.55 353.049 268.47 353.049C269.39 353.049 270.15 353.769 270.15 354.659C270.15 355.549 269.4 356.269 268.47 356.269C267.56 356.279 266.8 355.549 266.8 354.659Z" fill="#1F2F8C"/>
<path d="M205.08 367.6H237.02C239.17 367.6 240.92 369.29 240.92 371.36V389.22C240.92 390.73 239.65 391.96 238.08 391.96H205.08V394.96H238.08C241.36 394.96 244.03 392.39 244.03 389.22V371.36C244.03 367.63 240.89 364.6 237.02 364.6H205.08V367.6Z" fill="#1F2F8C"/>
<path d="M205.08 344.72H229.3C233.14 344.72 236.27 347.74 236.27 351.44V364.6H205.08V367.6H239.39V351.44C239.39 346.08 234.87 341.72 229.31 341.72H205.09V344.72H205.08Z" fill="#1F2F8C"/>
<path d="M218.46 354.66C218.46 357.2 220.61 359.27 223.25 359.27C225.89 359.27 228.04 357.2 228.04 354.66C228.04 352.12 225.89 350.05 223.25 350.05C220.61 350.05 218.46 352.12 218.46 354.66ZM221.57 354.66C221.57 353.77 222.32 353.05 223.24 353.05C224.16 353.05 224.92 353.77 224.92 354.66C224.92 355.55 224.17 356.27 223.24 356.27C222.33 356.28 221.57 355.55 221.57 354.66Z" fill="#1F2F8C"/>
<path d="M335.06 394.96H368.05V391.96H335.06C333.5 391.96 332.22 390.73 332.22 389.22V371.36C332.22 369.29 333.97 367.6 336.12 367.6H368.05V364.6H336.12C332.26 364.6 329.11 367.63 329.11 371.36V389.22C329.11 392.38 331.78 394.96 335.06 394.96Z" fill="#1F2F8C"/>
<path d="M368.05 367.6V364.6H336.87V351.44C336.87 347.73 340 344.72 343.84 344.72H368.05V341.72H343.84C338.28 341.72 333.76 346.08 333.76 351.44V367.6H368.05Z" fill="#1F2F8C"/>
<path d="M345.19 354.66C345.19 357.2 347.34 359.27 349.98 359.27C352.62 359.27 354.77 357.2 354.77 354.66C354.77 352.12 352.62 350.05 349.98 350.05C347.34 350.05 345.19 352.12 345.19 354.66ZM348.3 354.66C348.3 353.77 349.05 353.05 349.97 353.05C350.89 353.05 351.65 353.77 351.65 354.66C351.65 355.55 350.9 356.27 349.97 356.27C349.05 356.28 348.3 355.55 348.3 354.66Z" fill="#1F2F8C"/>
<path d="M161.09 389.62L160.89 369.88L156.63 365.38V348.18L151.5 344.25L97.23 342.9L91.11 347.2L89.93 365.57L86.28 369.87V390.06L89.29 393.92L155.65 393.18C157.78 393.16 160.96 391.67 161.09 389.62Z" fill="#F2F2F2"/>
<path d="M179.94 342.9H205.08V393.14H172.32C169.73 393.14 167.65 391.07 167.73 388.57L168.39 368.9L172.44 366.36V350.13C172.44 346.14 175.8 342.9 179.94 342.9Z" fill="#F2F2F2"/>
<path d="M66.73 342.9H42.1L10.28 393.14H74.36C76.95 393.14 79.03 391.07 78.95 388.57L78.29 368.9L74.24 366.36V350.13C74.23 346.14 70.88 342.9 66.73 342.9Z" fill="url(#paint4_linear_3047_1094)"/>
<path d="M84.6401 371.36V389.22C84.6401 392.38 87.3101 394.96 90.5901 394.96H156.6C159.88 394.96 162.55 392.39 162.55 389.22V371.36C162.55 367.63 159.41 364.6 155.54 364.6H91.6501C87.7801 364.6 84.6401 367.63 84.6401 371.36ZM90.5901 391.96C89.0301 391.96 87.7501 390.73 87.7501 389.22V371.36C87.7501 369.29 89.5001 367.6 91.6501 367.6H155.54C157.69 367.6 159.44 369.29 159.44 371.36V389.22C159.44 390.73 158.17 391.96 156.6 391.96H90.5901Z" fill="#1F2F8C"/>
<path d="M89.28 351.45V367.61H157.9V351.45C157.9 346.09 153.38 341.73 147.82 341.73H99.37C93.81 341.72 89.28 346.09 89.28 351.45ZM92.4 364.6V351.44C92.4 347.73 95.53 344.719 99.37 344.719H147.82C151.66 344.719 154.79 347.74 154.79 351.44V364.6H92.4Z" fill="#1F2F8C"/>
<path d="M136.99 354.659C136.99 357.199 139.14 359.269 141.78 359.269C144.42 359.269 146.57 357.199 146.57 354.659C146.57 352.119 144.42 350.049 141.78 350.049C139.13 350.049 136.99 352.119 136.99 354.659ZM140.1 354.659C140.1 353.769 140.85 353.049 141.77 353.049C142.69 353.049 143.45 353.769 143.45 354.659C143.45 355.549 142.7 356.269 141.77 356.269C140.85 356.279 140.1 355.549 140.1 354.659Z" fill="#1F2F8C"/>
<path d="M100.72 354.659C100.72 357.199 102.87 359.269 105.51 359.269C108.15 359.269 110.3 357.199 110.3 354.659C110.3 352.119 108.15 350.049 105.51 350.049C102.86 350.049 100.72 352.119 100.72 354.659ZM103.83 354.659C103.83 353.769 104.58 353.049 105.5 353.049C106.42 353.049 107.18 353.769 107.18 354.659C107.18 355.549 106.43 356.269 105.5 356.269C104.58 356.279 103.83 355.549 103.83 354.659Z" fill="#1F2F8C"/>
<path d="M42.1001 367.6H74.0401C76.1901 367.6 77.9401 369.29 77.9401 371.36V389.22C77.9401 390.73 76.6701 391.96 75.1001 391.96H42.1001V394.96H75.1001C78.3801 394.96 81.0501 392.39 81.0501 389.22V371.36C81.0501 367.63 77.9101 364.6 74.0401 364.6H42.1001V367.6Z" fill="url(#paint5_linear_3047_1094)"/>
<path d="M42.1001 344.72H66.3201C70.1601 344.72 73.2901 347.74 73.2901 351.44V364.6H42.1001V367.6H76.4101V351.44C76.4101 346.08 71.8901 341.72 66.3301 341.72H42.1101V344.72H42.1001Z" fill="url(#paint6_linear_3047_1094)"/>
<path d="M55.49 354.66C55.49 357.2 57.64 359.27 60.28 359.27C62.92 359.27 65.07 357.2 65.07 354.66C65.07 352.12 62.92 350.05 60.28 350.05C57.63 350.05 55.49 352.12 55.49 354.66ZM58.6 354.66C58.6 353.77 59.35 353.05 60.27 353.05C61.19 353.05 61.95 353.77 61.95 354.66C61.95 355.55 61.2 356.27 60.27 356.27C59.35 356.28 58.6 355.55 58.6 354.66Z" fill="#1F2F8C"/>
<path d="M172.09 394.96H205.08V391.96H172.09C170.53 391.96 169.25 390.73 169.25 389.22V371.36C169.25 369.29 171 367.6 173.15 367.6H205.08V364.6H173.15C169.29 364.6 166.14 367.63 166.14 371.36V389.22C166.14 392.38 168.81 394.96 172.09 394.96Z" fill="#1F2F8C"/>
<path d="M205.08 367.6V364.6H173.9V351.44C173.9 347.73 177.03 344.72 180.87 344.72H205.08V341.72H180.87C175.31 341.72 170.79 346.08 170.79 351.44V367.6H205.08Z" fill="#1F2F8C"/>
<path d="M182.22 354.66C182.22 357.2 184.37 359.27 187.01 359.27C189.65 359.27 191.8 357.2 191.8 354.66C191.8 352.12 189.65 350.05 187.01 350.05C184.36 350.05 182.22 352.12 182.22 354.66ZM185.33 354.66C185.33 353.77 186.08 353.05 187 353.05C187.92 353.05 188.68 353.77 188.68 354.66C188.68 355.55 187.93 356.27 187 356.27C186.08 356.28 185.33 355.55 185.33 354.66Z" fill="#1F2F8C"/>
<path d="M256.52 54.4401H243.4L239.74 61.2801H232.78L251.01 29.3701H257.45L264.37 61.2801H257.85L256.52 54.4401ZM255.43 48.8301L253.06 36.5201L246.42 48.8301H255.43Z" fill="#D91604"/>
<path d="M272.94 29.3701H279.5L274.91 55.2601H289.04L287.95 61.2801H267.3L272.94 29.3701Z" fill="#D91604"/>
<path d="M297.25 29.3701H303.81L299.22 55.2601H313.35L312.26 61.2801H291.61L297.25 29.3701Z" fill="#D91604"/>
<path d="M332.95 29.3701H339.51L333.87 61.2801H327.31L332.95 29.3701Z" fill="#D91604"/>
<path d="M371.99 29.3701L366.35 61.2801H361L350.5 41.3201L346.96 61.2801H340.52L346.16 29.3701H351.55L362.05 49.3801L365.55 29.3701H371.99Z" fill="#D91604"/>
<path d="M391.71 60.0901C389.64 58.9401 388.06 57.3101 386.96 55.2101C385.86 53.1101 385.31 50.7001 385.31 47.9601C385.31 44.3401 386.04 41.0901 387.5 38.1801C388.96 35.2801 391.02 32.9901 393.66 31.3201C396.3 29.6501 399.33 28.8101 402.74 28.8101C405.56 28.8101 408 29.39 410.07 30.54C412.14 31.69 413.72 33.32 414.82 35.42C415.92 37.52 416.47 39.93 416.47 42.67C416.47 46.29 415.74 49.55 414.28 52.45C412.82 55.35 410.76 57.6401 408.12 59.3101C405.48 60.9801 402.45 61.8201 399.04 61.8201C396.22 61.8201 393.78 61.2501 391.71 60.0901ZM405.03 53.8501C406.59 52.7301 407.78 51.2201 408.61 49.3401C409.44 47.4601 409.86 45.3701 409.86 43.1001C409.86 40.6701 409.19 38.73 407.85 37.29C406.51 35.85 404.62 35.1201 402.17 35.1201C400.1 35.1201 398.29 35.6801 396.74 36.8101C395.18 37.9301 393.99 39.4401 393.16 41.3201C392.33 43.2001 391.91 45.2901 391.91 47.5601C391.91 49.9901 392.58 51.9301 393.92 53.3701C395.26 54.8101 397.15 55.54 399.59 55.54C401.67 55.53 403.48 54.9701 405.03 53.8501Z" fill="#D91604"/>
<path d="M449.87 29.3701L444.23 61.2801H438.88L428.38 41.3201L424.84 61.2801H418.4L424.04 29.3701H429.43L439.93 49.3801L443.43 29.3701H449.87Z" fill="#D91604"/>
<path d="M461.99 35.3001L460.78 42.2301H473.86L472.85 47.9701H459.73L458.44 55.3501H473.82L472.73 61.2801H450.91L456.55 29.3701H477.84L476.75 35.3001H461.99Z" fill="#D91604"/>
<path d="M514.49 31.99C516.41 33.74 517.37 36.18 517.37 39.31C517.37 41.98 516.81 44.32 515.7 46.31C514.59 48.3 513 49.8299 510.95 50.8899C508.9 51.9499 506.48 52.49 503.69 52.49H497.41L495.88 61.2899H489.32L494.96 29.38H506.35C509.86 29.37 512.57 30.25 514.49 31.99ZM509 44.78C510.18 43.66 510.77 42.0399 510.77 39.9499C510.77 38.4299 510.32 37.29 509.42 36.53C508.52 35.77 507.23 35.3899 505.54 35.3899H500.43L498.46 46.47H503.97C506.14 46.46 507.82 45.9 509 44.78Z" fill="#D91604"/>
<path d="M524.01 29.3701H530.57L525.98 55.2601H540.11L539.02 61.2801H518.37L524.01 29.3701Z" fill="#D91604"/>
<path d="M562.97 54.4401H549.85L546.19 61.2801H539.23L557.46 29.3701H563.9L570.82 61.2801H564.3L562.97 54.4401ZM561.88 48.8301L559.51 36.5201L552.87 48.8301H561.88Z" fill="#D91604"/>
<path d="M580.78 60.0901C578.67 58.9401 577.06 57.3101 575.93 55.2101C574.8 53.1101 574.24 50.7001 574.24 47.9601C574.24 44.3401 574.97 41.0901 576.43 38.1801C577.89 35.2801 579.95 32.9901 582.61 31.3201C585.27 29.6501 588.31 28.8101 591.75 28.8101C594.27 28.8101 596.5 29.3001 598.43 30.2701C600.36 31.2401 601.82 32.6401 602.82 34.4601L598.11 38.8401C596.61 36.3501 594.34 35.1001 591.31 35.1001C589.24 35.1001 587.42 35.6501 585.84 36.7401C584.26 37.8301 583.03 39.3201 582.16 41.2101C581.29 43.0901 580.85 45.1901 580.85 47.5001C580.85 49.9601 581.54 51.91 582.92 53.36C584.3 54.8 586.24 55.5301 588.74 55.5301C591.72 55.5301 594.21 54.3001 596.23 51.8401L600.09 56.3101C597.3 59.9901 593.33 61.83 588.18 61.83C585.35 61.82 582.89 61.2501 580.78 60.0901Z" fill="#D91604"/>
<path d="M613.92 35.3001L612.71 42.2301H625.79L624.78 47.9701H611.67L610.38 55.3501H625.76L624.67 61.2801H602.86L608.49 29.3701H629.78L628.69 35.3001H613.92Z" fill="#D91604"/>
<path d="M822.42 205.23C822.42 198.63 845.34 190.1 844.23 183.81C843.09 177.34 818.62 177.18 816.42 171.14C814.18 165 832.77 149.12 829.54 143.54C826.28 137.91 803.23 146.14 799.07 141.18C794.89 136.21 806.97 114.93 802 110.76C797.04 106.6 778.17 122.16 772.54 118.89C766.96 115.66 771.06 91.5301 764.93 89.2901C758.9 87.0901 746.51 108.17 740.05 107.03C733.76 105.92 729.34 81.8501 722.73 81.8501C716.12 81.8501 711.7 105.92 705.41 107.03C698.94 108.17 686.56 87.0901 680.53 89.2901C674.39 91.5301 678.5 115.66 672.92 118.89C667.29 122.15 648.42 106.59 643.46 110.76C638.49 114.94 650.57 136.21 646.39 141.18C642.23 146.14 619.18 137.91 615.92 143.54C612.69 149.12 631.28 165 629.04 171.14C626.84 177.17 602.37 177.34 601.23 183.81C600.12 190.1 623.04 198.62 623.04 205.23C623.04 211.83 600.12 220.36 601.23 226.65C602.34 232.97 625.73 233.28 628.84 238.92L646.79 148.2H682.05C699.27 148.2 712.34 152.1 721.27 159.9C725.05 163.21 728.03 167.12 730.21 171.62C745.63 175.04 757.17 188.78 757.17 205.23C757.17 224.25 741.75 239.66 722.74 239.66C722.01 239.66 721.29 239.63 720.57 239.59C715.7 246.05 709.6 251.41 702.28 255.66C691.64 261.84 679.02 264.93 664.43 264.93H623.69L627.59 245.22C623.53 252.56 613.46 262.69 615.91 266.92C619.17 272.55 642.22 264.32 646.38 269.28C650.56 274.25 638.48 295.53 643.45 299.7C648.41 303.86 667.28 288.3 672.91 291.57C678.49 294.8 674.39 318.93 680.52 321.17C686.55 323.37 698.94 302.29 705.4 303.43C711.69 304.54 716.11 328.61 722.72 328.61C729.32 328.61 733.75 304.54 740.04 303.43C746.51 302.29 758.89 323.37 764.92 321.17C771.06 318.93 766.95 294.8 772.53 291.57C778.16 288.31 797.03 303.87 801.99 299.7C806.96 295.52 794.88 274.25 799.06 269.28C803.22 264.32 826.27 272.55 829.53 266.92C832.76 261.34 814.17 245.46 816.41 239.32C818.61 233.29 843.08 233.12 844.22 226.65C845.34 220.35 822.42 211.83 822.42 205.23Z" fill="#1F2F8C"/>
<path d="M251.58 271.62H160.99L136.37 312.96H72.8301L209.33 100.16H268.61L319.99 312.96H260.1L251.58 271.62ZM242.46 227.23L228.17 158.23L187.43 227.24H242.46V227.23Z" fill="url(#paint7_linear_3047_1094)"/>
<path d="M577.55 100.16L444.09 312.96H384.81L336.47 100.16H398.18L428.58 238.48L515.52 100.16H577.55Z" fill="url(#paint8_linear_3047_1094)"/>
<path d="M596.32 100.16H688.74C710.63 100.16 729.58 103.76 745.59 110.95C761.6 118.15 773.91 128.48 782.53 141.96C791.14 155.44 795.45 171.3 795.45 189.54C795.45 214.27 789.83 235.95 778.58 254.6C767.33 273.25 751.68 287.64 731.61 297.77C711.55 307.91 688.54 312.97 662.6 312.97H553.76L596.32 100.16ZM664.41 264.93C679 264.93 691.62 261.84 702.26 255.66C712.9 249.48 720.96 240.97 726.43 230.12C731.9 219.28 734.64 206.97 734.64 193.18C734.64 178.79 730.18 167.7 721.26 159.89C712.34 152.09 699.27 148.19 682.04 148.19H646.78L623.68 264.93H664.41Z" fill="url(#paint9_linear_3047_1094)"/>
</g>
<defs>
<linearGradient id="paint0_linear_3047_1094" x1="265.645" y1="-71.5736" x2="628.247" y2="716.411" gradientUnits="userSpaceOnUse">
<stop offset="0.3276" stop-color="white" stop-opacity="0"/>
<stop offset="0.3378" stop-color="#E7E9F3" stop-opacity="0.055"/>
<stop offset="0.363" stop-color="#B3B8D8" stop-opacity="0.1904"/>
<stop offset="0.3885" stop-color="#868EC1" stop-opacity="0.3278"/>
<stop offset="0.4138" stop-color="#616CAE" stop-opacity="0.4645"/>
<stop offset="0.4391" stop-color="#44519F" stop-opacity="0.6005"/>
<stop offset="0.4641" stop-color="#2F3E94" stop-opacity="0.7355"/>
<stop offset="0.489" stop-color="#23338E" stop-opacity="0.8692"/>
<stop offset="0.5132" stop-color="#1F2F8C"/>
</linearGradient>
<linearGradient id="paint1_linear_3047_1094" x1="610.662" y1="43.755" x2="685.473" y2="43.755" gradientUnits="userSpaceOnUse">
<stop offset="0.278" stop-color="white" stop-opacity="0"/>
<stop offset="0.436" stop-color="#FBFBFB" stop-opacity="0.2197"/>
<stop offset="0.9972" stop-color="#F2F2F2"/>
</linearGradient>
<linearGradient id="paint2_linear_3047_1094" x1="611.16" y1="23.817" x2="687.106" y2="41.1885" gradientUnits="userSpaceOnUse">
<stop offset="0.278" stop-color="white" stop-opacity="0"/>
<stop offset="0.2966" stop-color="#E7E9F3" stop-opacity="0.055"/>
<stop offset="0.3423" stop-color="#B3B8D8" stop-opacity="0.1904"/>
<stop offset="0.3888" stop-color="#868EC1" stop-opacity="0.3278"/>
<stop offset="0.435" stop-color="#616CAE" stop-opacity="0.4645"/>
<stop offset="0.4809" stop-color="#44519F" stop-opacity="0.6005"/>
<stop offset="0.5266" stop-color="#2F3E94" stop-opacity="0.7355"/>
<stop offset="0.5717" stop-color="#23338E" stop-opacity="0.8692"/>
<stop offset="0.6159" stop-color="#1F2F8C"/>
</linearGradient>
<linearGradient id="paint3_linear_3047_1094" x1="616.013" y1="48.5948" x2="682.684" y2="64.8419" gradientUnits="userSpaceOnUse">
<stop offset="0.278" stop-color="white" stop-opacity="0"/>
<stop offset="0.2966" stop-color="#E7E9F3" stop-opacity="0.055"/>
<stop offset="0.3423" stop-color="#B3B8D8" stop-opacity="0.1904"/>
<stop offset="0.3888" stop-color="#868EC1" stop-opacity="0.3278"/>
<stop offset="0.435" stop-color="#616CAE" stop-opacity="0.4645"/>
<stop offset="0.4809" stop-color="#44519F" stop-opacity="0.6005"/>
<stop offset="0.5266" stop-color="#2F3E94" stop-opacity="0.7355"/>
<stop offset="0.5717" stop-color="#23338E" stop-opacity="0.8692"/>
<stop offset="0.6159" stop-color="#1F2F8C"/>
</linearGradient>
<linearGradient id="paint4_linear_3047_1094" x1="22.5021" y1="358.346" x2="76.1782" y2="388.837" gradientUnits="userSpaceOnUse">
<stop offset="0.278" stop-color="white" stop-opacity="0"/>
<stop offset="0.436" stop-color="#FBFBFB" stop-opacity="0.2197"/>
<stop offset="0.9972" stop-color="#F2F2F2"/>
</linearGradient>
<linearGradient id="paint5_linear_3047_1094" x1="29.2007" y1="372.789" x2="103.853" y2="390.599" gradientUnits="userSpaceOnUse">
<stop offset="0.278" stop-color="white" stop-opacity="0"/>
<stop offset="0.2966" stop-color="#E7E9F3" stop-opacity="0.055"/>
<stop offset="0.3423" stop-color="#B3B8D8" stop-opacity="0.1904"/>
<stop offset="0.3888" stop-color="#868EC1" stop-opacity="0.3278"/>
<stop offset="0.435" stop-color="#616CAE" stop-opacity="0.4645"/>
<stop offset="0.4809" stop-color="#44519F" stop-opacity="0.6005"/>
<stop offset="0.5266" stop-color="#2F3E94" stop-opacity="0.7355"/>
<stop offset="0.5717" stop-color="#23338E" stop-opacity="0.8692"/>
<stop offset="0.6159" stop-color="#1F2F8C"/>
</linearGradient>
<linearGradient id="paint6_linear_3047_1094" x1="34.6726" y1="349.854" x2="109.325" y2="367.664" gradientUnits="userSpaceOnUse">
<stop offset="0.278" stop-color="white" stop-opacity="0"/>
<stop offset="0.2966" stop-color="#E7E9F3" stop-opacity="0.055"/>
<stop offset="0.3423" stop-color="#B3B8D8" stop-opacity="0.1904"/>
<stop offset="0.3888" stop-color="#868EC1" stop-opacity="0.3278"/>
<stop offset="0.435" stop-color="#616CAE" stop-opacity="0.4645"/>
<stop offset="0.4809" stop-color="#44519F" stop-opacity="0.6005"/>
<stop offset="0.5266" stop-color="#2F3E94" stop-opacity="0.7355"/>
<stop offset="0.5717" stop-color="#23338E" stop-opacity="0.8692"/>
<stop offset="0.6159" stop-color="#1F2F8C"/>
</linearGradient>
<linearGradient id="paint7_linear_3047_1094" x1="767.68" y1="82.3024" x2="258.374" y2="208.113" gradientUnits="userSpaceOnUse">
<stop offset="0.0363" stop-color="#01A9EA"/>
<stop offset="0.9637" stop-color="#2A4093"/>
</linearGradient>
<linearGradient id="paint8_linear_3047_1094" x1="769.25" y1="112.949" x2="259.945" y2="238.76" gradientUnits="userSpaceOnUse">
<stop offset="0.0363" stop-color="#01A9EA"/>
<stop offset="0.9637" stop-color="#2A4093"/>
</linearGradient>
<linearGradient id="paint9_linear_3047_1094" x1="789.279" y1="169.74" x2="279.974" y2="295.55" gradientUnits="userSpaceOnUse">
<stop offset="0.0363" stop-color="#01A9EA"/>
<stop offset="0.9637" stop-color="#2A4093"/>
</linearGradient>
</defs>
</svg>
