<svg width="164" height="47" viewBox="0 0 164 47" fill="none" xmlns="http://www.w3.org/2000/svg">
<path d="M152.88 6.1674C152.8 7.6453 151.999 9.04109 151.359 9.86214C148.88 12.8179 142.88 14.2137 140.32 12.079C139.2 11.1758 139.28 9.53371 140.24 8.46635C141.92 6.57793 145.52 6.1674 148 6.00319C148.48 6.00319 152.16 6.00319 152.8 6.1674C152.96 6.1674 152.8 6.0853 152.88 6.1674ZM163.6 22.5884C161.76 22.2601 160 21.439 158.88 20.4537C157.76 19.4684 156.72 18.319 156.16 16.2663C155.44 13.639 156.16 9.78004 156.72 7.07056C156.88 6.1674 157.2 5.26425 157.36 4.36109C156.48 4.19688 155.2 4.11478 154.32 4.03266C151.12 3.78635 147.84 3.70425 144.64 4.03266C140.24 4.44319 137.2 5.59266 135.04 8.05583C134 9.2874 133.2 11.34 134.48 13.0642C135.36 14.2137 137.12 15.0348 138.96 15.4453C141.839 16.1021 144.88 15.6095 147.6 14.5421C148.399 14.2137 149.12 13.8032 149.92 13.4748C149.68 14.3779 148 16.6768 147.36 17.4158C146.56 18.319 145.76 19.2221 144.799 20.0432C144.08 20.6179 143.36 21.1927 142.48 21.6032C137.04 24.3948 134 19.3863 131.84 18.4011C129.44 17.3337 127.36 23.3274 125.36 20.0432C124.16 18.0727 123.28 13.7211 120.4 15.8558C119.92 16.1842 119.44 16.5948 118.96 17.0053C118.32 17.5801 117.52 18.2368 116.88 18.8116C115.68 19.9611 112.88 22.2601 111.44 22.4242C110.64 22.5063 110.16 21.9316 110.08 21.1927C110 20.4537 110.24 19.6327 110.56 19.0579C111.28 17.4979 113.04 15.0348 114.24 13.639C114.4 13.4748 114.8 13.0642 114.8 12.9821C114.64 12.8179 114 12.4074 113.68 12.3253C112.08 11.5863 111.04 11.8327 109.76 12.8179C107.6 14.4601 104.56 17.7442 104.24 20.6179C104.24 20.9463 104.32 21.1927 104.08 21.3568C101.36 23.7379 96.3999 23.2453 95.5202 18.5653C95.3597 17.4979 95.3597 16.5127 95.12 15.4453C94.2402 11.5042 91.52 11.9148 88.8799 13.7211C88.0799 14.2137 86.1599 15.7737 85.5199 16.5127C85.3598 16.6768 85.2799 16.8411 85.0398 16.9232C85.3598 16.2663 87.9999 12.2432 88.3999 11.5863C88.7199 11.0937 89.4397 10.1906 88.5599 9.78004C87.8399 9.3695 86.7999 9.69793 86.2399 10.0263C85.6799 10.4369 85.3598 11.0937 84.9599 11.6685C84.2399 12.8179 83.5199 14.0495 82.7999 15.2811C82.1599 16.5127 81.4399 17.8263 80.7998 19.1401C80.5599 19.6327 80.4798 19.5506 80.0798 19.7968C79.1199 20.3716 78.1599 20.7821 77.1199 21.1106C75.8399 21.5211 73.7598 22.0958 72.3199 21.8495C70.1599 21.439 71.1998 19.3863 71.9198 18.319C72.2398 17.9084 73.1199 16.9232 72.7199 16.4306C71.4399 14.8706 67.3598 19.4684 63.2799 20.7001C61.9999 21.1106 59.4399 21.6853 59.1198 20.0432C58.7998 18.4011 60.3998 16.9232 61.1198 16.3484C62.0798 15.5274 63.3598 14.8706 64.7998 14.2958C70.3999 11.9968 73.1199 14.5421 74.0798 14.5421C74.3999 14.0495 74.4798 13.1463 74.1599 12.5716C73.9198 12.1611 73.4399 11.7506 72.7998 11.5042C69.5198 10.1906 64.1599 11.8327 61.1999 13.1463C58.8799 14.2137 57.2798 15.2811 55.4399 16.9232C53.9199 18.319 51.9199 20.7001 52.0798 23.0811C48.7998 24.6411 45.5198 23.8201 43.8398 21.5211C41.5998 18.4832 42.8798 15.6095 41.5199 12.4074C40.9598 11.0937 39.9998 10.0263 38.1598 10.0263C35.3599 10.0263 32.0799 12.9821 29.9998 14.7063L28.1598 16.4306C27.9998 16.5948 27.9998 16.6768 27.7598 16.759C27.5998 15.6916 27.1998 14.5421 26.9599 13.4748L25.2798 6.98845C24.9599 5.83898 24.5598 4.93583 23.8398 4.36109C22.0799 2.80109 19.9198 4.77161 18.4798 5.92109C17.5199 6.74214 15.4398 9.04109 14.6398 10.1085L12.7998 12.3253C11.0398 14.4601 9.27985 17.0053 7.59982 19.2221C7.03983 19.9611 6.47983 20.7821 5.91983 21.6032C4.63983 23.3274 2.39983 26.2011 0.799825 27.5968C0.639824 27.7611 0.399824 27.9253 0.319824 28.0895C1.91983 28.3358 4.71982 28.0074 6.15982 27.5147C8.15983 26.8579 8.95979 26.119 9.99985 24.8053C10.9599 23.5737 11.7598 22.1779 12.6398 20.8642C14.3198 18.2368 15.9198 15.3632 17.7598 12.8179C18.2399 12.1611 18.7198 11.5863 19.2798 11.0116C19.5998 10.6832 20.7198 9.53371 21.2798 10.3548C21.9198 11.2579 22.1598 14.6242 22.2399 16.0201C22.3999 17.9906 22.4798 20.0432 22.7999 22.0137C23.0398 23.6558 23.6799 26.5295 25.5199 24.8053C25.8398 24.559 26.0799 24.2306 26.3198 23.9842C26.5598 23.6558 26.8798 23.4095 27.1198 23.1632C27.3599 22.8348 27.6799 22.5884 27.9198 22.3421C29.1998 20.8642 30.5598 19.5506 32.0799 18.319C33.1998 17.4979 35.3599 16.1842 36.5598 17.7442C38.5598 20.2074 38.5598 23.4095 42.2398 25.2158C45.0399 26.6116 48.5598 26.3653 51.5198 25.0516C51.7599 24.8874 52.3199 24.5589 52.5598 24.4768C52.7998 24.8053 52.8799 24.8874 53.2798 25.1337C55.4399 26.4474 59.2799 25.4621 61.4399 24.7232C62.9598 24.2306 63.9999 23.5737 65.1198 22.8348C65.8399 22.3421 67.6798 21.1106 68.3998 20.5358C68.3998 20.7821 68.2398 21.3568 68.2398 21.6032C68.1599 22.6706 68.1599 24.0663 68.9598 24.7232C70.4799 25.9548 75.1199 23.5737 76.5599 22.7527L79.8399 20.9463C79.5999 21.6032 79.1998 22.3421 78.9599 22.9989C77.0399 27.5968 75.3598 34.2474 74.6398 39.0916C74.5599 39.8306 74.0798 42.2937 74.4798 43.0327C74.6398 43.2789 74.9598 43.6074 75.3598 43.5253C76.5599 43.4432 76.9599 40.8979 77.2799 39.6663C78.6398 34.4937 80.5599 26.8579 83.5999 22.7527C84.7199 21.2748 87.3598 17.4979 90.2401 17.9084C90.9602 17.9906 91.4398 18.7295 91.6795 19.3042C92.7999 21.2748 93.3596 23.0811 95.5995 24.0663C98.08 25.2158 101.28 24.6411 103.52 23.0811C103.76 22.9168 104.16 22.5884 104.4 22.5063C104.8 22.9168 104.8 23.4916 105.84 24.1484C106.4 24.559 107.2 24.8053 108 24.9695C112.48 25.7906 115.919 23.3274 118.96 20.5358C119.36 20.2074 119.68 19.7148 120.08 19.3863C120.16 19.4684 120.64 20.7001 121.12 21.3568C123.44 24.7232 126.4 23.3274 129.28 21.8495C131.2 20.8642 131.76 21.439 133.44 22.5063C134.08 22.8348 134.72 23.1632 135.44 23.4916C138.72 24.8053 142.16 24.1484 145.04 22.7527C146.32 22.0958 147.68 21.2748 148.72 20.4537C149.36 19.879 150.48 19.0579 151.04 18.319L151.679 17.4979C151.76 17.6621 152.24 19.3042 152.4 19.6327C153.12 21.5211 154.32 23.5737 155.84 24.6411C157.28 25.7084 158.32 25.6263 160.08 24.8053C161.04 24.3948 161.92 23.9021 162.8 23.3274C162.96 23.2453 163.04 23.1632 163.2 22.9989C163.28 22.9168 163.36 22.9168 163.44 22.8348L163.6 22.5884ZM47.0399 14.7063C46.9598 13.3927 47.9199 12.2432 49.1198 12.1611C50.4799 12.079 51.5198 13.1463 51.5999 14.3779C51.6798 15.6916 50.7198 16.759 49.5198 16.9232C48.2398 17.0053 47.1999 15.9379 47.0399 14.7063ZM48.9598 11.6685C47.5198 11.9148 46.3998 13.2284 46.6399 14.9527C46.8799 16.3484 48.1598 17.5801 49.8398 17.2516C51.1999 17.0053 52.3998 15.6916 52.1599 13.9674C51.8398 12.6537 50.5598 11.4221 48.9598 11.6685ZM48.7198 13.3927C49.1999 13.3927 49.9998 13.2284 49.9998 13.8853C49.9998 14.4601 49.1999 14.2958 48.7198 14.2958V13.3927ZM47.9998 16.1021H48.7198V14.7884H49.4398L49.9199 16.1021H50.6399L50.0798 14.6242C50.9598 14.2958 50.7198 13.3106 50.3199 13.0642C49.8398 12.7358 48.6399 12.8179 47.9998 12.8179V16.1021Z" fill="#E31E24"/>
<path d="M125.92 33.179C125.759 33.179 124.64 33.179 124.56 33.179C124.399 33.261 124.32 34 124.24 34.2463L123.28 38.7621C123.2 39.1726 122.799 40.6505 122.799 40.9789H129.999C130.16 40.6505 131.68 33.3431 131.599 33.179H130.16L128.8 39.6652H127.359C127.28 39.1726 128.639 33.7536 128.639 33.179H127.28C127.2 33.4253 126.64 35.9705 126.56 36.4631C126.48 37.0379 126.32 37.5305 126.24 38.1052C126.16 38.3516 126.16 38.68 126.079 38.9263C126.079 39.0905 126 39.6652 125.84 39.6652H124.399L125.92 33.179ZM147.12 39.8295C147.12 39.3369 147.52 38.0231 147.6 37.4484C147.679 36.9557 147.679 36.5452 147.92 36.381C148.24 36.1347 148.639 36.0526 148.8 36.4631C149.039 37.12 148.639 39.1726 147.999 39.7474C147.679 40.1579 147.359 39.9936 147.12 39.8295ZM145.759 36.2169C146.16 36.0526 146.56 36.2989 146.48 36.7916L146 39.0905C145.92 39.5831 145.92 39.8295 145.52 39.9116C144.48 40.1579 144.8 38.68 144.88 38.0231C144.96 37.3663 145.2 36.4631 145.759 36.2169ZM148.48 33.5074C147.12 33.5074 147.2 33.4252 147.12 33.7536L146.96 34.4926C146.88 34.821 146.8 35.1495 146.719 35.56C146.399 35.3958 146.24 35.0674 145.6 35.1495C145.2 35.2316 144.8 35.4779 144.56 35.6421C143.52 36.5452 142.32 40.5684 144.399 40.9789C145.039 41.061 145.2 40.8969 145.6 40.6505L145.119 42.7031C146.719 42.7031 146.399 42.9495 146.64 41.6357C146.719 41.3895 146.8 40.8147 146.88 40.6505C147.28 40.8969 147.359 41.061 148.08 40.8969C150.16 40.4863 150.639 36.6274 150.08 35.56C149.92 35.2316 149.6 34.9852 149.12 34.9852C148.639 34.9852 148.319 35.2316 147.999 35.3958L148.48 33.5074ZM86.9596 33.179H85.5197L83.9197 41.061H85.3597C85.5197 40.4863 85.7597 39.0905 85.9197 38.3516C85.9997 37.7769 85.9997 37.5305 86.2397 37.5305C86.8797 37.5305 87.3597 37.4484 87.3597 38.1874C87.4397 39.1726 87.1997 40.3221 87.7597 40.8147C87.9997 41.061 88.4797 41.1431 88.9596 41.061C89.0397 40.9789 89.5199 40.0757 89.4397 39.9116C89.2793 39.7474 89.1999 39.8295 89.0397 39.7474C88.6397 39.5831 88.7997 38.9263 88.7997 38.3516C88.7997 37.2021 88.5597 37.2021 88.1597 36.8736L88.0797 36.7916C88.7997 36.6274 89.0397 36.1347 89.2793 35.3958C89.3595 35.1495 89.5199 34.6569 89.6795 34.4926C89.9201 34.0821 90.1599 34.2463 90.4799 34C90.5601 33.7536 90.4799 33.0969 90.3996 32.9326C89.9201 32.8505 89.3595 33.0969 89.0397 33.3431C88.7197 33.5895 88.5597 34 88.3197 34.4926C87.6796 36.0526 87.8397 36.2169 86.3996 36.2169L86.9596 33.179ZM141.2 36.5452C141.2 36.9558 140.799 38.5979 140.64 39.0084C140.159 40.0757 139.199 40.3221 139.04 39.5831C138.879 38.9263 139.199 37.6126 139.44 37.0379C139.839 36.1347 140.4 35.8063 141.2 36.5452ZM142.079 40.9789C142.079 40.4042 141.92 40.1579 141.92 39.4189C142 38.9263 142.079 38.4336 142.159 37.941C142.24 37.3663 142.72 35.4779 142.72 35.1495H141.52L141.439 35.7242C141.04 35.4779 140.88 35.1495 140.24 35.1495C138.879 35.1495 138.08 36.7095 137.76 38.0231C137.519 39.0084 137.519 40.4042 138.24 40.8969C138.64 41.2252 139.199 41.061 139.68 40.8969C139.92 40.8147 140.08 40.7326 140.24 40.5684L140.72 40.1579C140.72 41.3074 140.64 40.9789 142.079 40.9789ZM102.96 35.1495H101.68L100.4 40.9789H101.68C101.84 40.4042 102 39.7474 102.079 39.0905C102.16 38.5157 102.079 38.5158 102.56 38.5158C102.96 38.5158 103.28 38.5158 103.68 38.5158L103.2 40.9789H104.48L105.759 35.1495C104.399 35.1495 104.48 35.0674 104.399 35.3958L104.24 36.2169C104.16 36.6274 104.079 37.0379 104 37.3663H102.479L102.96 35.1495ZM110.72 40.9789C110.72 40.4042 110.48 40.0757 110.639 39.4189C110.8 38.2695 111.36 36.4631 111.599 35.1495H110.319C110.16 36.0526 109.92 36.8736 109.76 37.7769C109.6 38.5979 109.279 39.5831 108.639 39.8295C107.44 40.3221 108.08 38.3516 108.24 37.7769C108.4 36.9558 108.72 35.9705 108.8 35.1495H107.52C107.359 35.8884 106.56 39.0905 106.56 39.5831C106.48 40.4863 106.96 41.1431 107.84 40.9789C108.8 40.8147 109.2 40.0757 109.44 39.9116C109.359 41.2252 109.2 40.9789 110.72 40.9789ZM118.4 40.9789C118.32 40.4042 118.159 39.9936 118.24 39.4189C118.4 38.5979 119.119 35.6421 119.199 35.1495H117.92C117.68 36.2169 117.28 38.5158 116.8 39.3369C116.64 39.5831 116.16 40.0757 115.68 39.9116C115.28 39.5831 115.76 38.0231 115.919 37.5305C116.08 36.9558 116.4 35.6421 116.4 35.1495H115.12C114.96 35.56 114.16 39.1726 114.08 39.5831C113.919 41.3074 115.519 41.4716 116.64 40.3221C116.8 40.1579 116.8 40.0757 116.96 39.9936C116.96 40.4042 116.96 40.6505 117.12 40.9789H118.4ZM134.4 35.1495H133.12L131.84 40.9789H133.12L133.68 38.5158C134.16 38.5158 134.48 38.4336 134.64 38.8442C134.8 39.501 134.559 40.4863 135.199 40.8147C135.44 40.9789 135.919 41.061 136.239 40.9789C136.4 40.8147 136.64 40.1579 136.64 39.9116C135.919 39.7474 136.08 39.8295 136 38.9263C135.919 38.3516 135.839 38.1052 135.36 37.941C135.599 37.7769 135.839 37.941 136.32 36.9558C136.8 35.9705 136.879 36.2989 137.36 36.1347C137.36 35.8884 137.36 35.3136 137.28 35.0674C136.32 34.9852 135.76 35.4779 135.519 36.1347C135.04 37.2021 135.12 37.4484 134 37.3663L134.4 35.1495ZM89.0397 42.7852C89.4397 43.2779 90.7196 43.5242 91.6796 42.7031C92.5593 41.9642 93.5994 39.0084 94.0798 37.7769C94.2394 37.3663 94.3998 36.8736 94.6396 36.4631C94.7198 36.2169 95.12 35.3958 95.12 35.2316H93.8401C93.5994 35.8063 93.2794 36.8736 93.1199 37.5305C92.9595 37.941 92.4799 39.501 92.3195 39.7474C92.16 39.0084 92.0797 38.2695 91.9995 37.5305C91.9193 36.9558 91.9193 35.7242 91.7598 35.2316H90.6394L91.5993 40.7326C91.7598 41.3895 91.3596 42.1284 90.7196 42.2105C90.2401 42.2926 90.0797 42.0462 89.6795 41.9642C89.4397 42.0462 89.1197 42.621 89.0397 42.7852ZM98.4 38.0231C98.5595 37.6947 100.479 35.56 100.72 35.1495H99.1193C98.9597 35.4779 98.72 35.8063 98.4793 36.1347C98.3198 36.381 97.9998 36.8736 97.8394 37.12L97.1994 35.2316H95.8393C95.8393 35.6421 96.8794 37.5305 97.0399 38.1052C96.8794 38.3516 96.0799 39.2547 95.8393 39.5831C95.5995 39.8295 95.44 40.0757 95.1993 40.3221C95.12 40.4863 94.6396 40.8969 94.6396 41.061H96.1592C96.4801 40.7326 97.4401 39.1726 97.5996 39.0084L98.4 41.061H99.7601C99.6799 40.8147 99.1995 39.9116 99.1193 39.5831C98.8795 39.0905 98.4793 38.4336 98.4 38.0231ZM152.4 39.9936C152.48 39.5831 152.56 38.9263 152.72 38.5158C152.8 38.3516 152.8 38.3516 152.88 38.2695C154.16 37.941 154.32 39.2547 153.68 39.8295C153.36 40.1579 152.88 40.0757 152.4 39.9936ZM153.44 35.1495H152.16C151.919 36.381 151.599 37.6126 151.36 38.8442C151.279 39.1726 151.2 39.4189 151.2 39.7474C151.12 40.0757 150.959 40.4042 151.279 40.5684C151.76 40.8147 152.4 41.061 152.959 41.061C155.76 41.1431 156.08 38.1874 154.879 37.4484C154.32 37.0379 153.76 37.2021 153.04 37.2842L153.44 35.1495ZM158.4 35.1495H157.12C156.96 36.1347 156.72 37.12 156.48 38.0231C156.4 38.5979 155.84 40.4863 155.84 40.9789H157.12L158.4 35.1495Z" fill="#E31E24"/>
</svg>
