<svg width="178" height="44" viewBox="0 0 178 44" fill="none" xmlns="http://www.w3.org/2000/svg">
<g clip-path="url(#clip0_514_738)">
<path d="M178 0H0V44H178V0Z" fill="#282727"/>
<mask id="mask0_514_738" style="mask-type:luminance" maskUnits="userSpaceOnUse" x="8" y="6" width="161" height="31">
<path d="M168.918 6.4165H8.17334V36.6665H168.918V6.4165Z" fill="white"/>
</mask>
<g mask="url(#mask0_514_738)">
<path d="M89.5464 33V9.53906H97.5123C100.141 9.53906 102.142 10.0708 103.514 11.1343C104.887 12.1978 105.574 13.7823 105.574 15.8877C105.574 16.962 105.287 17.9288 104.712 18.7881C104.137 19.6475 103.296 20.3136 102.189 20.7862C103.445 21.1299 104.414 21.7799 105.095 22.7359C105.787 23.6812 106.133 24.8199 106.133 26.1519C106.133 28.354 105.431 30.0459 104.026 31.2276C102.632 32.4093 100.631 33 98.0226 33H89.5464ZM93.5854 22.4136V29.7451H98.0708C99.3377 29.7451 100.328 29.4283 101.04 28.7945C101.753 28.1607 102.11 27.2799 102.11 26.1519C102.11 23.7134 100.875 22.4674 98.4059 22.4136H93.5854ZM93.5854 19.4165H97.544C98.8 19.4165 99.779 19.1319 100.482 18.5625C101.195 17.9825 101.551 17.1661 101.551 16.1133C101.551 14.9532 101.221 14.1152 100.561 13.5996C99.9125 13.084 98.8954 12.8262 97.5123 12.8262H93.5854V19.4165Z" fill="white"/>
<path d="M128.721 21.8818C128.721 24.1806 128.328 26.2002 127.54 27.9404C126.752 29.6699 125.624 31.0019 124.156 31.9365C122.697 32.8604 121.016 33.3223 119.111 33.3223C117.227 33.3223 115.545 32.8604 114.067 31.9365C112.597 31.0019 111.459 29.6752 110.65 27.9565C109.852 26.2377 109.448 24.2558 109.437 22.0107V20.6894C109.437 18.4013 109.836 16.3818 110.634 14.6308C111.443 12.8799 112.577 11.5425 114.034 10.6187C115.504 9.68402 117.185 9.2168 119.079 9.2168C120.973 9.2168 122.65 9.6787 124.107 10.6025C125.576 11.5156 126.709 12.8369 127.508 14.5664C128.306 16.2851 128.711 18.2886 128.721 20.5767V21.8818ZM124.682 20.6573C124.682 18.0576 124.193 16.0649 123.214 14.6792C122.245 13.2934 120.867 12.6006 119.079 12.6006C117.333 12.6006 115.966 13.2934 114.977 14.6792C113.997 16.0542 113.497 18.0039 113.476 20.5283V21.8818C113.476 24.46 113.971 26.4526 114.96 27.8599C115.961 29.267 117.344 29.9707 119.111 29.9707C120.899 29.9707 122.272 29.2832 123.229 27.9082C124.198 26.5332 124.682 24.5244 124.682 21.8818V20.6573Z" fill="white"/>
<path d="M144.893 26.9575C144.893 25.9263 144.531 25.1313 143.808 24.5727C143.094 24.0142 141.802 23.4502 139.928 22.8808C138.055 22.3115 136.565 21.6777 135.458 20.9795C133.34 19.6367 132.281 17.8857 132.281 15.7265C132.281 13.8359 133.042 12.2783 134.564 11.0537C136.097 9.82913 138.082 9.2168 140.519 9.2168C142.137 9.2168 143.579 9.51756 144.845 10.1192C146.112 10.7207 147.106 11.5801 147.83 12.6973C148.554 13.8037 148.916 15.0337 148.916 16.3872H144.893C144.893 15.1626 144.51 14.2065 143.743 13.519C142.988 12.8208 141.902 12.4717 140.487 12.4717C139.167 12.4717 138.14 12.7563 137.406 13.3257C136.682 13.895 136.32 14.6899 136.32 15.7105C136.32 16.5698 136.714 17.2895 137.501 17.8696C138.289 18.4389 139.588 18.9975 141.397 19.5454C143.207 20.0825 144.659 20.7002 145.755 21.3985C146.851 22.086 147.655 22.8808 148.165 23.7832C148.676 24.6748 148.932 25.7221 148.932 26.9252C148.932 28.8804 148.187 30.438 146.697 31.5981C145.217 32.7475 143.207 33.3223 140.663 33.3223C138.981 33.3223 137.432 33.0107 136.017 32.3877C134.613 31.7539 133.516 30.8838 132.728 29.7774C131.952 28.6708 131.563 27.3818 131.563 25.9101H135.602C135.602 27.2422 136.038 28.2735 136.911 29.0039C137.784 29.7344 139.034 30.0996 140.663 30.0996C142.068 30.0996 143.121 29.8149 143.823 29.2456C144.536 28.6655 144.893 27.9029 144.893 26.9575Z" fill="white"/>
<path d="M164.624 26.9575C164.624 25.9263 164.262 25.1313 163.538 24.5727C162.825 24.0142 161.532 23.4502 159.66 22.8808C157.786 22.3115 156.297 21.6777 155.19 20.9795C153.072 19.6367 152.013 17.8857 152.013 15.7265C152.013 13.8359 152.774 12.2783 154.295 11.0537C155.828 9.82913 157.812 9.2168 160.25 9.2168C161.867 9.2168 163.309 9.51756 164.576 10.1192C165.842 10.7207 166.838 11.5801 167.561 12.6973C168.285 13.8037 168.647 15.0337 168.647 16.3872H164.624C164.624 15.1626 164.241 14.2065 163.475 13.519C162.719 12.8208 161.634 12.4717 160.218 12.4717C158.898 12.4717 157.871 12.7563 157.137 13.3257C156.413 13.895 156.051 14.6899 156.051 15.7105C156.051 16.5698 156.446 17.2895 157.233 17.8696C158.02 18.4389 159.319 18.9975 161.128 19.5454C162.937 20.0825 164.39 20.7002 165.486 21.3985C166.582 22.086 167.385 22.8808 167.897 23.7832C168.408 24.6748 168.663 25.7221 168.663 26.9252C168.663 28.8804 167.917 30.438 166.428 31.5981C164.949 32.7475 162.937 33.3223 160.393 33.3223C158.712 33.3223 157.164 33.0107 155.748 32.3877C154.343 31.7539 153.247 30.8838 152.46 29.7774C151.682 28.6708 151.294 27.3818 151.294 25.9101H155.333C155.333 27.2422 155.769 28.2735 156.642 29.0039C157.514 29.7344 158.765 30.0996 160.393 30.0996C161.798 30.0996 162.852 29.8149 163.555 29.2456C164.268 28.6655 164.624 27.9029 164.624 26.9575Z" fill="white"/>
<path d="M15.1973 29.333V13.6924H19.7735C21.1428 13.6924 22.3561 14.0003 23.4132 14.6162C24.4775 15.2321 25.3006 16.1058 25.8824 17.2373C26.4641 18.3689 26.755 19.665 26.755 21.126V21.9101C26.755 23.3925 26.4606 24.696 25.8717 25.8203C25.29 26.9446 24.4563 27.8112 23.3707 28.4199C22.2923 29.0287 21.0542 29.333 19.6564 29.333H15.1973ZM17.8898 15.8838V27.1631H19.6458C21.0577 27.1631 22.1397 26.719 22.8918 25.8311C23.651 24.9359 24.0377 23.654 24.0519 21.9854V21.1153C24.0519 19.418 23.6864 18.1217 22.9556 17.2266C22.2249 16.3314 21.1642 15.8838 19.7735 15.8838H17.8898Z" fill="white"/>
<path d="M32.2787 29.333H29.5967V13.6924H32.2787V29.333Z" fill="white"/>
<path d="M41.0482 25.9278L44.986 13.6924H47.9446L42.3678 29.333H39.7604L34.2051 13.6924H37.1531L41.0482 25.9278Z" fill="white"/>
<path d="M57.5655 25.6914H51.5631L50.3073 29.333H47.5083L53.3617 13.6924H55.7776L61.6416 29.333H58.8319L57.5655 25.6914ZM52.3188 23.5H56.8099L54.5643 17.0117L52.3188 23.5Z" fill="white"/>
<path d="M75.7004 29.333H73.0078L66.1008 18.2363V29.333H63.4082V13.6924H66.1008L73.0291 24.832V13.6924H75.7004V29.333Z" fill="white"/>
<path fill-rule="evenodd" clip-rule="evenodd" d="M81.7346 8.24984H9.98967V34.8332H81.7346V8.24984ZM8.17334 6.4165V36.6665H83.5509V6.4165H8.17334Z" fill="white"/>
</g>
</g>
<defs>
<clipPath id="clip0_514_738">
<rect width="178" height="44" fill="white"/>
</clipPath>
</defs>
</svg>
