<svg xmlns="http://www.w3.org/2000/svg" xmlns:xlink="http://www.w3.org/1999/xlink"><symbol viewBox="0 0 56 56" fill="currentColor" id="cooperation-basket-search"><path fill-rule="evenodd" clip-rule="evenodd" d="M53.566 52.765a21.169 21.169 0 0 0-6.391-7.15 8.97 8.97 0 0 0-4.139-15.448 9.944 9.944 0 0 0-11.895 10.248c.217 4.875 4.875 8.558 8.082 8.212a.672.672 0 0 0 0-1.322 7.02 7.02 0 0 1-5.958-6.912 8.015 8.015 0 0 1 9.316-7.756c5.655 1.126 7.8 7.691 2.925 12.415a9.49 9.49 0 0 1-3.12 2.166.759.759 0 0 0 .52 1.409 10.077 10.077 0 0 0 3.142-1.734 29.054 29.054 0 0 0 6.5 7.02.768.768 0 1 0 1.018-1.148z"/><path fill-rule="evenodd" clip-rule="evenodd" d="M28.455 40.155a53.755 53.755 0 0 1-16.185-1.322c-3.575-.953-4.507-6.283-5.157-9.988-1.062-5.59-.78-3.835-.78-4.723 3.575.628 30.117.433 30.333.433a6.5 6.5 0 0 0-.823 2.687c-.108.866-.498 2.643.585 2.491a.736.736 0 0 0 .737-.65c1.668-3.596 1.668-3.77 1.408-4.658.68-.054 1.355-.17 2.015-.347a3.445 3.445 0 0 0 .78-5.871 7.39 7.39 0 0 0-2.535-.629c.607-7.475-3.553-11.743-7.107-12.025a3.466 3.466 0 0 0-1.235-2.6c-1.82-1.408-4.095-.953-12.458-.585a.758.758 0 1 0 0 1.517c10.465.282 11.332-.26 11.093 2.665-.671 1.538-4.788.932-6.63 1.105-1.321.173-5.373.953-6.023 0a2.945 2.945 0 0 1 .108-2.947.672.672 0 1 0-.953-.931A4.485 4.485 0 0 0 15 8.5c1.126 2.167 5.221 1.582 7.648 1.473 2.427-.108 7.995 1.149 8.905-2.925.217 0 .607.152.693.217a16.921 16.921 0 0 1 4.984 10.14.758.758 0 0 0 0 1.517c2.99.411 3.986.346 3.726 2.166a1.321 1.321 0 0 1-.823 1.192 36.95 36.95 0 0 1-8.667 0c-28.448-.368-23.356-.433-26.628-1.148-.325-.347.173-1.3.628-1.517a8.667 8.667 0 0 1 3.445-.672c1.04 0 16.272-.758 25.069-.39a.671.671 0 0 0 0-1.321c-7.649-.629-25.805-.65-26-.629a26.368 26.368 0 0 1 4.333-7.735c1.993-1.516 1.842-1.56 1.842-1.82 0-2.946-8.667 3.164-7.757 9.62v.109c-.697.124-1.38.32-2.037.585A3.684 3.684 0 0 0 2.91 22.8c.498.5 1.13.846 1.82.997 0 .628 0-1.04.541 5.351 1.04 11.527 3.554 12.654 14.019 13 3.123.067 6.247-.13 9.338-.585a.758.758 0 1 0-.173-1.408z"/><path fill-rule="evenodd" clip-rule="evenodd" d="M12.985 27.849c-1.972-.78.368 9.598 2.318 8.774a.758.758 0 0 0 .542-.476c.39-.823-1.82-8.775-2.86-8.298zm17.399 0c-1.04-.477-3.25 7.475-2.882 8.298a.78.78 0 0 0 .498.52c1.994.78 4.334-9.599 2.384-8.819zm-8.884-.694c-.152 0-.369 0-.477.303a17.333 17.333 0 0 0-.282 8.559.867.867 0 0 0 .759.953c1.733 0 .996-7.15.65-9.317-.217-.433-.434-.563-.65-.498z"/></symbol><symbol viewBox="0 0 56 56" fill="currentColor" id="cooperation-cash"><g clip-path="url(#ba)" fill-rule="evenodd" clip-rule="evenodd"><path d="m32.784 38.43-8.33 6.184c-.49.373-1.213 1.12-1.983 1.656-.256.245-.583.4-.934.444a4.2 4.2 0 0 1-2.473-1.284 33.806 33.806 0 0 1-3.383-3.943 280.213 280.213 0 0 1-5.367-7c-1.727-2.333-3.314-4.783-4.83-7.28-3.15-5.087-2.964-3.29-1.75-4.597a26.85 26.85 0 0 1 2.333-2.333 27.564 27.564 0 0 1 2.59-2.03l4.667-3.71 1.54-1.19c.373 0 .77.42 1.19.793a19.591 19.591 0 0 1 1.633 1.727l2.333 2.8 7.654 10.243a.842.842 0 1 0 1.353-1.003L21.654 17.43l-2.217-2.94a16.144 16.144 0 0 0-2.613-2.706 3.453 3.453 0 0 0-2.194-.747 3.219 3.219 0 0 0-1.19.467 13.2 13.2 0 0 0-1.54 1.143L7.234 16.1a43.93 43.93 0 0 0-2.894 2.124 32.56 32.56 0 0 0-2.66 2.473 10.73 10.73 0 0 0-1.493 1.82 1.633 1.633 0 0 0 0 1.307 9.59 9.59 0 0 0 .84 1.703c.653 1.097 1.517 2.17 2.123 3.15 1.517 2.543 3.127 5.063 4.947 7.49 1.82 2.427 3.734 4.667 5.717 7a26.788 26.788 0 0 0 4.666 4.667 5.6 5.6 0 0 0 3.08 1.073 3.22 3.22 0 0 0 1.774-.63 25.657 25.657 0 0 0 2.333-2.053 292.842 292.842 0 0 0 4.667-3.944 127.426 127.426 0 0 1 3.22-2.52.747.747 0 0 0-.84-1.213l.07-.117z"/><path d="M20.86 26.04a5.553 5.553 0 0 0-7-.63 5.716 5.716 0 0 0-2.077 4.06 5.018 5.018 0 0 0 1.727 4.224 5.11 5.11 0 0 0 3.243 1.073 5.787 5.787 0 0 0 3.104-.84.77.77 0 0 0 .28-1.027.815.815 0 0 0 .63-.233 4.27 4.27 0 0 0 .093-6.627zm-1.353 5.39a.817.817 0 0 0 0 1.097h-.28a4.107 4.107 0 0 1-2.334.28 2.963 2.963 0 0 1-1.796-.91 2.66 2.66 0 0 1-.537-2.333 3.103 3.103 0 0 1 1.073-2.077 2.893 2.893 0 0 1 3.617.163 2.334 2.334 0 0 1 .257 3.78zm21.046-16.52a31.596 31.596 0 0 0-.886-3.617 15.838 15.838 0 0 0-1.26-2.87 4.13 4.13 0 0 0-1.89-1.75 3.686 3.686 0 0 0-1.727-.186c-1.005.183-1.996.44-2.963.77a.755.755 0 0 0 .35 1.47 17.46 17.46 0 0 1 2.333-.304c.363-.026.726.047 1.05.21.327.187.467.607.653 1.004.335.804.586 1.64.747 2.496.443 1.307.747 2.637 1.073 3.967.327 1.33.77 2.73 1.144 4.083.373 1.354.583 1.914.583 1.937.187.98 1.447.187 1.54-1.237-.467-2.403-.28-3.57-.747-5.973zM56 38.524a18.062 18.062 0 0 0-1.19-4.947 15.633 15.633 0 0 0-2.613-4.41A19.086 19.086 0 0 0 42.001 23.1c-.84-.396-1.47.21-1.447 1.214-.36 1.306-.92 2.55-1.657 3.686a6.323 6.323 0 0 1-6.44.887 3.15 3.15 0 0 0-1.936.21 3.593 3.593 0 0 0-2.52 3.57 4.666 4.666 0 0 0 1.866 3.757c.304.163.934.466 1.727.793 1.797.747 4.667 1.727 5.763 2.333-.186.467.49 1.704.607 2.054a12.717 12.717 0 0 0 2.497 4.223 4.222 4.222 0 0 0 3.36 1.447.84.84 0 1 0 0-1.68 2.569 2.569 0 0 1-1.914-1.05 10.105 10.105 0 0 1-1.773-3.64c-.117-.42-.163-1.75-.35-2.334a1.377 1.377 0 0 0-.56-.793 13.106 13.106 0 0 0-1.727-.933c-2.03-.934-5.343-2.334-6.113-2.8a1.796 1.796 0 0 1-.49-1.33.957.957 0 0 1 .583-.98 2.33 2.33 0 0 1 .817 0 30.1 30.1 0 0 0 3.43.14 7 7 0 0 0 5.157-3.01 7.608 7.608 0 0 0 1.12-3.99 17.71 17.71 0 0 1 8.05 5.973 16.64 16.64 0 0 1 2.1 3.78c.546 1.36.938 2.776 1.166 4.223a27.16 27.16 0 0 1-.466 10.547.863.863 0 0 0 .583 1.05.84.84 0 0 0 1.027-.583A27.65 27.65 0 0 0 56 38.524z"/><path d="M34.72 23.45c-.676-2.333-1.283-4.666-1.936-7-.42-1.563-.91-3.103-1.353-4.666a18.059 18.059 0 0 0-1.75-4.667 3.383 3.383 0 0 0-2.52-1.657 2.03 2.03 0 0 0-1.074.234 19.55 19.55 0 0 0-1.726 1.166l-5.694 3.617a.746.746 0 1 0 .63 1.33l6.16-2.94c1.05-.537 1.354-2.077 2.334.7.42 1.12.676 2.333.863 3.01.91 2.777 1.797 5.53 2.777 8.283.98 2.753 1.61 3.757 2.66 6.23.466 1.354 1.68 1.68 1.68.677-.49-1.633-.56-2.683-1.05-4.317z"/></g><defs><clipPath id="ba"><path d="M0 0h56v56H0z"/></clipPath></defs></symbol><symbol viewBox="0 0 56 56" fill="currentColor" id="cooperation-shopping-cart"><path fill-rule="evenodd" clip-rule="evenodd" d="M23.514 8.073a10.634 10.634 0 0 0-3.938-2.96 10.417 10.417 0 0 0-9.497.607 10.718 10.718 0 0 0-3.545 3.44c-3.01 4.549-1.46 11.197 1.532 13.149a.556.556 0 0 0 .444.145.552.552 0 0 0 .397-.25.578.578 0 0 0-.228-.834c-2.29-1.695-3.443-7.533-.757-11.179a9.074 9.074 0 0 1 2.988-2.66 8.843 8.843 0 0 1 7.723-.408 9.016 9.016 0 0 1 3.24 2.331c4.417 5.341 1.803 13.426-5.966 14.365a9.66 9.66 0 0 1-4.236-.313.623.623 0 0 0-.485.038.646.646 0 0 0-.317.376.662.662 0 0 0 .036.496.64.64 0 0 0 .37.324c1.539.51 3.165.692 4.776.534a10.036 10.036 0 0 0 5.41-1.75 10.353 10.353 0 0 0 3.654-4.436 10.61 10.61 0 0 0 .763-5.745 10.508 10.508 0 0 0-2.364-5.27z"/><path fill-rule="evenodd" clip-rule="evenodd" d="M12.873 18.74c2.075.108 4.526-5.684 5.367-7.573.28-.287.457-.661.501-1.061a.667.667 0 0 0-.495-.568.659.659 0 0 0-.704.262c-.429.504-4.938 7.087-4.812 7.195-.358 0-2.183-2.123-2.452-2.303-.268-.18-1.055.324-.644.936.77 1.115 2.022 3.04 3.239 3.112z"/><path d="m20.125 30.6 5.157-.327c.084 1.373.311 2.734.677 4.06a1.49 1.49 0 0 1 0 .327c.84 1.283 1.586 1.4 2.333 0 0-.747-.14-1.773-.234-3.173 0-.514 0-1.05-.163-1.564 1.89 0 3.593-.21 6.79-.536.015 2.292.147 4.581.397 6.86a.795.795 0 0 0 .782.929.794.794 0 0 0 .781-.93c.21-2.636.513-4.433.653-7.14l3.897-.373c1.96-.536 1.89-1.166.14-1.866h-3.943a15.213 15.213 0 0 0-.234-3.687c-.42-2.333-1.866-1.633-1.936 0-.397 3.803-.303 2.1-.42 3.733a62.57 62.57 0 0 0-7.303.514c-.28-1.214-.584-2.334-.84-3.314a.7.7 0 0 0-1.377.21V27.8c-2.334.42-4.06.56-5.577.957-1.283.91-2.24 1.703.42 1.843z"/><path d="M52.511 10.557c-.863-1.89-5.763 2.776-7.723 8.47a58.823 58.823 0 0 0-16.567-.234.795.795 0 0 0-.929.782.794.794 0 0 0 .93.782 75.294 75.294 0 0 0 15.96.326 75.578 75.578 0 0 0-1.54 12.157c-.164 1.353-.14 2.917-.28 4.433-1.307 0-4.667.257-5.53.304a132.28 132.28 0 0 1-16.987-1.82c-1.167-.794-1.89-2.567-2.637-6.58a.7.7 0 0 0-1.377.233c.63 4.667 1.004 7.63 3.804 8.843 1.767.525 3.594.822 5.436.887 5.659.879 11.425.8 17.057-.233a3.477 3.477 0 0 1-2.333 2.87 12.297 12.297 0 0 1-4.27.676c-2.917 0-5.88.257-8.82.21a75.14 75.14 0 0 1-9.077-.793.701.701 0 0 0-.443 1.33c1.145.26 2.307.448 3.476.56.794.163.77 0 .327.187a4.665 4.665 0 0 0 .723 8.89c3.64.91 7.654-2.217 6.417-5.787a4.2 4.2 0 0 0-1.843-2.333 4.656 4.656 0 0 0-.77-.35c3.826.326 5.67.28 10.01.396 3.523 0 2.146-.676 1.026 1.61-2.94 5.997 6.417 8.424 8.54 4.9a5.833 5.833 0 0 0-3.103-7.606c4.667-2.847 2.59-9.194 3.943-19.904a19.273 19.273 0 0 1 3.384-9.45 8.914 8.914 0 0 1 2.823-2.683.792.792 0 0 0 .373-1.073zM22.435 50.223c-1.284-.303-2.054-1.026-2.17-1.913-.327-2.497 2.59-3.5 4.666-2.333 2.87 1.913.327 4.946-2.496 4.27v-.024zM42.198 46c5.063 5.25-5.25 5.903-3.617 1.353a2.73 2.73 0 0 1 2.754-2.1c.328.197.62.45.863.747z"/></symbol><symbol viewBox="0 0 56 56" fill="currentColor" id="cooperation-telephone"><path fill-rule="evenodd" clip-rule="evenodd" d="M49.535 22.628a.682.682 0 0 0-.636.391.655.655 0 0 0-.059.253 130.766 130.766 0 0 1-1.496 15.956 30.549 30.549 0 0 1-1.77 7.043 3.786 3.786 0 0 1-1.474 1.953 34.402 34.402 0 0 1-11.354 1.89 96.647 96.647 0 0 1-17.694-.913 4.238 4.238 0 0 1-1.726-.819 4.163 4.163 0 0 1-1.18-1.487 20.14 20.14 0 0 1-2.255-6.233 104.915 104.915 0 0 1-1.517-17.328.596.596 0 0 0-.205-.482.613.613 0 0 0-.51-.141.596.596 0 0 0-.552.373.575.575 0 0 0-.039.23c0 3.552-.273 13.67 1.622 20.568 1.075 3.989 3.055 6.877 5.878 7.417a91.489 91.489 0 0 0 18.178 1.06 35.053 35.053 0 0 0 12.113-2.286 4.805 4.805 0 0 0 2.106-2.223 21.575 21.575 0 0 0 1.727-5.651 122.121 122.121 0 0 0 1.56-18.886.657.657 0 0 0-.205-.499.676.676 0 0 0-.512-.186z"/><path fill-rule="evenodd" clip-rule="evenodd" d="M24.51 24.913a4.264 4.264 0 0 0-1.96-.332c-.758.055-1.511.166-2.253.332a.55.55 0 0 0-.316.146.487.487 0 0 0-.337-.146.618.618 0 0 0-.453.085.603.603 0 0 0-.263.372l-.232.998a18.43 18.43 0 0 0-.506 3.033 2.443 2.443 0 0 0 .674 1.808c.338.272.747.445 1.18.498.631.05 1.265.05 1.896 0a8.549 8.549 0 0 0 1.77 0c.454-.082.873-.3 1.2-.623a5.652 5.652 0 0 0 .906-3.678 3.102 3.102 0 0 0-.355-1.398 3.148 3.148 0 0 0-.951-1.095zm-.8 3.034c-.211 2.472-.907 1.6-1.75 1.6-2.316.145-2.105.54-2.105-.977a16.01 16.01 0 0 1 0-1.932v-.374a.68.68 0 0 0 .358 0 12.538 12.538 0 0 1 2.106-.104c.371.004.734.104 1.053.29v.312c.212.366.355.768.422 1.185h-.085zm14.999 3.49a5.632 5.632 0 0 0 .905-3.677 3.083 3.083 0 0 0-.347-1.412 3.13 3.13 0 0 0-.959-1.102 4.03 4.03 0 0 0-1.959-.354c-.817.068-1.627.2-2.422.395a.742.742 0 0 0-.316.146.571.571 0 0 0-.253-.125.618.618 0 0 0-.452.085.603.603 0 0 0-.264.372l-.232 1.018c-.22.964-.36 1.944-.421 2.93a2.504 2.504 0 0 0 .674 1.828c.345.257.751.421 1.18.478a15.82 15.82 0 0 0 1.895 0c.59.05 1.181.05 1.77 0a2.11 2.11 0 0 0 1.2-.582zm-2.95-1.579c-2.317.166-2 .54-2.106-.977a16.01 16.01 0 0 1 0-1.932v-.374a.79.79 0 0 0 .38 0c.697-.094 1.402-.13 2.106-.104.37.004.734.105 1.053.291v.312a4.12 4.12 0 0 1 0 1.163c.105 2.494-.61 1.621-1.432 1.621zM17.663 44.796a2.493 2.493 0 0 0 .653 1.808c.346.272.762.444 1.201.498.63.05 1.265.05 1.896 0a8.51 8.51 0 0 0 1.748 0c.46-.07.888-.281 1.222-.602a5.651 5.651 0 0 0 .885-3.678 2.98 2.98 0 0 0-.331-1.428 3.025 3.025 0 0 0-.975-1.106 3.902 3.902 0 0 0-1.938-.333c-.824.066-1.642.198-2.444.395a.744.744 0 0 0-.295.125.657.657 0 0 0-.274-.125.598.598 0 0 0-.612.261.575.575 0 0 0-.083.217l-.252.997a16.542 16.542 0 0 0-.4 2.971zm1.728-2.784v-.374a.577.577 0 0 0 .379 0 14.307 14.307 0 0 1 2.106-.124c.378.02.745.127 1.075.311v.291c.063.385.063.778 0 1.164-.211 2.472-.906 1.579-1.749 1.6-2.296.145-1.98.54-2.106-.998.231-.748.273-1.558.295-1.87zm11.997 2.784a2.493 2.493 0 0 0 .653 1.808c.346.272.761.444 1.2.498.632.05 1.266.05 1.896 0a8.52 8.52 0 0 0 1.749 0c.46-.07.887-.281 1.221-.602a5.651 5.651 0 0 0 .885-3.678 2.979 2.979 0 0 0-.33-1.428 3.025 3.025 0 0 0-.976-1.106 3.902 3.902 0 0 0-1.938-.333c-.824.066-1.641.198-2.443.395a.742.742 0 0 0-.295.125.658.658 0 0 0-.274-.125.598.598 0 0 0-.612.261.575.575 0 0 0-.083.217l-.253.997a16.724 16.724 0 0 0-.4 2.971zm1.727-2.784v-.374a.577.577 0 0 0 .38 0 14.307 14.307 0 0 1 2.106-.124c.377.02.745.127 1.074.311v.291c.064.385.064.778 0 1.164-.21 2.472-.906 1.579-1.748 1.6-2.296.145-1.98.54-2.107-.998.232-.748.274-1.558.295-1.87z"/><path d="M46.46 20.405c2.359.124 4.697.27 6.909.498a.68.68 0 0 1 .457.217.66.66 0 0 1 .175.469.683.683 0 0 1-.24.46.701.701 0 0 1-.498.163c-6.867-.374-16.662-.104-23.719-.104h-9.488c-1.661 0-.289-2.181 1.926-2.181h7.689c4.508.166 9.437.208 14.282.395h1.053a20.281 20.281 0 0 0-.443-3.865 10.856 10.856 0 0 0-1.095-2.805 5.219 5.219 0 0 0-2.59-2.347c-1.117-.437-.76-1.33 0-1.33a4.89 4.89 0 0 1 2.231.761 4.805 4.805 0 0 1 1.602 1.711 9.013 9.013 0 0 1 1.559 3.657c.266 1.418.33 2.866.19 4.3z"/><path d="m32.768 13.923-8.932-.166c-.89-.003-.53-1.784 1.276-1.784l7.656-.336h2.76c.5-.024.992-.137 1.453-.332.379-.187.59-.395.59-.665a2.299 2.299 0 0 0-.759-1.309 5.767 5.767 0 0 0-2.106-1.246 17.057 17.057 0 0 0-4.045-.81c-1.074-.105-2.106-.25-3.18-.25H24.3a.613.613 0 0 1-.358-.208.598.598 0 0 1 0-.769.613.613 0 0 1 .358-.207l3.265-.104h3.265c1.528.023 3.049.225 4.529.602a7.49 7.49 0 0 1 2.928 1.559 4.142 4.142 0 0 1 1.474 3.386c.063.769-.653 1.517-1.79 2.078a6.393 6.393 0 0 1-2.254.56c-.983.053-1.967.053-2.95 0z"/><path fill-rule="evenodd" clip-rule="evenodd" d="M19.243 5.423a9.831 9.831 0 0 0-3.65-2.649 9.96 9.96 0 0 0-8.8.544 9.782 9.782 0 0 0-3.285 3.077c-2.79 4.069-1.353 10.016 1.42 11.763a.521.521 0 0 0 .86-.298.504.504 0 0 0-.292-.543c-2.122-1.515-3.19-6.738-.702-10a8.319 8.319 0 0 1 2.77-2.38 8.455 8.455 0 0 1 7.156-.365 8.353 8.353 0 0 1 3.003 2.086c4.092 4.778 1.67 12.01-5.53 12.85a9.259 9.259 0 0 1-3.925-.28.597.597 0 0 0-.45.034.574.574 0 0 0-.26.78.593.593 0 0 0 .343.29c1.427.457 2.933.62 4.426.478a9.529 9.529 0 0 0 5.013-1.565 9.341 9.341 0 0 0 3.386-3.968 9.193 9.193 0 0 0 .707-5.14 9.251 9.251 0 0 0-2.19-4.714z"/><path fill-rule="evenodd" clip-rule="evenodd" d="M9.404 15.357c1.938.1 4.226-5.206 5.011-6.936.262-.263.427-.605.468-.972a.606.606 0 0 0-.462-.52.626.626 0 0 0-.657.24c-.401.462-4.61 6.491-4.494 6.59-.334 0-2.038-1.944-2.288-2.109-.25-.164-.986.297-.601.857.718 1.021 1.887 2.784 3.023 2.85z"/></symbol><symbol viewBox="0 0 58 56" fill="currentColor" id="cooperation-truck"><path fill-rule="evenodd" clip-rule="evenodd" d="M55.998 26.063a9.94 9.94 0 0 0-3.803-3.92 28.815 28.815 0 0 0-7.14-2.333.77.77 0 0 0-.957.49.793.793 0 0 0 .49.98l1.424.536-.91 2.73c-.304.934-.607 1.68-.747 2.334a3.546 3.546 0 0 0 .327 2.333 4.25 4.25 0 0 0 3.126 1.867l1.89.326 3.174.21a.839.839 0 0 0 .91-.816.887.887 0 0 0-.817-.91l-2.683-.747-1.797-.677a4.168 4.168 0 0 1-.91-.42c-.21-.116-.35-.186-.373-.373-.05-.929.006-1.86.163-2.777l.303-2.473a14.557 14.557 0 0 1 3.337 1.727 7.35 7.35 0 0 1 2.52 3.196c.453 1.112.69 2.3.7 3.5a17.362 17.362 0 0 1-.233 3.804 5.717 5.717 0 0 1-2.03 4.013c-.351.179-.73.297-1.12.35a19.7 19.7 0 0 1-2.334 0 .933.933 0 0 0-.536.187 5.365 5.365 0 0 0-4.247-3.57 5.577 5.577 0 0 0-2.963.606c.513-2.986 1.026-5.996 1.586-8.983a215.43 215.43 0 0 1 1.587-7.723 29.2 29.2 0 0 0 .933-5.53 3.033 3.033 0 0 0-.933-2.334 5.787 5.787 0 0 0-2.777-.98c-1.796-.233-3.966 0-5.25 0-2.73-.163-5.483-.21-8.26-.186-4.106 0-8.236.233-12.296.396a.723.723 0 0 0-.677.56.724.724 0 0 0-.467.56c-.676 3.64-1.54 7.42-2.006 11.317-.327 2.567-.49 5.157-.654 7.747 0 .98-.303 2.73-.396 4.153a8.61 8.61 0 0 0 0 2.123 2.475 2.475 0 0 0 1.306 1.68 7.73 7.73 0 0 0 3.5.63h.187a3.92 3.92 0 0 0 0 2.077c.286.9.81 1.706 1.517 2.333 2.333 1.96 8.75 3.15 9.006-2.893a4.37 4.37 0 0 0 0-.747c1.4.187 2.754.397 4.154.467.621.047 1.245.047 1.866 0 .63 0 1.26 0 1.867-.14l3.033-.467c-.034.472.013.945.14 1.4a5.04 5.04 0 0 0 1.494 2.334c2.333 1.96 8.773 3.15 9.03-2.894v-.56c0-.186.116 0 .186 0 .794 0 1.68.234 2.544.234a4.947 4.947 0 0 0 2.03-.42 8.89 8.89 0 0 0 3.966-6.767 14.233 14.233 0 0 0-.98-7.56zM19.318 42.91a2.754 2.754 0 0 1-.886-1.774c-.14-.746.443-1.376 1.05-1.89a2.965 2.965 0 0 1 2.216-.746 2.777 2.777 0 0 1 2.637 2.706c0 2.52-2.59 3.757-5.017 1.704zm15.05-4.9h-1.89c-.624.013-1.247.06-1.866.14-1.47.186-2.87.513-4.34.746a5.39 5.39 0 0 0-4.27-3.29 5.693 5.693 0 0 0-4.48 1.54c-.37.363-.69.77-.957 1.214a.723.723 0 0 0-.63-.397 7.282 7.282 0 0 1-1.867-.42c-.373-.14-.77-.257-.816-.63a6.117 6.117 0 0 1 .14-1.493c.233-1.47.676-3.22.793-4.2.21-2.567.56-5.087.77-7.63.327-3.78.443-7.56.677-11.317 3.92 0 7.91.187 11.876.42 2.707.14 5.39.35 8.05.653 9.17.957 6.767-1.75 5.414 5.6-.467 2.637-.84 5.25-1.19 7.91-.49 3.64-.91 7.28-1.33 10.944a4.137 4.137 0 0 0-.374.513c-1.166-.117-2.426-.257-3.71-.303zm6.44 4.9a2.754 2.754 0 0 1-.886-1.774c-.14-.746.42-1.376 1.05-1.89a2.965 2.965 0 0 1 2.216-.746 2.8 2.8 0 0 1 2.544 2.706c.116 2.52-2.497 3.757-4.924 1.704z"/><path fill-rule="evenodd" clip-rule="evenodd" d="M36.352 21.863a1.704 1.704 0 0 0-.957-.63h-1.563c-.42 0-.492.14-1.215.163.36-.883.64-1.797.84-2.73a3.57 3.57 0 0 0 0-1.75 1.4 1.4 0 0 0-1.33-.816c-.513 0-1.867.163-1.913.163-1.097 0-2.17 0-3.267.14s-2.24-.07-3.313-.07a.748.748 0 0 0-.864.63.677.677 0 0 0 .117.42.677.677 0 0 0-.653.35l-1.307 2.17-1.587 2.684s-.35.583-.466.793a1.306 1.306 0 0 0 .256 1.563c.426.47.976.81 1.587.98.93.233 1.891.312 2.847.234a5.76 5.76 0 0 1 .91 0c-.164.396-.374.793-.42.933a14.305 14.305 0 0 1-.677 1.75c-.63 1.26-1.377 2.497-1.937 3.826l-.21.42a.886.886 0 0 0 .374 1.167c2.483-1.03 4.024-2.247 6.325-3.64a54.136 54.136 0 0 0 5.856-3.873 14.387 14.387 0 0 0 1.774-1.657 4.526 4.526 0 0 0 1.026-1.796 1.495 1.495 0 0 0-.233-1.424zm-3.548 2.777a48.79 48.79 0 0 1-5.227 4.06c-.793.56-1.563 1.05-2.333 1.54.054-.099.116-.192.186-.28a19.29 19.29 0 0 0 1.074-1.913c.372-.844.67-1.718.886-2.614a1.586 1.586 0 0 0-.746-1.587 3.99 3.99 0 0 0-1.75-.583 19.331 19.331 0 0 0-2.59 0h-.607l.957-2.543.933-2.333a.77.77 0 0 0 0-.607 37.43 37.43 0 0 0 3.197.42c1.073.093 2.333.187 3.36.21l.676.163v.117c-.233.607-.536 1.166-.723 1.563-.205.324-.392.659-.56 1.003a1.494 1.494 0 0 0 .163 1.54 3.174 3.174 0 0 0 1.844 1.05c.61.101 1.225.156 1.843.164l-.583.63zm-24.912.775a2.824 2.824 0 0 0-.723-.21 2.845 2.845 0 0 0-.77 0c-.467 0-2.622.088-2.646.858 0 .234-.14.677 2.334 1.517.208.086.429.14.653.163.233.024.467.024.7 0 2.753 0 2.683-.7 2.73-.91.047-.21.056-.53-2.278-1.418zm-2.691-9.082c.461.093.93.14 1.4.14.474.035.95.035 1.423 0 4.34-.233 4.154-.77 4.154-1.213 0-.443-.374-.957-4.037-1.54l-1.377-.163c-.45-.024-.902-.024-1.353 0-4.13.233-4.037.56-4.083.98-.047.42-.07 1.05 3.873 1.796zm2.146 2.8H6.04a19.544 19.544 0 0 0-2.024 0c-2.66.222-3.016.251-3.015.887 0 .397-.514.957 3.64 1.773a8.16 8.16 0 0 0 1.306.117c.435.035.872.035 1.307 0 3.453-.327 3.85-.537 3.873-1.26.024-.723-.326-1.027-3.78-1.517z"/></symbol><symbol fill="currentColor" viewBox="0 0 18 21" id="icon-cart"><path d="M13.586 0A2 2 0 0 1 15 .586L17.414 3A2 2 0 0 1 18 4.414V16a3 3 0 0 1-3 3H3a3 3 0 0 1-3-3V4.414A2 2 0 0 1 .586 3L3 .586A2 2 0 0 1 4.414 0h9.172ZM16 6H2v10a1 1 0 0 0 1 1h12a1 1 0 0 0 1-1V6Zm-4 2a1 1 0 0 1 1 1 4 4 0 1 1-8 0 1 1 0 0 1 2 0 2 2 0 0 0 3.995.15L11 9a1 1 0 0 1 1-1Zm1.586-6H4.414l-2 2h13.172l-2-2Z"/></symbol><symbol viewBox="0 0 67 67" fill="currentColor" id="icon-customer"><g clip-path="url(#ga)"><path d="M43.147 42.5a20.58 20.58 0 0 0-3.562-4.167 21.227 21.227 0 0 0-4.48-2.98c-.52-.25-1.124-.54-1.812-.812a16.159 16.159 0 0 0-1.875-.687.646.646 0 0 0-.812.375.625.625 0 0 0 .375.812c.625.271 1.166.542 1.666.813.545.305 1.074.64 1.584 1A25 25 0 0 1 38 40.02a31.85 31.85 0 0 1 3.167 3.73 25.415 25.415 0 0 1 4.167 8.916.707.707 0 0 0 .833.584.73.73 0 0 0 .563-.834 24.625 24.625 0 0 0-3.584-9.916zM19.209 16.875a22.705 22.705 0 0 1-4.938.354.647.647 0 1 0 0 1.27c2.108.354 4.255.396 6.375.126 1.449-.23 2.854-.68 4.167-1.334l4.354-2.646c1.333-.958 1.333-.791 1.833-.25.792.854 1.771 2.084 2.709 2.98.352.363.728.704 1.125 1.02a.71.71 0 0 0 1.139-.301.71.71 0 0 0-.202-.761c-1.27-1.333-2.916-4-3.896-5.042a2.5 2.5 0 0 0-1.02-.708 1.792 1.792 0 0 0-1.084 0c-.603.284-1.182.619-1.729 1l-4.417 2.604a12.959 12.959 0 0 1-4.416 1.688zm9.105 19.042A5.79 5.79 0 0 1 27.96 38c-.275.38-.685.642-1.146.73-.569.16-1.16.223-1.75.187a6.56 6.56 0 0 1-2.084-.459 3.187 3.187 0 0 1-1.104-.666 2.312 2.312 0 0 1-.646-1.813 3.061 3.061 0 0 1 0-.812.876.876 0 0 0-1.52 0 3.521 3.521 0 0 0-.292 1.354 4 4 0 0 0 .75 2.646c.446.544.999.99 1.625 1.312a66.662 66.662 0 0 0-2.688 6.375 8.978 8.978 0 0 0-.5 2.084c0 .236.05.47.146.687a18.48 18.48 0 0 0 3.459 4.27 4.167 4.167 0 0 0 2.875 1.168c.3-.066.584-.194.833-.375a30.46 30.46 0 0 0 2.73-2.334 7.875 7.875 0 0 0 2.082-2.541 25.52 25.52 0 0 0-.979-5.5 37.372 37.372 0 0 0-1.27-3.896 3.749 3.749 0 0 0 1.354-1.563c.242-.795.327-1.63.25-2.458a7.726 7.726 0 0 0-.188-1.438c-.229-.395-1.562 0-1.541.355.02.354-.021.208-.042.604zm.229 13.229s0 .146-.146.208a33.804 33.804 0 0 1-3.291 2.854 4.354 4.354 0 0 1-.563.334l-.292-.23a10.795 10.795 0 0 1-1.437-1.25 23.087 23.087 0 0 1-1.98-2.312v-.687c.25-1.167.771-2.98 1.313-4.605.313-.958.625-1.854.896-2.541a8.33 8.33 0 0 0 1.896.375 6.478 6.478 0 0 0 2.083-.271c.364 1.17.663 2.36.896 3.562.317 1.504.525 3.03.625 4.563z"/><path d="M40.5 17.875a12.27 12.27 0 0 0-2.874-7.188 11.645 11.645 0 0 0-6.563-3.958.708.708 0 0 0-.755 1.078.73.73 0 0 0 .443.318 10.042 10.042 0 0 1 5.625 3.583 10.584 10.584 0 0 1 2.291 6.25 14.021 14.021 0 0 1-5.187 12.167c-3.146 2.27-7.604 3.083-13.23 1.812-7.333-1.562-10.166-8.937-8.687-15.312 1.375-5.875 6.438-10.938 15.333-10.23a.625.625 0 0 0 .688-.562.646.646 0 0 0-.5-.687c-9.958-1.125-15.77 4.479-17.48 11-1.853 7.104 1.188 15.27 8.876 17.77a20.23 20.23 0 0 0-1.688.646l-1.729.855a31.471 31.471 0 0 0-5.396 3.645 19.978 19.978 0 0 0-3.041 3.188A15.354 15.354 0 0 0 3.27 52.666a.646.646 0 0 0 1.271 0 13.73 13.73 0 0 1 2.75-7.291 29.75 29.75 0 0 1 3.959-4.5 37.163 37.163 0 0 1 4.729-3.854c.5-.334 1-.667 1.541-.959.511-.297 1.04-.561 1.584-.791a.729.729 0 0 0 .416-.938c3.177.701 6.47.701 9.646 0a14.583 14.583 0 0 0 5.688-2.396A15.98 15.98 0 0 0 40.5 17.875z"/><path d="M20.834 23.312a.708.708 0 0 0 1.208-.51.729.729 0 0 0-.208-.51 3.896 3.896 0 0 0-2.855-1.772 3.083 3.083 0 0 0-.875 0 3.207 3.207 0 0 0-1.208.417 5.063 5.063 0 0 0-1.917 2.083.645.645 0 0 0 0 .896.626.626 0 0 0 .896 0 5.686 5.686 0 0 1 1.896-.729A4.916 4.916 0 0 1 18.854 23a2.563 2.563 0 0 1 1.98.312zm11.271-.562c.68.084 1.337.296 1.938.625a.646.646 0 0 0 .895 0 .623.623 0 0 0 0-.896 5.25 5.25 0 0 0-2.083-1.917 3.583 3.583 0 0 0-1.23-.333c-.29-.03-.583-.03-.874 0A3.917 3.917 0 0 0 28 22.187a.748.748 0 0 0 1.167.938 2.604 2.604 0 0 1 1.833-.5c.371 0 .742.042 1.104.125zm-11.27 6.333c.345.31.722.583 1.125.813.501.27 1.032.48 1.583.625.547.126 1.106.19 1.667.187a7.02 7.02 0 0 0 3.292-.937c.298-.18.577-.39.833-.625.32-.328.62-.676.896-1.042a.715.715 0 0 0-1.021-1c-.27.209-.5.417-.792.604a2.663 2.663 0 0 1-.729.375c-.798.229-1.633.3-2.458.209h-1.25a10.782 10.782 0 0 1-1.23-.209 4.537 4.537 0 0 1-1.187-.458c-.417-.23-.812-.48-1.23-.75a.606.606 0 0 0-.874 0 .625.625 0 0 0 0 .875c.458.438.854.896 1.375 1.333z"/></g><defs><clipPath id="ga"><path transform="translate(0 5)" d="M0 0h50v50H0z"/></clipPath></defs></symbol><symbol viewBox="0 0 67 67" fill="currentColor" id="icon-logistic"><path fill-rule="evenodd" clip-rule="evenodd" d="M64.835 30.252a11.537 11.537 0 0 0-4.414-4.55 33.446 33.446 0 0 0-8.288-2.709.894.894 0 0 0-1.11.57.92.92 0 0 0 .569 1.137l1.652.623-1.056 3.168c-.352 1.084-.705 1.95-.867 2.709a4.117 4.117 0 0 0 .38 2.708 4.928 4.928 0 0 0 3.628 2.167l2.194.379 3.683.244a.975.975 0 0 0 1.057-.948 1.029 1.029 0 0 0-.948-1.056l-3.115-.867-2.085-.786a4.849 4.849 0 0 1-1.057-.487c-.243-.136-.406-.217-.433-.434a14.515 14.515 0 0 1 .19-3.222l.352-2.871a16.897 16.897 0 0 1 3.873 2.004 8.532 8.532 0 0 1 2.925 3.71c.525 1.29.801 2.67.812 4.063a20.149 20.149 0 0 1-.27 4.414 6.634 6.634 0 0 1-2.357 4.659 4.063 4.063 0 0 1-1.3.406c-.902.054-1.806.054-2.708 0a1.084 1.084 0 0 0-.623.217 6.228 6.228 0 0 0-4.93-4.144 6.473 6.473 0 0 0-3.439.704c.596-3.467 1.192-6.96 1.842-10.427a250.101 250.101 0 0 1 1.841-8.964c.567-2.1.93-4.25 1.084-6.42a3.523 3.523 0 0 0-1.084-2.708 6.715 6.715 0 0 0-3.222-1.137c-2.086-.271-4.605 0-6.094 0-3.169-.19-6.365-.244-9.588-.217-4.766 0-9.56.271-14.273.46a.84.84 0 0 0-.785.65.84.84 0 0 0-.542.65c-.785 4.226-1.787 8.613-2.329 13.136-.38 2.98-.569 5.986-.758 8.992 0 1.137-.352 3.168-.46 4.82a10.002 10.002 0 0 0 0 2.465 2.872 2.872 0 0 0 1.516 1.95 8.98 8.98 0 0 0 4.062.731h.217a4.55 4.55 0 0 0 0 2.41 6.093 6.093 0 0 0 1.76 2.71c2.709 2.274 10.157 3.655 10.455-3.36a5.078 5.078 0 0 0 0-.866c1.625.217 3.196.46 4.82.542.722.054 1.446.054 2.167 0 .731 0 1.463 0 2.167-.163l3.52-.541c-.04.547.015 1.096.163 1.625a5.85 5.85 0 0 0 1.734 2.708c2.708 2.275 10.183 3.656 10.48-3.358v-.65c0-.217.136 0 .217 0 .921 0 1.95.27 2.953.27a5.744 5.744 0 0 0 2.356-.487 10.319 10.319 0 0 0 4.604-7.854 16.52 16.52 0 0 0-1.138-8.775zM22.261 49.806a3.197 3.197 0 0 1-1.03-2.058c-.162-.867.515-1.598 1.22-2.194a3.44 3.44 0 0 1 2.572-.867 3.223 3.223 0 0 1 3.06 3.142c0 2.925-3.006 4.36-5.822 1.977zm17.468-5.688h-2.194c-.724.015-1.447.07-2.166.163-1.706.217-3.331.596-5.038.867a6.256 6.256 0 0 0-4.956-3.82 6.606 6.606 0 0 0-5.2 1.788c-.428.42-.802.894-1.11 1.409a.84.84 0 0 0-.732-.46 8.451 8.451 0 0 1-2.166-.488c-.434-.163-.894-.298-.948-.731a7.1 7.1 0 0 1 .162-1.734c.271-1.706.786-3.737.921-4.875.244-2.979.65-5.904.894-8.856.38-4.387.514-8.775.785-13.136 4.55 0 9.182.217 13.786.488 3.141.162 6.256.406 9.344.758 10.643 1.11 7.854-2.03 6.283 6.5-.542 3.06-.975 6.094-1.381 9.182-.57 4.225-1.057 8.45-1.544 12.702-.16.187-.305.386-.434.596-1.354-.136-2.816-.298-4.306-.352zm7.475 5.688a3.196 3.196 0 0 1-1.029-2.058c-.162-.867.488-1.598 1.219-2.194a3.44 3.44 0 0 1 2.573-.867 3.25 3.25 0 0 1 2.952 3.142c.135 2.925-2.898 4.36-5.715 1.977z"/><path fill-rule="evenodd" clip-rule="evenodd" d="M41.502 25.668c-.37-.363-.897-.62-1.493-.729h-2.438c-.655 0-.767.162-1.896.19a15.54 15.54 0 0 0 1.31-3.159 3.102 3.102 0 0 0 0-2.024c-.18-.292-.473-.538-.843-.707a2.794 2.794 0 0 0-1.23-.238c-.802 0-2.912.19-2.985.19-1.71 0-3.385 0-5.096.161-1.71.162-3.494-.08-5.168-.08a1.563 1.563 0 0 0-.461.01 1.383 1.383 0 0 0-.42.143 1.028 1.028 0 0 0-.31.253.735.735 0 0 0-.155.322.642.642 0 0 0 .181.486 1.373 1.373 0 0 0-.59.09.971.971 0 0 0-.429.315l-2.038 2.51-2.475 3.104s-.546.675-.727.917a1.18 1.18 0 0 0-.212.955c.072.326.287.627.612.854.664.543 1.522.936 2.475 1.133 1.45.27 2.95.36 4.44.27.472-.027.947-.027 1.42 0-.255.46-.583.918-.656 1.08a14.283 14.283 0 0 1-1.055 2.024c-.983 1.458-2.148 2.888-3.021 4.427l-.328.486a.787.787 0 0 0-.073.76c.108.252.343.463.656.589 3.874-1.192 6.278-2.6 9.866-4.21a91.233 91.233 0 0 0 9.135-4.481c.993-.58 1.918-1.22 2.766-1.916.743-.592 1.291-1.303 1.601-2.079a1.31 1.31 0 0 0 .104-.858 1.553 1.553 0 0 0-.468-.788zm-5.535 3.212a77.669 77.669 0 0 1-8.153 4.696c-1.237.648-2.439 1.215-3.64 1.782a2.33 2.33 0 0 1 .292-.324 21.46 21.46 0 0 0 1.674-2.213 14.976 14.976 0 0 0 1.383-3.023 1.42 1.42 0 0 0-.21-1.048c-.207-.327-.539-.6-.955-.788a7.791 7.791 0 0 0-2.73-.675 40.624 40.624 0 0 0-4.04 0h-.946l1.492-2.941 1.456-2.7a.7.7 0 0 0 .098-.35.7.7 0 0 0-.098-.351c1.675.216 3.312.378 4.987.485 1.674.108 3.64.216 5.24.243l1.056.19v.134c-.364.702-.837 1.35-1.128 1.809-.32.374-.611.762-.874 1.16a1.343 1.343 0 0 0-.208.917c.045.314.205.613.463.865.742.637 1.757 1.066 2.875 1.214.95.117 1.912.18 2.876.19l-.91.728zm-26.968.62c-.268-.119-.55-.2-.84-.244a3.302 3.302 0 0 0-.893 0c-.542 0-3.044.102-3.071.996 0 .27-.162.785 2.708 1.76.243.1.498.164.759.19.27.027.542.027.812 0 3.196 0 3.115-.813 3.169-1.056.054-.244.064-.617-2.644-1.646zM5.874 18.958c.535.108 1.08.162 1.625.163.55.04 1.102.04 1.652 0 5.037-.271 4.82-.894 4.82-1.409 0-.514-.432-1.11-4.685-1.787l-1.598-.19a15.186 15.186 0 0 0-1.57 0c-4.794.271-4.686.65-4.74 1.138-.054.487-.081 1.218 4.496 2.085zm2.493 3.25H6.849c-.487-.04-1.863-.04-2.35 0-3.086.258-3.5.292-3.499 1.03 0 .46-.596 1.11 4.225 2.058.501.085 1.008.13 1.517.135.504.04 1.012.04 1.516 0 4.009-.379 4.47-.623 4.496-1.462.027-.84-.379-1.192-4.387-1.76z"/></symbol><symbol viewBox="0 0 67 67" fill="currentColor" id="icon-partner"><g clip-path="url(#ia)" fill-rule="evenodd" clip-rule="evenodd"><path d="M4.813 30.333c2.083 1.583 3.563.104 1.958-1.646l-.166-.167a11.43 11.43 0 0 0-1.084-.916 15.099 15.099 0 0 0-1.229-.792 17.852 17.852 0 0 0-3.166-1.396.778.778 0 1 0-.688 1.396c.896.604 1.646 1.375 2.5 2.083.548.487 1.125.94 1.73 1.354l.145.084zM25 41.687a.774.774 0 1 0-1.458.52 2.333 2.333 0 0 1-1.854 2.73 2.292 2.292 0 0 1-1.063-.23 2.896 2.896 0 0 1-.958-.604 7.212 7.212 0 0 1-.52-.604 1.605 1.605 0 0 1-.21-.479 1.708 1.708 0 0 1 .167-1.167c.146-.145.25-.291.375-.437a2.23 2.23 0 0 1 .646-.604 2.812 2.812 0 0 1 3.084 0 .687.687 0 0 0 .958-.98 4.166 4.166 0 0 0-4.02-1.124 3.543 3.543 0 0 0-.147-.959.791.791 0 0 0-1.452-.08.77.77 0 0 0-.027.601 1.75 1.75 0 0 1 0 1.083c-.642.368-1.174.9-1.542 1.542a1.174 1.174 0 0 1-.25 0 2.083 2.083 0 0 1-1.041-.229 2.886 2.886 0 0 1-1.104-.52 3.665 3.665 0 0 1-.5-.605 1.271 1.271 0 0 1-.23-.48A2.083 2.083 0 0 1 15 36.875a2.77 2.77 0 0 1 3.084 0 .693.693 0 0 0 .958-1 3.935 3.935 0 0 0-3.333-1.208 3.21 3.21 0 0 0-.25-1.708.775.775 0 0 0-1.459.52 2.082 2.082 0 0 1-.396 1.771c-.405.216-.777.49-1.104.813-.12.06-.245.11-.375.146-.36 0-.715-.078-1.041-.23a2.896 2.896 0 0 1-.959-.604 4.71 4.71 0 0 1-.52-.604 1.167 1.167 0 0 1-.209-.5 1.958 1.958 0 0 1 1.188-2.187 2.813 2.813 0 0 1 3.083 0 .688.688 0 0 0 .917-.98 4.834 4.834 0 0 0-4.917-.916 3.812 3.812 0 0 0-2.083 1.646c-.6.839-.867 1.87-.75 2.895.073.44.221.862.437 1.25.296.464.645.89 1.042 1.271a5.083 5.083 0 0 0 2.104 1.084c.318.097.647.153.98.166a4.16 4.16 0 0 0 0 1.021c.076.434.232.85.457 1.23.282.479.633.914 1.042 1.291a5.27 5.27 0 0 0 2.083 1.083 4.875 4.875 0 0 0 1.521.167c.01.055.01.112 0 .167a3.5 3.5 0 0 0 .459 1.25c.282.473.633.9 1.041 1.27a4.875 4.875 0 0 0 2.084 1.084 4.28 4.28 0 0 0 2.333 0 4.376 4.376 0 0 0 2.604-2.188 3.77 3.77 0 0 0-.02-3.187zm-2.499-23.458c.283.054.562.13.833.229 1.438.583 2.23-.938 1.188-1.604a6.126 6.126 0 0 0-1.667-.688 11.024 11.024 0 0 0-3.958-.125c-1.162.079-2.33.023-3.48-.166l-4.27-1.604a15.849 15.849 0 0 0-3.063-.938.646.646 0 0 0-.583.75.667.667 0 0 0 .604.604s.25.125.48.25c1.291.667 4.02 2.375 5.874 3.313a6.25 6.25 0 0 0 2.48.791l2.354-.479a11.062 11.062 0 0 1 3.208-.333zm27.333-5.167a.792.792 0 0 0-1.084-.27l-3.708 2.083c-.665.38-1.362.701-2.084.958-.423.136-.867.2-1.312.188a16.2 16.2 0 0 1-2.083-.167 14.118 14.118 0 0 1-1.813-.438c-.875-.291-1.708-.666-2.583-.916a6.813 6.813 0 0 0-2.084-.292 5.5 5.5 0 0 0-1.645.333 8.646 8.646 0 0 0-2.084 1.021c-.52.313-5.312 4.75-5.77 5.23a12.751 12.751 0 0 0-2.084 2.562c-.4.708-.629 1.5-.666 2.313a3.144 3.144 0 0 0 .958 2.583 4.168 4.168 0 0 0 3.52.791 6.813 6.813 0 0 0 2.938-1.375 19.934 19.934 0 0 0 2.375-2.229c1.061.446 2.186.72 3.334.813.54.062 1.085.062 1.624 0a6.938 6.938 0 0 0 1.563-.417 9.355 9.355 0 0 0 3.063-2.083.667.667 0 0 0 .166-.959.687.687 0 0 0-.958-.166c-.959.406-1.968.68-3 .812l-1.813.313c-.416 0-.791.146-1.208.166-.652.053-1.307.053-1.958 0a.437.437 0 0 0 0-.229.666.666 0 0 0-.959 0 26.58 26.58 0 0 1-3.166 2.688 5.25 5.25 0 0 1-2.25.875 2.48 2.48 0 0 1-1.625-.292 1.042 1.042 0 0 1-.521-1.125c.087-.477.272-.93.541-1.333.52-.727 1.12-1.391 1.792-1.98 1.021-1.02 2.084-2.083 3.167-3.104a17.167 17.167 0 0 1 2.187-1.708A8.521 8.521 0 0 1 31.875 17c.82-.36 1.74-.427 2.604-.188.855.188 1.667.5 2.521.75a16.2 16.2 0 0 0 2.271.396c.75.042 1.5.042 2.25 0a6.25 6.25 0 0 0 1.958-.375 15.283 15.283 0 0 0 2.375-1.25l3.605-2.27a.77.77 0 0 0 .374-1z"/><path d="M38.688 34.167a8.166 8.166 0 0 0-.459-1.063 15.95 15.95 0 0 0-2.083-2.812l-2.23-2.542a.687.687 0 0 0-1.103.813l1.646 2.958c.541.865 1.015 1.77 1.416 2.708.254.526.423 1.089.5 1.667a2.605 2.605 0 0 1-.52 2.083 2.563 2.563 0 0 1-1.084.73 2.434 2.434 0 0 0-.104-.23 15.866 15.866 0 0 0-1.458-1.854l-3-3.396a.78.78 0 0 0-1.292.875l2.333 3.98c.397.557.766 1.134 1.104 1.729.18.307.32.636.417.979a1.208 1.208 0 0 1-.292 1.437 2.084 2.084 0 0 1-1.041.459V42.5a7.127 7.127 0 0 0-.813-1.333c-.5-.604-.979-1.188-1.52-1.75-.542-.563-1.042-1.104-1.605-1.625a.688.688 0 0 0-.958-.104.708.708 0 0 0-.104.979c.333.5.625.979.916 1.5.292.52.813 1.52 1.188 2.312l.583 1.417-.291.5a1.938 1.938 0 0 1-1.271.875 2.084 2.084 0 0 1-1.5-.167.771.771 0 0 0-1.063.25.791.791 0 0 0 .25 1.084c.67.58 1.53.892 2.417.875a4.166 4.166 0 0 0 3.104-1.271 4.17 4.17 0 0 0 .75-1.063 2.96 2.96 0 0 0 .125-.625 4.167 4.167 0 0 0 2.083-.395 3.396 3.396 0 0 0 1.688-3.542 4.46 4.46 0 0 0 2.083-1 4.793 4.793 0 0 0 1.563-3.396 7.65 7.65 0 0 0-.375-1.854zM50 31.605a.771.771 0 0 0-.937-.563c-1.271.146-2.5.188-3.73.396-.836.134-1.659.344-2.458.625-.919.346-1.793.801-2.604 1.354-1.708.709-.688 2.084.917 1.625l1.937-.396 1.458-.354 1.438-.458a76.008 76.008 0 0 0 3.417-1.292.771.771 0 0 0 .562-.937z"/></g><defs><clipPath id="ia"><path transform="translate(0 5)" d="M0 0h50v50H0z"/></clipPath></defs></symbol><symbol viewBox="0 0 67 67" fill="currentColor" id="icon-quality"><g clip-path="url(#ja)" fill-rule="evenodd" clip-rule="evenodd"><path d="M7.729 23.187a.708.708 0 0 0 1.416 0 27.584 27.584 0 0 0-.104-10.062c10.417-4.167 30.063-2.084 33.792.708.06.211.101.428.125.646.604 8.979-.104 10.041 1 10.041a.625.625 0 0 0 .625-.625c.167-9.916.458-10.562-.104-11.187-3.334-3.52-13.167-4.27-18.042-4.167-9.562-.062-18.312 2.709-18.625 3.875a16.52 16.52 0 0 0-.562 4.417c-.03 2.128.13 4.255.479 6.354zm33.438 16.626a.708.708 0 0 0-1.042-.959c-2.854 2.938-10.896 8.667-13.75 9a26.769 26.769 0 0 1-5.312-3.062c-8.75-6.042-8.521-7.146-9.271-6.25a.625.625 0 0 0 0 .875c2.5 2.395 11.48 11.354 14.875 10.895a20.373 20.373 0 0 0 6.562-3.395 49.226 49.226 0 0 0 7.938-7.105z"/><path d="M5.824 37.112c1.209 1.916 3.855 0 4.938-.334 4.167-1.166 9.25-3.354 13.562-2.958 2.438.23 2.084 1.083 2.48 2.083a5.396 5.396 0 0 0 5.27 2.563c2.25 0 6.792-1.459 11.042-1.792 1.146 0 2.27-.396 3.396-.562 2.083-.313 1.812.166 2.98 0 1.916 0 1.457-2.521 1.457-3.459 0-3.666 1.146-8.208-4.354-8.333a70.515 70.515 0 0 0-9.604 1.312c-3.437.875-3.917 1.105-4.437.73-.521-.375-1.084-2.084-2.792-2.98a18.75 18.75 0 0 0-13.25-.333 38.73 38.73 0 0 0-8.646 3.48c-2.75 1.645-4.167 2.228-3.812 3.083a23.5 23.5 0 0 0 1.77 7.5zm23.063-11.959c1.5.771 1.48 3.75 4.77 3.48 1.334 0 2.563-.605 3.772-.813 13-1.875 11.125-2.083 11.104 4.854 0 .125-.104.542-.146.917a24.459 24.459 0 0 0-5.48.646c-7.208.604-10.79 3.041-13.478 1.437-1.042-.625-.813-1.25-1.25-2.083-2.938-5.354-20.313 2.833-20.959 2.687a20.25 20.25 0 0 1-1.729-6.812c.208-.125 14.083-9.063 23.396-4.313zM14.583 44.938c-1.104 1.02-4.354 4.333-6.146 4.437a1.458 1.458 0 0 1 0-.333c2.271-4.459 1.896-3.417 2.084-3.959a1.333 1.333 0 0 0-1.605-1.812 11.5 11.5 0 0 1-4.687 1.146 12.834 12.834 0 0 0 4.542-5.021.625.625 0 0 0-1.084-.625 11.168 11.168 0 0 1-2.52 2.833 34.305 34.305 0 0 1-3.75 2.23c-1.355 1.083.666 3.687 5.687 2.603-.833 1.855-1.938 4.396.146 4.917 2.5.604 4.646-1.75 6.541-3.479.875-.792 2.667-2.375 1.917-3.104a1.04 1.04 0 0 0-1.125.166zM50.584 44c-.188-.146-.917-.542-.542-.292a11.71 11.71 0 0 1-5.791-4.75.624.624 0 1 0-1.084.625 12.73 12.73 0 0 0 4.459 5 11.605 11.605 0 0 1-4.605-1.104 1.312 1.312 0 0 0-1.604.792c-.291.916.292 1.583.709 2.229l1.416 2.73c.334.75-.708.312-1.333 0-2.521-1.334-3.334-3.167-4.167-2.21a.729.729 0 0 0 0 1 21.022 21.022 0 0 0 3.854 3.105c1.355.667 3.188.77 3.73-.646a6.584 6.584 0 0 0-.875-3.812c5.104 1.125 7.229-1.521 5.833-2.667z"/></g><defs><clipPath id="ja"><path transform="translate(1 5)" d="M0 0h50v50H0z"/></clipPath></defs></symbol><symbol fill="currentColor" viewBox="0 0 18 21" id="test"><path d="M13.586 0A2 2 0 0 1 15 .586L17.414 3A2 2 0 0 1 18 4.414V16a3 3 0 0 1-3 3H3a3 3 0 0 1-3-3V4.414A2 2 0 0 1 .586 3L3 .586A2 2 0 0 1 4.414 0h9.172ZM16 6H2v10a1 1 0 0 0 1 1h12a1 1 0 0 0 1-1V6Zm-4 2a1 1 0 0 1 1 1 4 4 0 1 1-8 0 1 1 0 0 1 2 0 2 2 0 0 0 3.995.15L11 9a1 1 0 0 1 1-1Zm1.586-6H4.414l-2 2h13.172l-2-2Z"/></symbol></svg>