<svg xmlns="http://www.w3.org/2000/svg" xmlns:xlink="http://www.w3.org/1999/xlink"><symbol fill="currentColor" viewBox="0 0 48 48" id="airplane"><path d="M43.254 4.727c1.405 1.405 1.405 3.668 0 5.049l-9.26 9.264 5.047 21.885-3.356 3.382-9.236-17.694-9.284 9.287.857 5.883-2.547 2.524-4.19-7.573-7.593-4.215 2.524-2.572 5.95.88 9.213-9.215L3.692 12.3l3.38-3.358 21.876 5.05 9.26-9.265c1.333-1.38 3.713-1.38 5.046 0Z"/></symbol><symbol fill="currentColor" viewBox="0 0 48 48" id="best"><path d="M12.132 21.692v20.77H9.276a3.718 3.718 0 0 1-3.737-3.716V25.431a3.752 3.752 0 0 1 3.737-3.739h2.856Zm26.84-3.461h-11.03v-8.077c0-2.538-2.076-4.615-4.591-4.615h-.208c-.923 0-1.753.553-2.123 1.407l-6.298 14.746v20.77h21.227c1.684 0 3.114-1.2 3.414-2.862l3.046-17.308a3.457 3.457 0 0 0-3.415-4.061h-.023Z"/></symbol><symbol fill="currentColor" viewBox="0 0 48 48" id="card"><path d="M10.945 9.23a7.253 7.253 0 0 0-7.253 7.253v1.45h40.616v-1.45a7.253 7.253 0 0 0-7.253-7.253h-26.11Zm33.363 11.605H3.692v10.154a7.253 7.253 0 0 0 7.253 7.253h26.11a7.253 7.253 0 0 0 7.253-7.253V20.835Zm-13.055 8.703h5.802a1.45 1.45 0 1 1 0 2.901h-5.802a1.45 1.45 0 0 1 0-2.9Z"/></symbol><symbol fill="currentColor" viewBox="0 0 26 26" id="cart"><path d="M19.5 16.25H7.583L5.958 6.5H22.75l-3.25 9.75Z"/><path d="M3.25 3.25h2.167l.541 3.25m0 0 1.625 9.75H19.5l3.25-9.75H5.958ZM8.667 22.75a1.083 1.083 0 1 0 0-2.167 1.083 1.083 0 0 0 0 2.167ZM18.417 22.75a1.083 1.083 0 1 0 0-2.167 1.083 1.083 0 0 0 0 2.167Z" stroke="#000" stroke-width="2" stroke-linecap="round" stroke-linejoin="round"/></symbol><symbol fill="currentColor" viewBox="0 0 36 36" id="catalog"><rect x="10" y="10" width="6" height="6" rx="1"/><rect x="20" y="10" width="6" height="6" rx="1"/><rect x="10" y="21" width="6" height="6" rx="1"/><rect x="20" y="21" width="6" height="6" rx="1"/></symbol><symbol fill="currentColor" viewBox="0 0 14 14" id="catalog-wide"><rect width="4" height="4" rx="1"/><rect x="10" width="4" height="4" rx="1"/><rect y="10" width="4" height="4" rx="1"/><rect x="10" y="10" width="4" height="4" rx="1"/></symbol><symbol fill="currentColor" viewBox="0 0 76 26" id="dev-logo"><g clip-path="url(#ga)"><path d="M13.23 8.308v9.242h-1.267V8.308h1.268Zm6.18 0v9.242h-1.247V8.308h1.247Zm3.074 0V9.31h-7.389V8.308h7.39Zm12.925 0v9.242h-1.274l-4.814-7.129v7.129h-1.268V8.308h1.268l4.834 7.147V8.308h1.254Zm5.55 9.369c-.495 0-.944-.08-1.347-.241a3.055 3.055 0 0 1-1.03-.692 3.06 3.06 0 0 1-.658-1.054 3.747 3.747 0 0 1-.23-1.333v-.267c0-.558.086-1.056.256-1.491.171-.44.403-.813.697-1.117a2.982 2.982 0 0 1 2.154-.927c.508 0 .946.084 1.314.254.372.169.676.406.913.71.236.301.411.656.525 1.067.114.406.17.85.17 1.333v.527h-5.306v-.959h4.092v-.089a2.842 2.842 0 0 0-.197-.888 1.6 1.6 0 0 0-.526-.711c-.24-.186-.569-.28-.985-.28a1.7 1.7 0 0 0-.762.172 1.61 1.61 0 0 0-.598.495c-.166.22-.295.489-.387.806a3.958 3.958 0 0 0-.138 1.098v.267c0 .326.046.633.138.92.096.284.234.534.414.75.184.215.405.384.663.507.263.123.56.184.893.184.43 0 .793-.084 1.09-.254.298-.169.559-.395.782-.679l.736.565a3.321 3.321 0 0 1-.585.641 2.812 2.812 0 0 1-.873.495c-.342.127-.747.19-1.215.19Zm5.937-5.916v5.789H45.68v-6.868h1.182l.033 1.079Zm2.22-1.117-.007 1.091a1.807 1.807 0 0 0-.289-.038 3.166 3.166 0 0 0-.302-.012c-.28 0-.528.042-.742.127a1.543 1.543 0 0 0-.545.355 1.704 1.704 0 0 0-.355.546 2.554 2.554 0 0 0-.164.685l-.342.19c0-.414.042-.803.125-1.167.088-.364.221-.686.4-.965a1.93 1.93 0 0 1 .684-.66c.28-.16.613-.241.998-.241.088 0 .188.01.302.031a.922.922 0 0 1 .237.058Zm6.009 5.573V7.8h1.221v9.75H55.23l-.105-1.333Zm-4.782-2.025v-.133c0-.525.066-1.001.197-1.429.136-.431.327-.802.572-1.11.25-.31.545-.546.886-.711.346-.17.732-.254 1.156-.254.447 0 .837.076 1.17.228.337.148.621.366.853.654.237.284.423.626.559 1.028.135.402.23.857.282 1.365v.584a5.809 5.809 0 0 1-.282 1.358 3.171 3.171 0 0 1-.559 1.029 2.327 2.327 0 0 1-.853.654c-.338.148-.732.222-1.183.222-.416 0-.797-.087-1.142-.26a2.677 2.677 0 0 1-.887-.73 3.512 3.512 0 0 1-.572-1.105 4.71 4.71 0 0 1-.197-1.39Zm1.222-.133v.133c0 .343.035.664.105.965.075.3.188.565.342.793.153.229.348.409.584.54.237.127.519.19.847.19.403 0 .734-.082.992-.247.263-.166.473-.383.63-.654.158-.271.281-.565.369-.883v-1.53a3.315 3.315 0 0 0-.23-.672 2.061 2.061 0 0 0-.381-.584 1.642 1.642 0 0 0-.572-.413 1.906 1.906 0 0 0-.794-.152c-.333 0-.62.068-.86.203a1.653 1.653 0 0 0-.585.546 2.476 2.476 0 0 0-.342.8c-.07.3-.105.622-.105.965Zm11.349 1.669c0-.17-.04-.326-.118-.47-.075-.148-.23-.281-.467-.4-.232-.122-.582-.228-1.05-.317a8.536 8.536 0 0 1-1.071-.286 3.287 3.287 0 0 1-.808-.4 1.697 1.697 0 0 1-.506-.552 1.497 1.497 0 0 1-.177-.743c0-.27.061-.526.184-.768.127-.24.304-.454.532-.64.232-.187.51-.333.834-.439a3.48 3.48 0 0 1 1.084-.158c.569 0 1.055.097 1.458.292.403.194.712.455.926.78.215.322.322.68.322 1.073h-1.215c0-.19-.06-.374-.178-.552a1.292 1.292 0 0 0-.505-.45c-.22-.12-.489-.178-.808-.178-.337 0-.611.05-.821.152a1.044 1.044 0 0 0-.453.374.92.92 0 0 0-.073.826.763.763 0 0 0 .25.273c.118.08.285.156.5.228a7.9 7.9 0 0 0 .82.216c.583.127 1.062.28 1.439.457.376.178.656.396.84.654.184.258.276.571.276.94 0 .3-.066.575-.197.824-.127.25-.313.466-.558.648-.241.178-.53.317-.867.419a4 4 0 0 1-1.123.146c-.627 0-1.156-.108-1.59-.324-.433-.216-.762-.495-.985-.838a1.956 1.956 0 0 1-.335-1.085h1.222c.017.321.114.577.289.768.175.186.39.32.643.4.254.076.506.114.756.114.333 0 .61-.042.834-.127.227-.085.4-.201.519-.35a.791.791 0 0 0 .177-.507Z"/><path fill-rule="evenodd" clip-rule="evenodd" d="M76 0H0v26h76V0Zm-1.5 1.5h-73v23h73v-23Z"/></g><defs><clipPath id="ga"><path d="M0 0h76v26H0z"/></clipPath></defs></symbol><symbol fill="currentColor" viewBox="0 0 36 36" id="email"><path d="M10.666 11.284a1 1 0 0 0-1.082 1.682l1.082-1.682ZM18 17.187l-.54.842a1 1 0 0 0 1.055.016L18 17.187Zm8.952-4.205a1 1 0 0 0-1.029-1.714l1.029 1.714ZM10 22.054V13.25H8v8.804h2ZM11.25 12h13.5v-2h-13.5v2ZM26 13.25v8.804h2V13.25h-2Zm0 8.804c0 .69-.56 1.25-1.25 1.25v2a3.25 3.25 0 0 0 3.25-3.25h-2ZM24.75 12c.69 0 1.25.56 1.25 1.25h2A3.25 3.25 0 0 0 24.75 10v2ZM10 13.25c0-.69.56-1.25 1.25-1.25v-2A3.25 3.25 0 0 0 8 13.25h2Zm1.25 10.054c-.69 0-1.25-.56-1.25-1.25H8a3.25 3.25 0 0 0 3.25 3.25v-2ZM9.584 12.966l7.875 5.063 1.082-1.683-7.875-5.062-1.082 1.682Zm8.93 5.079 8.438-5.063-1.029-1.714-8.438 5.062 1.03 1.715Zm6.236 5.26h-13.5v2h13.5v-2Z"/></symbol><symbol fill="currentColor" viewBox="0 0 20 20" id="geo"><path d="M10 4.688a3.438 3.438 0 1 0 0 6.875 3.438 3.438 0 0 0 0-6.876Zm0 5a1.563 1.563 0 1 1 0-3.126 1.563 1.563 0 0 1 0 3.125Zm0-8.75a7.195 7.195 0 0 0-7.188 7.187c0 6.044 6.379 10.578 6.65 10.768a.938.938 0 0 0 1.075 0 20.233 20.233 0 0 0 3.296-3.047c2.194-2.52 3.354-5.192 3.354-7.721A7.195 7.195 0 0 0 10 .937Zm2.445 13.649A19.481 19.481 0 0 1 10 16.945a19.483 19.483 0 0 1-2.445-2.358c-1.305-1.511-2.867-3.86-2.867-6.462a5.312 5.312 0 1 1 10.625 0c0 2.602-1.563 4.95-2.868 6.462Z"/></symbol><symbol fill="currentColor" viewBox="0 0 48 48" id="guarantee"><path d="M37.616 18.461c0 1.819-.356 3.62-1.05 5.3a13.85 13.85 0 0 1-2.989 4.491 13.787 13.787 0 0 1-4.473 3.002 13.741 13.741 0 0 1-15.028-3.002 13.85 13.85 0 0 1-2.99-4.492 13.895 13.895 0 0 1 2.99-15.09 13.761 13.761 0 0 1 9.75-4.055c3.658 0 7.165 1.459 9.752 4.056a13.875 13.875 0 0 1 4.038 9.79Z"/><path d="m14.16 32.19-.746 2.735c-1.237 4.533-1.856 6.8-1.03 8.04.289.435.677.783 1.128 1.015 1.284.657 3.27-.382 7.24-2.459 1.32-.692 1.981-1.036 2.683-1.111a3.67 3.67 0 0 1 .784 0c.701.075 1.361.42 2.683 1.111 3.97 2.077 5.955 3.116 7.24 2.459.45-.231.839-.58 1.128-1.015.827-1.24.207-3.507-1.03-8.04l-.747-2.734a16.621 16.621 0 0 1-9.666 3.084 16.62 16.62 0 0 1-9.667-3.084Z"/></symbol><symbol fill="currentColor" viewBox="0 0 36 36" id="phone"><path d="m21 21.793 1.55-1.551a1.514 1.514 0 0 1 1.62-.332l1.889.754A1.51 1.51 0 0 1 27 22.05v3.46A1.503 1.503 0 0 1 25.422 27C12.185 26.173 9.514 14.96 9.01 10.668A1.503 1.503 0 0 1 10.511 9h3.342a1.494 1.494 0 0 1 1.384.941l.754 1.89a1.496 1.496 0 0 1-.325 1.62l-1.55 1.55s.893 6.044 6.885 6.792Z"/></symbol><symbol fill="currentColor" viewBox="0 0 18 18" id="search"><path fill-rule="evenodd" clip-rule="evenodd" d="M7.956 1.8a6.156 6.156 0 1 0 0 12.312 6.156 6.156 0 0 0 0-12.312Zm6.157 11.195a7.956 7.956 0 1 0-1.29 1.256l3.163 3.457a.9.9 0 1 0 1.328-1.216l-3.2-3.497Z"/></symbol><symbol fill="currentColor" viewBox="0 0 38 37" id="star"><path d="M16.263 2.098c1.06-2.362 4.414-2.362 5.474 0l3.217 7.168a3 3 0 0 0 2.415 1.754l7.81.845c2.575.278 3.611 3.468 1.692 5.206l-5.823 5.275a3 3 0 0 0-.922 2.838l1.61 7.69c.531 2.534-2.182 4.505-4.428 3.218l-6.816-3.908a3 3 0 0 0-2.984 0l-6.816 3.908c-2.246 1.288-4.96-.684-4.429-3.218l1.61-7.69a3 3 0 0 0-.921-2.838L1.129 17.07c-1.92-1.738-.883-4.928 1.691-5.206l7.811-.845a3 3 0 0 0 2.415-1.754l3.217-7.168Z"/></symbol><symbol fill="currentColor" viewBox="0 0 27 27" id="telegram"><path d="M23.299 4.111S25.484 3.26 25.3 5.33c-.06.852-.606 3.835-1.031 7.06l-1.457 9.558s-.122 1.4-1.214 1.643c-1.093.243-2.732-.852-3.036-1.096-.243-.182-4.553-2.922-6.07-4.26-.425-.366-.912-1.096.06-1.949l6.375-6.087c.728-.731 1.457-2.435-1.579-.365L8.85 15.615s-.971.61-2.792.061L2.11 14.46s-1.457-.913 1.032-1.826C9.214 9.772 16.682 6.85 23.298 4.11"/></symbol><symbol fill="currentColor" viewBox="0 0 22 22" id="tick"><g clip-path="url(#oa)"><path d="M6.766 19.26c.449.449 1.173.449 1.622 0l7.618-7.618a.913.913 0 0 0 0-1.293L8.388 2.732a1.145 1.145 0 0 0-1.622 0c-.45.45-.45 1.173 0 1.622L13.402 11l-6.646 6.646c-.44.44-.44 1.173.01 1.613Z"/></g><defs><clipPath id="oa"><path d="M0 0h22v22H0z"/></clipPath></defs></symbol><symbol fill="currentColor" viewBox="0 0 7 4" id="triangle"><path d="m3.573 0 3.093 3.75H.48L3.573 0Z"/></symbol><symbol fill="currentColor" viewBox="0 0 27 27" id="whatsapp"><mask id="qa" maskUnits="userSpaceOnUse" x="2" y="2" width="23" height="23"><path d="M2.813 2.813h21.375v21.375H2.813V2.813Z"/></mask><g mask="url(#qa)"><path d="m15.514 2.97-.641-.09a10.271 10.271 0 0 0-10.035 4.5 10.237 10.237 0 0 0-.8 10.867 1.463 1.463 0 0 1 .113 1.125c-.461 1.587-.888 3.184-1.338 4.86l.562-.168c1.519-.405 3.037-.81 4.556-1.182.32-.066.654-.035.956.09A10.632 10.632 0 1 0 15.514 2.97Zm2.835 14.76a3.104 3.104 0 0 1-3.06.63 10.339 10.339 0 0 1-5.771-4.174 9.575 9.575 0 0 1-1.25-2.34 2.801 2.801 0 0 1 .62-2.835 1.384 1.384 0 0 1 1.485-.472c.225.056.382.382.585.63.164.464.356.919.573 1.36a1.057 1.057 0 0 1-.225 1.475c-.506.45-.427.82-.067 1.327a7.55 7.55 0 0 0 3.172 2.61c.36.158.63.191.867-.18.1-.146.236-.27.348-.405.653-.821.45-.81 1.485-.36.33.138.65.3.956.484.304.18.765.371.833.641a1.631 1.631 0 0 1-.551 1.609Z"/></g></symbol></svg>