<svg xmlns="http://www.w3.org/2000/svg" xmlns:xlink="http://www.w3.org/1999/xlink"><symbol fill="currentColor" viewBox="0 0 48 48" id="best"><path d="M12.132 21.692v20.77H9.276a3.718 3.718 0 0 1-3.737-3.716V25.431a3.752 3.752 0 0 1 3.737-3.739h2.856Zm26.84-3.461h-11.03v-8.077c0-2.538-2.076-4.615-4.591-4.615h-.208c-.923 0-1.753.553-2.123 1.407l-6.298 14.746v20.77h21.227c1.684 0 3.114-1.2 3.414-2.862l3.046-17.308a3.457 3.457 0 0 0-3.415-4.061h-.023Z"/></symbol><symbol viewBox="0 0 67 67" fill="currentColor" id="icon-customer"><g clip-path="url(#ba)"><path d="M43.147 42.5a20.58 20.58 0 0 0-3.562-4.167 21.227 21.227 0 0 0-4.48-2.98c-.52-.25-1.124-.54-1.812-.812a16.159 16.159 0 0 0-1.875-.687.646.646 0 0 0-.812.375.625.625 0 0 0 .375.812c.625.271 1.166.542 1.666.813.545.305 1.074.64 1.584 1A25 25 0 0 1 38 40.02a31.85 31.85 0 0 1 3.167 3.73 25.415 25.415 0 0 1 4.167 8.916.707.707 0 0 0 .833.584.73.73 0 0 0 .563-.834 24.625 24.625 0 0 0-3.584-9.916zM19.209 16.875a22.705 22.705 0 0 1-4.938.354.647.647 0 1 0 0 1.27c2.108.354 4.255.396 6.375.126 1.449-.23 2.854-.68 4.167-1.334l4.354-2.646c1.333-.958 1.333-.791 1.833-.25.792.854 1.771 2.084 2.709 2.98.352.363.728.704 1.125 1.02a.71.71 0 0 0 1.139-.301.71.71 0 0 0-.202-.761c-1.27-1.333-2.916-4-3.896-5.042a2.5 2.5 0 0 0-1.02-.708 1.792 1.792 0 0 0-1.084 0c-.603.284-1.182.619-1.729 1l-4.417 2.604a12.959 12.959 0 0 1-4.416 1.688zm9.105 19.042A5.79 5.79 0 0 1 27.96 38c-.275.38-.685.642-1.146.73-.569.16-1.16.223-1.75.187a6.56 6.56 0 0 1-2.084-.459 3.187 3.187 0 0 1-1.104-.666 2.312 2.312 0 0 1-.646-1.813 3.061 3.061 0 0 1 0-.812.876.876 0 0 0-1.52 0 3.521 3.521 0 0 0-.292 1.354 4 4 0 0 0 .75 2.646c.446.544.999.99 1.625 1.312a66.662 66.662 0 0 0-2.688 6.375 8.978 8.978 0 0 0-.5 2.084c0 .236.05.47.146.687a18.48 18.48 0 0 0 3.459 4.27 4.167 4.167 0 0 0 2.875 1.168c.3-.066.584-.194.833-.375a30.46 30.46 0 0 0 2.73-2.334 7.875 7.875 0 0 0 2.082-2.541 25.52 25.52 0 0 0-.979-5.5 37.372 37.372 0 0 0-1.27-3.896 3.749 3.749 0 0 0 1.354-1.563c.242-.795.327-1.63.25-2.458a7.726 7.726 0 0 0-.188-1.438c-.229-.395-1.562 0-1.541.355.02.354-.021.208-.042.604zm.229 13.229s0 .146-.146.208a33.804 33.804 0 0 1-3.291 2.854 4.354 4.354 0 0 1-.563.334l-.292-.23a10.795 10.795 0 0 1-1.437-1.25 23.087 23.087 0 0 1-1.98-2.312v-.687c.25-1.167.771-2.98 1.313-4.605.313-.958.625-1.854.896-2.541a8.33 8.33 0 0 0 1.896.375 6.478 6.478 0 0 0 2.083-.271c.364 1.17.663 2.36.896 3.562.317 1.504.525 3.03.625 4.563z"/><path d="M40.5 17.875a12.27 12.27 0 0 0-2.874-7.188 11.645 11.645 0 0 0-6.563-3.958.708.708 0 0 0-.755 1.078.73.73 0 0 0 .443.318 10.042 10.042 0 0 1 5.625 3.583 10.584 10.584 0 0 1 2.291 6.25 14.021 14.021 0 0 1-5.187 12.167c-3.146 2.27-7.604 3.083-13.23 1.812-7.333-1.562-10.166-8.937-8.687-15.312 1.375-5.875 6.438-10.938 15.333-10.23a.625.625 0 0 0 .688-.562.646.646 0 0 0-.5-.687c-9.958-1.125-15.77 4.479-17.48 11-1.853 7.104 1.188 15.27 8.876 17.77a20.23 20.23 0 0 0-1.688.646l-1.729.855a31.471 31.471 0 0 0-5.396 3.645 19.978 19.978 0 0 0-3.041 3.188A15.354 15.354 0 0 0 3.27 52.666a.646.646 0 0 0 1.271 0 13.73 13.73 0 0 1 2.75-7.291 29.75 29.75 0 0 1 3.959-4.5 37.163 37.163 0 0 1 4.729-3.854c.5-.334 1-.667 1.541-.959.511-.297 1.04-.561 1.584-.791a.729.729 0 0 0 .416-.938c3.177.701 6.47.701 9.646 0a14.583 14.583 0 0 0 5.688-2.396A15.98 15.98 0 0 0 40.5 17.875z"/><path d="M20.834 23.312a.708.708 0 0 0 1.208-.51.729.729 0 0 0-.208-.51 3.896 3.896 0 0 0-2.855-1.772 3.083 3.083 0 0 0-.875 0 3.207 3.207 0 0 0-1.208.417 5.063 5.063 0 0 0-1.917 2.083.645.645 0 0 0 0 .896.626.626 0 0 0 .896 0 5.686 5.686 0 0 1 1.896-.729A4.916 4.916 0 0 1 18.854 23a2.563 2.563 0 0 1 1.98.312zm11.271-.562c.68.084 1.337.296 1.938.625a.646.646 0 0 0 .895 0 .623.623 0 0 0 0-.896 5.25 5.25 0 0 0-2.083-1.917 3.583 3.583 0 0 0-1.23-.333c-.29-.03-.583-.03-.874 0A3.917 3.917 0 0 0 28 22.187a.748.748 0 0 0 1.167.938 2.604 2.604 0 0 1 1.833-.5c.371 0 .742.042 1.104.125zm-11.27 6.333c.345.31.722.583 1.125.813.501.27 1.032.48 1.583.625.547.126 1.106.19 1.667.187a7.02 7.02 0 0 0 3.292-.937c.298-.18.577-.39.833-.625.32-.328.62-.676.896-1.042a.715.715 0 0 0-1.021-1c-.27.209-.5.417-.792.604a2.663 2.663 0 0 1-.729.375c-.798.229-1.633.3-2.458.209h-1.25a10.782 10.782 0 0 1-1.23-.209 4.537 4.537 0 0 1-1.187-.458c-.417-.23-.812-.48-1.23-.75a.606.606 0 0 0-.874 0 .625.625 0 0 0 0 .875c.458.438.854.896 1.375 1.333z"/></g><defs><clipPath id="ba"><path transform="translate(0 5)" d="M0 0h50v50H0z"/></clipPath></defs></symbol><symbol viewBox="0 0 67 67" fill="currentColor" id="icon-logistic"><path fill-rule="evenodd" clip-rule="evenodd" d="M64.835 30.252a11.537 11.537 0 0 0-4.414-4.55 33.446 33.446 0 0 0-8.288-2.709.894.894 0 0 0-1.11.57.92.92 0 0 0 .569 1.137l1.652.623-1.056 3.168c-.352 1.084-.705 1.95-.867 2.709a4.117 4.117 0 0 0 .38 2.708 4.928 4.928 0 0 0 3.628 2.167l2.194.379 3.683.244a.975.975 0 0 0 1.057-.948 1.029 1.029 0 0 0-.948-1.056l-3.115-.867-2.085-.786a4.849 4.849 0 0 1-1.057-.487c-.243-.136-.406-.217-.433-.434a14.515 14.515 0 0 1 .19-3.222l.352-2.871a16.897 16.897 0 0 1 3.873 2.004 8.532 8.532 0 0 1 2.925 3.71c.525 1.29.801 2.67.812 4.063a20.149 20.149 0 0 1-.27 4.414 6.634 6.634 0 0 1-2.357 4.659 4.063 4.063 0 0 1-1.3.406c-.902.054-1.806.054-2.708 0a1.084 1.084 0 0 0-.623.217 6.228 6.228 0 0 0-4.93-4.144 6.473 6.473 0 0 0-3.439.704c.596-3.467 1.192-6.96 1.842-10.427a250.101 250.101 0 0 1 1.841-8.964c.567-2.1.93-4.25 1.084-6.42a3.523 3.523 0 0 0-1.084-2.708 6.715 6.715 0 0 0-3.222-1.137c-2.086-.271-4.605 0-6.094 0-3.169-.19-6.365-.244-9.588-.217-4.766 0-9.56.271-14.273.46a.84.84 0 0 0-.785.65.84.84 0 0 0-.542.65c-.785 4.226-1.787 8.613-2.329 13.136-.38 2.98-.569 5.986-.758 8.992 0 1.137-.352 3.168-.46 4.82a10.002 10.002 0 0 0 0 2.465 2.872 2.872 0 0 0 1.516 1.95 8.98 8.98 0 0 0 4.062.731h.217a4.55 4.55 0 0 0 0 2.41 6.093 6.093 0 0 0 1.76 2.71c2.709 2.274 10.157 3.655 10.455-3.36a5.078 5.078 0 0 0 0-.866c1.625.217 3.196.46 4.82.542.722.054 1.446.054 2.167 0 .731 0 1.463 0 2.167-.163l3.52-.541c-.04.547.015 1.096.163 1.625a5.85 5.85 0 0 0 1.734 2.708c2.708 2.275 10.183 3.656 10.48-3.358v-.65c0-.217.136 0 .217 0 .921 0 1.95.27 2.953.27a5.744 5.744 0 0 0 2.356-.487 10.319 10.319 0 0 0 4.604-7.854 16.52 16.52 0 0 0-1.138-8.775zM22.261 49.806a3.197 3.197 0 0 1-1.03-2.058c-.162-.867.515-1.598 1.22-2.194a3.44 3.44 0 0 1 2.572-.867 3.223 3.223 0 0 1 3.06 3.142c0 2.925-3.006 4.36-5.822 1.977zm17.468-5.688h-2.194c-.724.015-1.447.07-2.166.163-1.706.217-3.331.596-5.038.867a6.256 6.256 0 0 0-4.956-3.82 6.606 6.606 0 0 0-5.2 1.788c-.428.42-.802.894-1.11 1.409a.84.84 0 0 0-.732-.46 8.451 8.451 0 0 1-2.166-.488c-.434-.163-.894-.298-.948-.731a7.1 7.1 0 0 1 .162-1.734c.271-1.706.786-3.737.921-4.875.244-2.979.65-5.904.894-8.856.38-4.387.514-8.775.785-13.136 4.55 0 9.182.217 13.786.488 3.141.162 6.256.406 9.344.758 10.643 1.11 7.854-2.03 6.283 6.5-.542 3.06-.975 6.094-1.381 9.182-.57 4.225-1.057 8.45-1.544 12.702-.16.187-.305.386-.434.596-1.354-.136-2.816-.298-4.306-.352zm7.475 5.688a3.196 3.196 0 0 1-1.029-2.058c-.162-.867.488-1.598 1.219-2.194a3.44 3.44 0 0 1 2.573-.867 3.25 3.25 0 0 1 2.952 3.142c.135 2.925-2.898 4.36-5.715 1.977z"/><path fill-rule="evenodd" clip-rule="evenodd" d="M41.502 25.668c-.37-.363-.897-.62-1.493-.729h-2.438c-.655 0-.767.162-1.896.19a15.54 15.54 0 0 0 1.31-3.159 3.102 3.102 0 0 0 0-2.024c-.18-.292-.473-.538-.843-.707a2.794 2.794 0 0 0-1.23-.238c-.802 0-2.912.19-2.985.19-1.71 0-3.385 0-5.096.161-1.71.162-3.494-.08-5.168-.08a1.563 1.563 0 0 0-.461.01 1.383 1.383 0 0 0-.42.143 1.028 1.028 0 0 0-.31.253.735.735 0 0 0-.155.322.642.642 0 0 0 .181.486 1.373 1.373 0 0 0-.59.09.971.971 0 0 0-.429.315l-2.038 2.51-2.475 3.104s-.546.675-.727.917a1.18 1.18 0 0 0-.212.955c.072.326.287.627.612.854.664.543 1.522.936 2.475 1.133 1.45.27 2.95.36 4.44.27.472-.027.947-.027 1.42 0-.255.46-.583.918-.656 1.08a14.283 14.283 0 0 1-1.055 2.024c-.983 1.458-2.148 2.888-3.021 4.427l-.328.486a.787.787 0 0 0-.073.76c.108.252.343.463.656.589 3.874-1.192 6.278-2.6 9.866-4.21a91.233 91.233 0 0 0 9.135-4.481c.993-.58 1.918-1.22 2.766-1.916.743-.592 1.291-1.303 1.601-2.079a1.31 1.31 0 0 0 .104-.858 1.553 1.553 0 0 0-.468-.788zm-5.535 3.212a77.669 77.669 0 0 1-8.153 4.696c-1.237.648-2.439 1.215-3.64 1.782a2.33 2.33 0 0 1 .292-.324 21.46 21.46 0 0 0 1.674-2.213 14.976 14.976 0 0 0 1.383-3.023 1.42 1.42 0 0 0-.21-1.048c-.207-.327-.539-.6-.955-.788a7.791 7.791 0 0 0-2.73-.675 40.624 40.624 0 0 0-4.04 0h-.946l1.492-2.941 1.456-2.7a.7.7 0 0 0 .098-.35.7.7 0 0 0-.098-.351c1.675.216 3.312.378 4.987.485 1.674.108 3.64.216 5.24.243l1.056.19v.134c-.364.702-.837 1.35-1.128 1.809-.32.374-.611.762-.874 1.16a1.343 1.343 0 0 0-.208.917c.045.314.205.613.463.865.742.637 1.757 1.066 2.875 1.214.95.117 1.912.18 2.876.19l-.91.728zm-26.968.62c-.268-.119-.55-.2-.84-.244a3.302 3.302 0 0 0-.893 0c-.542 0-3.044.102-3.071.996 0 .27-.162.785 2.708 1.76.243.1.498.164.759.19.27.027.542.027.812 0 3.196 0 3.115-.813 3.169-1.056.054-.244.064-.617-2.644-1.646zM5.874 18.958c.535.108 1.08.162 1.625.163.55.04 1.102.04 1.652 0 5.037-.271 4.82-.894 4.82-1.409 0-.514-.432-1.11-4.685-1.787l-1.598-.19a15.186 15.186 0 0 0-1.57 0c-4.794.271-4.686.65-4.74 1.138-.054.487-.081 1.218 4.496 2.085zm2.493 3.25H6.849c-.487-.04-1.863-.04-2.35 0-3.086.258-3.5.292-3.499 1.03 0 .46-.596 1.11 4.225 2.058.501.085 1.008.13 1.517.135.504.04 1.012.04 1.516 0 4.009-.379 4.47-.623 4.496-1.462.027-.84-.379-1.192-4.387-1.76z"/></symbol><symbol viewBox="0 0 67 67" fill="currentColor" id="icon-partner"><g clip-path="url(#da)" fill-rule="evenodd" clip-rule="evenodd"><path d="M4.813 30.333c2.083 1.583 3.563.104 1.958-1.646l-.166-.167a11.43 11.43 0 0 0-1.084-.916 15.099 15.099 0 0 0-1.229-.792 17.852 17.852 0 0 0-3.166-1.396.778.778 0 1 0-.688 1.396c.896.604 1.646 1.375 2.5 2.083.548.487 1.125.94 1.73 1.354l.145.084zM25 41.687a.774.774 0 1 0-1.458.52 2.333 2.333 0 0 1-1.854 2.73 2.292 2.292 0 0 1-1.063-.23 2.896 2.896 0 0 1-.958-.604 7.212 7.212 0 0 1-.52-.604 1.605 1.605 0 0 1-.21-.479 1.708 1.708 0 0 1 .167-1.167c.146-.145.25-.291.375-.437a2.23 2.23 0 0 1 .646-.604 2.812 2.812 0 0 1 3.084 0 .687.687 0 0 0 .958-.98 4.166 4.166 0 0 0-4.02-1.124 3.543 3.543 0 0 0-.147-.959.791.791 0 0 0-1.452-.08.77.77 0 0 0-.027.601 1.75 1.75 0 0 1 0 1.083c-.642.368-1.174.9-1.542 1.542a1.174 1.174 0 0 1-.25 0 2.083 2.083 0 0 1-1.041-.229 2.886 2.886 0 0 1-1.104-.52 3.665 3.665 0 0 1-.5-.605 1.271 1.271 0 0 1-.23-.48A2.083 2.083 0 0 1 15 36.875a2.77 2.77 0 0 1 3.084 0 .693.693 0 0 0 .958-1 3.935 3.935 0 0 0-3.333-1.208 3.21 3.21 0 0 0-.25-1.708.775.775 0 0 0-1.459.52 2.082 2.082 0 0 1-.396 1.771c-.405.216-.777.49-1.104.813-.12.06-.245.11-.375.146-.36 0-.715-.078-1.041-.23a2.896 2.896 0 0 1-.959-.604 4.71 4.71 0 0 1-.52-.604 1.167 1.167 0 0 1-.209-.5 1.958 1.958 0 0 1 1.188-2.187 2.813 2.813 0 0 1 3.083 0 .688.688 0 0 0 .917-.98 4.834 4.834 0 0 0-4.917-.916 3.812 3.812 0 0 0-2.083 1.646c-.6.839-.867 1.87-.75 2.895.073.44.221.862.437 1.25.296.464.645.89 1.042 1.271a5.083 5.083 0 0 0 2.104 1.084c.318.097.647.153.98.166a4.16 4.16 0 0 0 0 1.021c.076.434.232.85.457 1.23.282.479.633.914 1.042 1.291a5.27 5.27 0 0 0 2.083 1.083 4.875 4.875 0 0 0 1.521.167c.01.055.01.112 0 .167a3.5 3.5 0 0 0 .459 1.25c.282.473.633.9 1.041 1.27a4.875 4.875 0 0 0 2.084 1.084 4.28 4.28 0 0 0 2.333 0 4.376 4.376 0 0 0 2.604-2.188 3.77 3.77 0 0 0-.02-3.187zm-2.499-23.458c.283.054.562.13.833.229 1.438.583 2.23-.938 1.188-1.604a6.126 6.126 0 0 0-1.667-.688 11.024 11.024 0 0 0-3.958-.125c-1.162.079-2.33.023-3.48-.166l-4.27-1.604a15.849 15.849 0 0 0-3.063-.938.646.646 0 0 0-.583.75.667.667 0 0 0 .604.604s.25.125.48.25c1.291.667 4.02 2.375 5.874 3.313a6.25 6.25 0 0 0 2.48.791l2.354-.479a11.062 11.062 0 0 1 3.208-.333zm27.333-5.167a.792.792 0 0 0-1.084-.27l-3.708 2.083c-.665.38-1.362.701-2.084.958-.423.136-.867.2-1.312.188a16.2 16.2 0 0 1-2.083-.167 14.118 14.118 0 0 1-1.813-.438c-.875-.291-1.708-.666-2.583-.916a6.813 6.813 0 0 0-2.084-.292 5.5 5.5 0 0 0-1.645.333 8.646 8.646 0 0 0-2.084 1.021c-.52.313-5.312 4.75-5.77 5.23a12.751 12.751 0 0 0-2.084 2.562c-.4.708-.629 1.5-.666 2.313a3.144 3.144 0 0 0 .958 2.583 4.168 4.168 0 0 0 3.52.791 6.813 6.813 0 0 0 2.938-1.375 19.934 19.934 0 0 0 2.375-2.229c1.061.446 2.186.72 3.334.813.54.062 1.085.062 1.624 0a6.938 6.938 0 0 0 1.563-.417 9.355 9.355 0 0 0 3.063-2.083.667.667 0 0 0 .166-.959.687.687 0 0 0-.958-.166c-.959.406-1.968.68-3 .812l-1.813.313c-.416 0-.791.146-1.208.166-.652.053-1.307.053-1.958 0a.437.437 0 0 0 0-.229.666.666 0 0 0-.959 0 26.58 26.58 0 0 1-3.166 2.688 5.25 5.25 0 0 1-2.25.875 2.48 2.48 0 0 1-1.625-.292 1.042 1.042 0 0 1-.521-1.125c.087-.477.272-.93.541-1.333.52-.727 1.12-1.391 1.792-1.98 1.021-1.02 2.084-2.083 3.167-3.104a17.167 17.167 0 0 1 2.187-1.708A8.521 8.521 0 0 1 31.875 17c.82-.36 1.74-.427 2.604-.188.855.188 1.667.5 2.521.75a16.2 16.2 0 0 0 2.271.396c.75.042 1.5.042 2.25 0a6.25 6.25 0 0 0 1.958-.375 15.283 15.283 0 0 0 2.375-1.25l3.605-2.27a.77.77 0 0 0 .374-1z"/><path d="M38.688 34.167a8.166 8.166 0 0 0-.459-1.063 15.95 15.95 0 0 0-2.083-2.812l-2.23-2.542a.687.687 0 0 0-1.103.813l1.646 2.958c.541.865 1.015 1.77 1.416 2.708.254.526.423 1.089.5 1.667a2.605 2.605 0 0 1-.52 2.083 2.563 2.563 0 0 1-1.084.73 2.434 2.434 0 0 0-.104-.23 15.866 15.866 0 0 0-1.458-1.854l-3-3.396a.78.78 0 0 0-1.292.875l2.333 3.98c.397.557.766 1.134 1.104 1.729.18.307.32.636.417.979a1.208 1.208 0 0 1-.292 1.437 2.084 2.084 0 0 1-1.041.459V42.5a7.127 7.127 0 0 0-.813-1.333c-.5-.604-.979-1.188-1.52-1.75-.542-.563-1.042-1.104-1.605-1.625a.688.688 0 0 0-.958-.104.708.708 0 0 0-.104.979c.333.5.625.979.916 1.5.292.52.813 1.52 1.188 2.312l.583 1.417-.291.5a1.938 1.938 0 0 1-1.271.875 2.084 2.084 0 0 1-1.5-.167.771.771 0 0 0-1.063.25.791.791 0 0 0 .25 1.084c.67.58 1.53.892 2.417.875a4.166 4.166 0 0 0 3.104-1.271 4.17 4.17 0 0 0 .75-1.063 2.96 2.96 0 0 0 .125-.625 4.167 4.167 0 0 0 2.083-.395 3.396 3.396 0 0 0 1.688-3.542 4.46 4.46 0 0 0 2.083-1 4.793 4.793 0 0 0 1.563-3.396 7.65 7.65 0 0 0-.375-1.854zM50 31.605a.771.771 0 0 0-.937-.563c-1.271.146-2.5.188-3.73.396-.836.134-1.659.344-2.458.625-.919.346-1.793.801-2.604 1.354-1.708.709-.688 2.084.917 1.625l1.937-.396 1.458-.354 1.438-.458a76.008 76.008 0 0 0 3.417-1.292.771.771 0 0 0 .562-.937z"/></g><defs><clipPath id="da"><path transform="translate(0 5)" d="M0 0h50v50H0z"/></clipPath></defs></symbol><symbol viewBox="0 0 67 67" fill="currentColor" id="icon-quality"><g clip-path="url(#ea)" fill-rule="evenodd" clip-rule="evenodd"><path d="M7.729 23.187a.708.708 0 0 0 1.416 0 27.584 27.584 0 0 0-.104-10.062c10.417-4.167 30.063-2.084 33.792.708.06.211.101.428.125.646.604 8.979-.104 10.041 1 10.041a.625.625 0 0 0 .625-.625c.167-9.916.458-10.562-.104-11.187-3.334-3.52-13.167-4.27-18.042-4.167-9.562-.062-18.312 2.709-18.625 3.875a16.52 16.52 0 0 0-.562 4.417c-.03 2.128.13 4.255.479 6.354zm33.438 16.626a.708.708 0 0 0-1.042-.959c-2.854 2.938-10.896 8.667-13.75 9a26.769 26.769 0 0 1-5.312-3.062c-8.75-6.042-8.521-7.146-9.271-6.25a.625.625 0 0 0 0 .875c2.5 2.395 11.48 11.354 14.875 10.895a20.373 20.373 0 0 0 6.562-3.395 49.226 49.226 0 0 0 7.938-7.105z"/><path d="M5.824 37.112c1.209 1.916 3.855 0 4.938-.334 4.167-1.166 9.25-3.354 13.562-2.958 2.438.23 2.084 1.083 2.48 2.083a5.396 5.396 0 0 0 5.27 2.563c2.25 0 6.792-1.459 11.042-1.792 1.146 0 2.27-.396 3.396-.562 2.083-.313 1.812.166 2.98 0 1.916 0 1.457-2.521 1.457-3.459 0-3.666 1.146-8.208-4.354-8.333a70.515 70.515 0 0 0-9.604 1.312c-3.437.875-3.917 1.105-4.437.73-.521-.375-1.084-2.084-2.792-2.98a18.75 18.75 0 0 0-13.25-.333 38.73 38.73 0 0 0-8.646 3.48c-2.75 1.645-4.167 2.228-3.812 3.083a23.5 23.5 0 0 0 1.77 7.5zm23.063-11.959c1.5.771 1.48 3.75 4.77 3.48 1.334 0 2.563-.605 3.772-.813 13-1.875 11.125-2.083 11.104 4.854 0 .125-.104.542-.146.917a24.459 24.459 0 0 0-5.48.646c-7.208.604-10.79 3.041-13.478 1.437-1.042-.625-.813-1.25-1.25-2.083-2.938-5.354-20.313 2.833-20.959 2.687a20.25 20.25 0 0 1-1.729-6.812c.208-.125 14.083-9.063 23.396-4.313zM14.583 44.938c-1.104 1.02-4.354 4.333-6.146 4.437a1.458 1.458 0 0 1 0-.333c2.271-4.459 1.896-3.417 2.084-3.959a1.333 1.333 0 0 0-1.605-1.812 11.5 11.5 0 0 1-4.687 1.146 12.834 12.834 0 0 0 4.542-5.021.625.625 0 0 0-1.084-.625 11.168 11.168 0 0 1-2.52 2.833 34.305 34.305 0 0 1-3.75 2.23c-1.355 1.083.666 3.687 5.687 2.603-.833 1.855-1.938 4.396.146 4.917 2.5.604 4.646-1.75 6.541-3.479.875-.792 2.667-2.375 1.917-3.104a1.04 1.04 0 0 0-1.125.166zM50.584 44c-.188-.146-.917-.542-.542-.292a11.71 11.71 0 0 1-5.791-4.75.624.624 0 1 0-1.084.625 12.73 12.73 0 0 0 4.459 5 11.605 11.605 0 0 1-4.605-1.104 1.312 1.312 0 0 0-1.604.792c-.291.916.292 1.583.709 2.229l1.416 2.73c.334.75-.708.312-1.333 0-2.521-1.334-3.334-3.167-4.167-2.21a.729.729 0 0 0 0 1 21.022 21.022 0 0 0 3.854 3.105c1.355.667 3.188.77 3.73-.646a6.584 6.584 0 0 0-.875-3.812c5.104 1.125 7.229-1.521 5.833-2.667z"/></g><defs><clipPath id="ea"><path transform="translate(1 5)" d="M0 0h50v50H0z"/></clipPath></defs></symbol></svg>