<svg width="100" height="100" viewBox="0 0 100 100" fill="none" xmlns="http://www.w3.org/2000/svg">
<circle cx="50" cy="50" r="50" fill="#623061" fill-opacity="0.3"/>
<circle cx="50" cy="50" r="39" fill="#623061"/>
<path d="M64.1175 40.783C64.6607 41.3054 64.9777 42.0259 64.9989 42.786C65.02 43.5461 64.7436 44.2836 64.2303 44.8364L48.255 62.0443C47.9961 62.3227 47.6849 62.5455 47.34 62.6995C46.995 62.8535 46.6232 62.9356 46.2465 62.9409C45.8698 62.9462 45.4959 62.8747 45.1468 62.7306C44.7977 62.5864 44.4806 62.3726 44.2142 62.1017L35.7566 53.4977C35.2587 52.954 34.9876 52.235 35.0004 51.492C35.0133 50.749 35.3092 50.04 35.8257 49.5146C36.3422 48.9891 37.0391 48.6881 37.7694 48.675C38.4998 48.6619 39.2066 48.9377 39.7411 49.4443L46.15 55.9604L60.1331 40.8977C60.6466 40.3452 61.3548 40.0227 62.102 40.0011C62.8492 39.9796 63.5741 40.2609 64.1175 40.783Z" fill="white"/>
</svg>
