<svg width="33" height="12" viewBox="0 0 33 12" fill="none" xmlns="http://www.w3.org/2000/svg">
<path d="M2.96943 10.0426H9.16838V11.7447H0V11.4681L6.22063 1.93617H0.411818V0.25532H9.1467V0.553192L2.96943 10.0426Z" fill="#909090"/>
<path d="M21.1909 6.04255C21.1909 6.19858 21.1764 6.41844 21.1475 6.70213H11.1555C11.3 7.76596 11.7479 8.62411 12.4993 9.2766C13.2507 9.91489 14.1755 10.234 15.2737 10.234C16.0829 10.234 16.7981 10.0638 17.4195 9.7234C18.0553 9.3688 18.561 8.87234 18.9367 8.23404H20.8657C20.3745 9.42553 19.6375 10.3546 18.6549 11.0213C17.6723 11.6738 16.5453 12 15.2737 12C13.5831 12 12.167 11.4255 11.0255 10.2766C9.88392 9.12766 9.31316 7.70213 9.31316 6C9.31316 4.28369 9.88392 2.85816 11.0255 1.7234C12.167 0.574468 13.5831 0 15.2737 0C17.0221 0 18.4454 0.58156 19.5436 1.74468C20.6418 2.9078 21.1909 4.34043 21.1909 6.04255ZM15.2737 1.7234C14.5801 1.7234 13.9443 1.85816 13.3663 2.12766C12.8028 2.39716 12.3332 2.78723 11.9575 3.29787C11.5818 3.79433 11.3289 4.36879 11.1989 5.02128H19.3268C19.1968 4.35461 18.9439 3.77305 18.5682 3.2766C18.1925 2.76596 17.7229 2.38298 17.1594 2.12766C16.5958 1.85816 15.9673 1.7234 15.2737 1.7234Z" fill="#909090"/>
<path d="M28.4917 0C29.8644 0 30.9554 0.453901 31.7645 1.3617C32.5882 2.2695 33 3.43972 33 4.87234V11.7447H31.1577V5.29787C31.1577 4.51773 31.0348 3.85816 30.7892 3.31915C30.558 2.78014 30.204 2.36879 29.7271 2.08511C29.2647 1.80142 28.694 1.65957 28.0148 1.65957C27.0178 1.65957 26.1797 2.02837 25.5006 2.76596C24.8214 3.48936 24.4819 4.39007 24.4819 5.46809V11.7447H22.6395V0.25532H23.94L24.3085 2.06383C24.5975 1.62411 24.9515 1.25532 25.3705 0.957447C25.7896 0.64539 26.2664 0.411348 26.801 0.25532C27.3357 0.0851066 27.8992 0 28.4917 0Z" fill="#909090"/>
</svg>
