<svg width="48" height="48" viewBox="0 0 48 48" fill="none" xmlns="http://www.w3.org/2000/svg">
<path d="M10.9451 9.23047C9.02158 9.23047 7.17682 9.9946 5.81666 11.3547C4.45651 12.7149 3.69238 14.5597 3.69238 16.4832V17.9338H44.3078V16.4832C44.3078 14.5597 43.5436 12.7149 42.1835 11.3547C40.8233 9.9946 38.9786 9.23047 37.055 9.23047H10.9451ZM44.3078 20.8349H3.69238V30.9887C3.69238 32.9123 4.45651 34.757 5.81666 36.1172C7.17682 37.4773 9.02158 38.2415 10.9451 38.2415H37.055C38.9786 38.2415 40.8233 37.4773 42.1835 36.1172C43.5436 34.757 44.3078 32.9123 44.3078 30.9887V20.8349ZM31.2528 29.5382H37.055C37.4397 29.5382 37.8087 29.691 38.0807 29.963C38.3527 30.235 38.5056 30.604 38.5056 30.9887C38.5056 31.3734 38.3527 31.7424 38.0807 32.0144C37.8087 32.2864 37.4397 32.4393 37.055 32.4393H31.2528C30.8681 32.4393 30.4992 32.2864 30.2271 32.0144C29.9551 31.7424 29.8023 31.3734 29.8023 30.9887C29.8023 30.604 29.9551 30.235 30.2271 29.963C30.4992 29.691 30.8681 29.5382 31.2528 29.5382Z" fill="#0A327A"/>
</svg>
