<svg width="26" height="26" viewBox="0 0 26 26" fill="none" xmlns="http://www.w3.org/2000/svg">
<path d="M19.4999 16.25H7.58325L5.95825 6.5H22.7499L19.4999 16.25Z" fill="black"/>
<path d="M3.25 3.25H5.41667L5.95833 6.5M5.95833 6.5L7.58333 16.25H19.5L22.75 6.5H5.95833Z" stroke="black" stroke-width="2" stroke-linecap="round" stroke-linejoin="round"/>
<path d="M8.66659 22.75C9.26489 22.75 9.74992 22.265 9.74992 21.6667C9.74992 21.0684 9.26489 20.5833 8.66659 20.5833C8.06828 20.5833 7.58325 21.0684 7.58325 21.6667C7.58325 22.265 8.06828 22.75 8.66659 22.75Z" stroke="black" stroke-width="2" stroke-linecap="round" stroke-linejoin="round"/>
<path d="M18.4166 22.75C19.0149 22.75 19.4999 22.265 19.4999 21.6667C19.4999 21.0684 19.0149 20.5833 18.4166 20.5833C17.8183 20.5833 17.3333 21.0684 17.3333 21.6667C17.3333 22.265 17.8183 22.75 18.4166 22.75Z" stroke="black" stroke-width="2" stroke-linecap="round" stroke-linejoin="round"/>
</svg>
