<svg fill="none" xmlns="http://www.w3.org/2000/svg" viewBox="0 0 56 56"><path fill-rule="evenodd" clip-rule="evenodd" d="M53.566 52.765a21.169 21.169 0 0 0-6.391-7.15 8.97 8.97 0 0 0-4.139-15.448 9.944 9.944 0 0 0-11.895 10.248c.217 4.875 4.875 8.558 8.082 8.212a.672.672 0 0 0 0-1.322 7.02 7.02 0 0 1-5.958-6.912 8.015 8.015 0 0 1 9.316-7.756c5.655 1.126 7.8 7.691 2.925 12.415a9.49 9.49 0 0 1-3.12 2.166.759.759 0 0 0 .52 1.409 10.077 10.077 0 0 0 3.142-1.734 29.054 29.054 0 0 0 6.5 7.02.768.768 0 1 0 1.018-1.148z" fill="#623061"/><path fill-rule="evenodd" clip-rule="evenodd" d="M28.455 40.155a53.755 53.755 0 0 1-16.185-1.322c-3.575-.953-4.507-6.283-5.157-9.988-1.062-5.59-.78-3.835-.78-4.723 3.575.628 30.117.433 30.333.433a6.5 6.5 0 0 0-.823 2.687c-.108.866-.498 2.643.585 2.491a.736.736 0 0 0 .737-.65c1.668-3.596 1.668-3.77 1.408-4.658.68-.054 1.355-.17 2.015-.347a3.445 3.445 0 0 0 .78-5.871 7.39 7.39 0 0 0-2.535-.629c.607-7.475-3.553-11.743-7.107-12.025a3.466 3.466 0 0 0-1.235-2.6c-1.82-1.408-4.095-.953-12.458-.585a.758.758 0 1 0 0 1.517c10.465.282 11.332-.26 11.093 2.665-.671 1.538-4.788.932-6.63 1.105-1.321.173-5.373.953-6.023 0a2.945 2.945 0 0 1 .108-2.947.672.672 0 1 0-.953-.931A4.485 4.485 0 0 0 15 8.5c1.126 2.167 5.221 1.582 7.648 1.473 2.427-.108 7.995 1.149 8.905-2.925.217 0 .607.152.693.217a16.921 16.921 0 0 1 4.984 10.14.758.758 0 0 0 0 1.517c2.99.411 3.986.346 3.726 2.166a1.321 1.321 0 0 1-.823 1.192c-2.879.34-5.788.34-8.667 0-28.448-.368-23.356-.433-26.628-1.148-.325-.347.173-1.3.628-1.517a8.667 8.667 0 0 1 3.445-.672c1.04 0 16.272-.758 25.069-.39a.671.671 0 0 0 0-1.321c-7.649-.629-25.805-.65-26-.629a26.368 26.368 0 0 1 4.333-7.735c1.993-1.516 1.842-1.56 1.842-1.82 0-2.946-8.667 3.164-7.757 9.62v.109c-.697.124-1.38.32-2.037.585A3.684 3.684 0 0 0 2.91 22.8c.498.5 1.13.846 1.82.997 0 .628 0-1.04.541 5.351 1.04 11.527 3.554 12.654 14.019 13 3.123.067 6.247-.13 9.338-.585a.758.758 0 1 0-.173-1.408z" fill="#623061"/><path fill-rule="evenodd" clip-rule="evenodd" d="M12.985 27.849c-1.972-.78.368 9.598 2.318 8.774a.758.758 0 0 0 .542-.476c.39-.823-1.82-8.775-2.86-8.298zM30.384 27.849c-1.04-.477-3.25 7.475-2.882 8.298a.78.78 0 0 0 .498.52c1.994.78 4.334-9.599 2.384-8.819zM21.5 27.155c-.152 0-.369 0-.477.303a17.333 17.333 0 0 0-.282 8.559.867.867 0 0 0 .759.953c1.733 0 .996-7.15.65-9.317-.217-.433-.434-.563-.65-.498z" fill="#623061"/></svg>
