<svg fill="none" xmlns="http://www.w3.org/2000/svg" viewBox="0 0 56 56"><path fill-rule="evenodd" clip-rule="evenodd" d="M49.535 22.628a.682.682 0 0 0-.636.391.655.655 0 0 0-.059.253 130.766 130.766 0 0 1-1.496 15.956 30.549 30.549 0 0 1-1.77 7.043 3.786 3.786 0 0 1-1.474 1.953 34.402 34.402 0 0 1-11.354 1.89 96.647 96.647 0 0 1-17.694-.913 4.238 4.238 0 0 1-1.726-.819 4.163 4.163 0 0 1-1.18-1.487 20.14 20.14 0 0 1-2.255-6.233 104.915 104.915 0 0 1-1.517-17.328.596.596 0 0 0-.205-.482.613.613 0 0 0-.51-.141.596.596 0 0 0-.552.373.575.575 0 0 0-.039.23c0 3.552-.273 13.67 1.622 20.568 1.075 3.989 3.055 6.877 5.878 7.417a91.489 91.489 0 0 0 18.178 1.06 35.053 35.053 0 0 0 12.113-2.286 4.805 4.805 0 0 0 2.106-2.223 21.575 21.575 0 0 0 1.727-5.651 122.121 122.121 0 0 0 1.56-18.886.657.657 0 0 0-.205-.499.676.676 0 0 0-.512-.186z" fill="#623061"/><path fill-rule="evenodd" clip-rule="evenodd" d="M24.51 24.913a4.264 4.264 0 0 0-1.96-.332c-.758.055-1.511.166-2.253.332a.55.55 0 0 0-.316.146.487.487 0 0 0-.337-.146.618.618 0 0 0-.453.085.603.603 0 0 0-.263.372l-.232.998c-.253.995-.422 2.01-.506 3.033a2.443 2.443 0 0 0 .674 1.808c.338.272.747.445 1.18.498.631.05 1.265.05 1.896 0a8.549 8.549 0 0 0 1.77 0c.454-.082.873-.3 1.2-.623a5.652 5.652 0 0 0 .906-3.678 3.102 3.102 0 0 0-.355-1.398 3.148 3.148 0 0 0-.951-1.095zm-.8 3.034c-.211 2.472-.907 1.6-1.75 1.6-2.316.145-2.105.54-2.105-.977a16.01 16.01 0 0 1 0-1.932v-.374c.117.032.24.032.358 0a12.538 12.538 0 0 1 2.106-.104c.371.004.734.104 1.053.29v.312c.212.366.355.768.422 1.185h-.085zM38.709 31.437a5.632 5.632 0 0 0 .905-3.677 3.083 3.083 0 0 0-.347-1.412 3.13 3.13 0 0 0-.959-1.102 4.03 4.03 0 0 0-1.959-.354c-.817.068-1.627.2-2.422.395a.742.742 0 0 0-.316.146.571.571 0 0 0-.253-.125.618.618 0 0 0-.452.085.603.603 0 0 0-.264.372l-.232 1.018c-.22.964-.36 1.944-.421 2.93a2.504 2.504 0 0 0 .674 1.828c.345.257.751.421 1.18.478a15.82 15.82 0 0 0 1.895 0c.59.05 1.181.05 1.77 0 .454-.06.875-.264 1.2-.582zm-2.95-1.579c-2.317.166-2 .54-2.106-.977a16.01 16.01 0 0 1 0-1.932v-.374a.79.79 0 0 0 .38 0c.697-.094 1.402-.13 2.106-.104.37.004.734.105 1.053.291v.312c.055.386.055.778 0 1.163.105 2.494-.61 1.621-1.432 1.621zM17.663 44.796a2.493 2.493 0 0 0 .653 1.808c.346.272.762.444 1.201.498.63.05 1.265.05 1.896 0 .581.06 1.167.06 1.748 0 .46-.07.888-.281 1.222-.602a5.651 5.651 0 0 0 .885-3.678 2.98 2.98 0 0 0-.331-1.428 3.025 3.025 0 0 0-.975-1.106 3.902 3.902 0 0 0-1.938-.333c-.824.066-1.642.198-2.444.395a.744.744 0 0 0-.295.125.657.657 0 0 0-.274-.125.598.598 0 0 0-.612.261.575.575 0 0 0-.083.217l-.252.997c-.223.977-.357 1.971-.4 2.971zm1.728-2.784v-.374a.577.577 0 0 0 .379 0 14.307 14.307 0 0 1 2.106-.124c.378.02.745.127 1.075.311v.291c.063.385.063.778 0 1.164-.211 2.472-.906 1.579-1.749 1.6-2.296.145-1.98.54-2.106-.998.231-.748.273-1.558.295-1.87zM31.388 44.796a2.493 2.493 0 0 0 .653 1.808c.346.272.761.444 1.2.498.632.05 1.266.05 1.896 0 .582.06 1.168.06 1.749 0 .46-.07.887-.281 1.221-.602a5.651 5.651 0 0 0 .885-3.678 2.979 2.979 0 0 0-.33-1.428 3.025 3.025 0 0 0-.976-1.106 3.902 3.902 0 0 0-1.938-.333c-.824.066-1.641.198-2.443.395a.742.742 0 0 0-.295.125.658.658 0 0 0-.274-.125.598.598 0 0 0-.612.261.575.575 0 0 0-.083.217l-.253.997c-.222.977-.356 1.971-.4 2.971zm1.727-2.784v-.374a.577.577 0 0 0 .38 0 14.307 14.307 0 0 1 2.106-.124c.377.02.745.127 1.074.311v.291c.064.385.064.778 0 1.164-.21 2.472-.906 1.579-1.748 1.6-2.296.145-1.98.54-2.107-.998.232-.748.274-1.558.295-1.87z" fill="#623061"/><path d="M46.46 20.405c2.359.124 4.697.27 6.909.498.175.011.339.089.457.217a.66.66 0 0 1 .175.469.683.683 0 0 1-.24.46.701.701 0 0 1-.498.163c-6.867-.374-16.662-.104-23.719-.104h-9.488c-1.661 0-.289-2.181 1.926-2.181h7.689c4.508.166 9.437.208 14.282.395h1.053a20.281 20.281 0 0 0-.443-3.865 10.856 10.856 0 0 0-1.095-2.805 5.219 5.219 0 0 0-2.59-2.347c-1.117-.437-.76-1.33 0-1.33a4.89 4.89 0 0 1 2.231.761 4.805 4.805 0 0 1 1.602 1.711 9.013 9.013 0 0 1 1.559 3.657c.266 1.418.33 2.866.19 4.3z" fill="#623061"/><path d="M32.768 13.923l-8.932-.166c-.89-.003-.53-1.784 1.276-1.784l7.656-.336h2.76c.5-.024.992-.137 1.453-.332.379-.187.59-.395.59-.665a2.299 2.299 0 0 0-.759-1.309 5.767 5.767 0 0 0-2.106-1.246 17.057 17.057 0 0 0-4.045-.81c-1.074-.105-2.106-.25-3.18-.25H24.3a.613.613 0 0 1-.358-.208.598.598 0 0 1 0-.769.613.613 0 0 1 .358-.207l3.265-.104h3.265c1.528.023 3.049.225 4.529.602a7.49 7.49 0 0 1 2.928 1.559c.493.414.883.935 1.138 1.523.256.587.371 1.225.336 1.863.063.769-.653 1.517-1.79 2.078a6.393 6.393 0 0 1-2.254.56c-.983.053-1.967.053-2.95 0z" fill="#623061"/><path fill-rule="evenodd" clip-rule="evenodd" d="M19.243 5.423a9.831 9.831 0 0 0-3.65-2.649 9.96 9.96 0 0 0-8.8.544 9.782 9.782 0 0 0-3.285 3.077c-2.79 4.069-1.353 10.016 1.42 11.763a.521.521 0 0 0 .86-.298.504.504 0 0 0-.292-.543c-2.122-1.515-3.19-6.738-.702-10a8.319 8.319 0 0 1 2.77-2.38 8.455 8.455 0 0 1 7.156-.365 8.353 8.353 0 0 1 3.003 2.086c4.092 4.778 1.67 12.01-5.53 12.85a9.259 9.259 0 0 1-3.925-.28.597.597 0 0 0-.45.034.574.574 0 0 0-.26.78c.072.138.195.242.343.29 1.427.457 2.933.62 4.426.478a9.529 9.529 0 0 0 5.013-1.565 9.341 9.341 0 0 0 3.386-3.968 9.193 9.193 0 0 0 .707-5.14 9.251 9.251 0 0 0-2.19-4.714z" fill="#623061"/><path fill-rule="evenodd" clip-rule="evenodd" d="M9.404 15.357c1.938.1 4.226-5.206 5.011-6.936.262-.263.427-.605.468-.972a.606.606 0 0 0-.462-.52.626.626 0 0 0-.657.24c-.401.462-4.61 6.491-4.494 6.59-.334 0-2.038-1.944-2.288-2.109-.25-.164-.986.297-.601.857.718 1.021 1.887 2.784 3.023 2.85z" fill="#623061"/></svg>
