<svg fill="none" xmlns="http://www.w3.org/2000/svg" viewBox="0 0 56 56"><g clip-path="url(#clip0_993_1129)" fill-rule="evenodd" clip-rule="evenodd" fill="#623061"><path d="M32.784 38.43l-8.33 6.184c-.49.373-1.213 1.12-1.983 1.656-.256.245-.583.4-.934.444a4.2 4.2 0 0 1-2.473-1.284 33.806 33.806 0 0 1-3.383-3.943 280.213 280.213 0 0 1-5.367-7c-1.727-2.333-3.314-4.783-4.83-7.28-3.15-5.087-2.964-3.29-1.75-4.597a26.85 26.85 0 0 1 2.333-2.333 27.564 27.564 0 0 1 2.59-2.03l4.667-3.71 1.54-1.19c.373 0 .77.42 1.19.793.579.542 1.124 1.119 1.633 1.727l2.333 2.8 7.654 10.243a.842.842 0 1 0 1.353-1.003L21.654 17.43l-2.217-2.94a16.144 16.144 0 0 0-2.613-2.706 3.453 3.453 0 0 0-2.194-.747 3.219 3.219 0 0 0-1.19.467c-.54.343-1.055.725-1.54 1.143L7.234 16.1a43.93 43.93 0 0 0-2.894 2.124c-.932.774-1.82 1.6-2.66 2.473a10.73 10.73 0 0 0-1.493 1.82 1.633 1.633 0 0 0 0 1.307 9.59 9.59 0 0 0 .84 1.703c.653 1.097 1.517 2.17 2.123 3.15 1.517 2.543 3.127 5.063 4.947 7.49 1.82 2.427 3.734 4.667 5.717 7a26.788 26.788 0 0 0 4.666 4.667 5.6 5.6 0 0 0 3.08 1.073 3.22 3.22 0 0 0 1.774-.63 25.657 25.657 0 0 0 2.333-2.053 292.842 292.842 0 0 0 4.667-3.944 127.426 127.426 0 0 1 3.22-2.52.747.747 0 0 0-.84-1.213l.07-.117z"/><path d="M20.86 26.04a5.553 5.553 0 0 0-7-.63 5.716 5.716 0 0 0-2.077 4.06 5.018 5.018 0 0 0 1.727 4.224 5.11 5.11 0 0 0 3.243 1.073 5.787 5.787 0 0 0 3.104-.84.77.77 0 0 0 .28-1.027.815.815 0 0 0 .63-.233 4.27 4.27 0 0 0 .093-6.627zm-1.353 5.39a.817.817 0 0 0 0 1.097h-.28a4.107 4.107 0 0 1-2.334.28 2.963 2.963 0 0 1-1.796-.91 2.66 2.66 0 0 1-.537-2.333 3.103 3.103 0 0 1 1.073-2.077 2.893 2.893 0 0 1 3.617.163 2.334 2.334 0 0 1 .257 3.78zM40.553 14.91a31.596 31.596 0 0 0-.886-3.617 15.838 15.838 0 0 0-1.26-2.87 4.13 4.13 0 0 0-1.89-1.75 3.686 3.686 0 0 0-1.727-.186c-1.005.183-1.996.44-2.963.77a.755.755 0 0 0 .35 1.47c.77-.154 1.55-.255 2.333-.304.363-.026.726.047 1.05.21.327.187.467.607.653 1.004.335.804.586 1.64.747 2.496.443 1.307.747 2.637 1.073 3.967.327 1.33.77 2.73 1.144 4.083.373 1.354.583 1.914.583 1.937.187.98 1.447.187 1.54-1.237-.467-2.403-.28-3.57-.747-5.973zM56 38.524a18.062 18.062 0 0 0-1.19-4.947 15.633 15.633 0 0 0-2.613-4.41A19.086 19.086 0 0 0 42.001 23.1c-.84-.396-1.47.21-1.447 1.214-.36 1.306-.92 2.55-1.657 3.686a6.323 6.323 0 0 1-6.44.887 3.15 3.15 0 0 0-1.936.21 3.593 3.593 0 0 0-2.52 3.57 4.666 4.666 0 0 0 1.866 3.757c.304.163.934.466 1.727.793 1.797.747 4.667 1.727 5.763 2.333-.186.467.49 1.704.607 2.054a12.717 12.717 0 0 0 2.497 4.223 4.222 4.222 0 0 0 3.36 1.447.84.84 0 1 0 0-1.68 2.569 2.569 0 0 1-1.914-1.05 10.105 10.105 0 0 1-1.773-3.64c-.117-.42-.163-1.75-.35-2.334a1.377 1.377 0 0 0-.56-.793 13.106 13.106 0 0 0-1.727-.933c-2.03-.934-5.343-2.334-6.113-2.8a1.796 1.796 0 0 1-.49-1.33.957.957 0 0 1 .583-.98 2.33 2.33 0 0 1 .817 0 30.1 30.1 0 0 0 3.43.14 7 7 0 0 0 5.157-3.01 7.608 7.608 0 0 0 1.12-3.99 17.71 17.71 0 0 1 8.05 5.973 16.64 16.64 0 0 1 2.1 3.78c.546 1.36.938 2.776 1.166 4.223a27.16 27.16 0 0 1-.466 10.547.863.863 0 0 0 .583 1.05.84.84 0 0 0 1.027-.583A27.65 27.65 0 0 0 56 38.524z"/><path d="M34.72 23.45c-.676-2.333-1.283-4.666-1.936-7-.42-1.563-.91-3.103-1.353-4.666a18.059 18.059 0 0 0-1.75-4.667 3.383 3.383 0 0 0-2.52-1.657 2.03 2.03 0 0 0-1.074.234 19.55 19.55 0 0 0-1.726 1.166l-5.694 3.617a.746.746 0 1 0 .63 1.33l6.16-2.94c1.05-.537 1.354-2.077 2.334.7.42 1.12.676 2.333.863 3.01.91 2.777 1.797 5.53 2.777 8.283.98 2.753 1.61 3.757 2.66 6.23.466 1.354 1.68 1.68 1.68.677-.49-1.633-.56-2.683-1.05-4.317z"/></g><defs><clipPath id="clip0_993_1129"><path fill="#fff" d="M0 0h56v56H0z"/></clipPath></defs></svg>
