<svg fill="none" xmlns="http://www.w3.org/2000/svg" viewBox="0 0 56 56"><path fill-rule="evenodd" clip-rule="evenodd" d="M23.514 8.073a10.634 10.634 0 0 0-3.938-2.96 10.417 10.417 0 0 0-9.497.607 10.718 10.718 0 0 0-3.545 3.44c-3.01 4.549-1.46 11.197 1.532 13.149a.556.556 0 0 0 .444.145.552.552 0 0 0 .397-.25.578.578 0 0 0-.228-.834c-2.29-1.695-3.443-7.533-.757-11.179a9.074 9.074 0 0 1 2.988-2.66 8.843 8.843 0 0 1 7.723-.408 9.016 9.016 0 0 1 3.24 2.331c4.417 5.341 1.803 13.426-5.966 14.365a9.66 9.66 0 0 1-4.236-.313.623.623 0 0 0-.485.038.646.646 0 0 0-.317.376.662.662 0 0 0 .036.496.64.64 0 0 0 .37.324c1.539.51 3.165.692 4.776.534a10.036 10.036 0 0 0 5.41-1.75 10.353 10.353 0 0 0 3.654-4.436 10.61 10.61 0 0 0 .763-5.745 10.508 10.508 0 0 0-2.364-5.27z" fill="#623061"/><path fill-rule="evenodd" clip-rule="evenodd" d="M12.873 18.74c2.075.108 4.526-5.684 5.367-7.573.28-.287.457-.661.501-1.061a.667.667 0 0 0-.495-.568.659.659 0 0 0-.704.262c-.429.504-4.938 7.087-4.812 7.195-.358 0-2.183-2.123-2.452-2.303-.268-.18-1.055.324-.644.936.77 1.115 2.022 3.04 3.239 3.112z" fill="#623061"/><path d="M20.125 30.6l5.157-.327c.084 1.373.311 2.734.677 4.06.012.109.012.218 0 .327.84 1.283 1.586 1.4 2.333 0 0-.747-.14-1.773-.234-3.173 0-.514 0-1.05-.163-1.564 1.89 0 3.593-.21 6.79-.536.015 2.292.147 4.581.397 6.86a.795.795 0 0 0 .782.929.794.794 0 0 0 .781-.93c.21-2.636.513-4.433.653-7.14l3.897-.373c1.96-.536 1.89-1.166.14-1.866h-3.943a15.213 15.213 0 0 0-.234-3.687c-.42-2.333-1.866-1.633-1.936 0-.397 3.803-.303 2.1-.42 3.733a62.57 62.57 0 0 0-7.303.514c-.28-1.214-.584-2.334-.84-3.314a.7.7 0 0 0-1.377.21V27.8c-2.334.42-4.06.56-5.577.957-1.283.91-2.24 1.703.42 1.843z" fill="#623061"/><path d="M52.511 10.557c-.863-1.89-5.763 2.776-7.723 8.47a58.823 58.823 0 0 0-16.567-.234.795.795 0 0 0-.929.782.794.794 0 0 0 .93.782 75.294 75.294 0 0 0 15.96.326 75.578 75.578 0 0 0-1.54 12.157c-.164 1.353-.14 2.917-.28 4.433-1.307 0-4.667.257-5.53.304-5.696-.24-11.37-.848-16.987-1.82-1.167-.794-1.89-2.567-2.637-6.58a.7.7 0 0 0-1.377.233c.63 4.667 1.004 7.63 3.804 8.843 1.767.525 3.594.822 5.436.887 5.659.879 11.425.8 17.057-.233a3.477 3.477 0 0 1-2.333 2.87 12.297 12.297 0 0 1-4.27.676c-2.917 0-5.88.257-8.82.21a75.14 75.14 0 0 1-9.077-.793.701.701 0 0 0-.443 1.33c1.145.26 2.307.448 3.476.56.794.163.77 0 .327.187a4.665 4.665 0 0 0 .723 8.89c3.64.91 7.654-2.217 6.417-5.787a4.2 4.2 0 0 0-1.843-2.333 4.656 4.656 0 0 0-.77-.35c3.826.326 5.67.28 10.01.396 3.523 0 2.146-.676 1.026 1.61-2.94 5.997 6.417 8.424 8.54 4.9a5.833 5.833 0 0 0-3.103-7.606c4.667-2.847 2.59-9.194 3.943-19.904a19.273 19.273 0 0 1 3.384-9.45 8.914 8.914 0 0 1 2.823-2.683.792.792 0 0 0 .373-1.073zM22.435 50.223c-1.284-.303-2.054-1.026-2.17-1.913-.327-2.497 2.59-3.5 4.666-2.333 2.87 1.913.327 4.946-2.496 4.27v-.024zM42.198 46c5.063 5.25-5.25 5.903-3.617 1.353a2.73 2.73 0 0 1 2.754-2.1c.328.197.62.45.863.747z" fill="#623061"/></svg>
