<svg fill="none" xmlns="http://www.w3.org/2000/svg" viewBox="0 0 58 56"><path fill-rule="evenodd" clip-rule="evenodd" d="M55.998 26.063a9.94 9.94 0 0 0-3.803-3.92 28.815 28.815 0 0 0-7.14-2.333.77.77 0 0 0-.957.49.793.793 0 0 0 .49.98l1.424.536-.91 2.73c-.304.934-.607 1.68-.747 2.334a3.546 3.546 0 0 0 .327 2.333 4.25 4.25 0 0 0 3.126 1.867l1.89.326 3.174.21a.839.839 0 0 0 .91-.816.887.887 0 0 0-.817-.91l-2.683-.747-1.797-.677a4.168 4.168 0 0 1-.91-.42c-.21-.116-.35-.186-.373-.373-.05-.929.006-1.86.163-2.777l.303-2.473a14.557 14.557 0 0 1 3.337 1.727 7.35 7.35 0 0 1 2.52 3.196c.453 1.112.69 2.3.7 3.5a17.362 17.362 0 0 1-.233 3.804 5.717 5.717 0 0 1-2.03 4.013c-.351.179-.73.297-1.12.35a19.7 19.7 0 0 1-2.334 0 .933.933 0 0 0-.536.187 5.365 5.365 0 0 0-4.247-3.57 5.577 5.577 0 0 0-2.963.606c.513-2.986 1.026-5.996 1.586-8.983a215.43 215.43 0 0 1 1.587-7.723c.488-1.81.8-3.661.933-5.53a3.033 3.033 0 0 0-.933-2.334 5.787 5.787 0 0 0-2.777-.98c-1.796-.233-3.966 0-5.25 0-2.73-.163-5.483-.21-8.26-.186-4.106 0-8.236.233-12.296.396a.723.723 0 0 0-.677.56.724.724 0 0 0-.467.56c-.676 3.64-1.54 7.42-2.006 11.317-.327 2.567-.49 5.157-.654 7.747 0 .98-.303 2.73-.396 4.153a8.61 8.61 0 0 0 0 2.123 2.475 2.475 0 0 0 1.306 1.68c1.102.479 2.3.695 3.5.63h.187a3.92 3.92 0 0 0 0 2.077c.286.9.81 1.706 1.517 2.333 2.333 1.96 8.75 3.15 9.006-2.893a4.37 4.37 0 0 0 0-.747c1.4.187 2.754.397 4.154.467.621.047 1.245.047 1.866 0 .63 0 1.26 0 1.867-.14l3.033-.467c-.034.472.013.945.14 1.4a5.04 5.04 0 0 0 1.494 2.334c2.333 1.96 8.773 3.15 9.03-2.894v-.56c0-.186.116 0 .186 0 .794 0 1.68.234 2.544.234a4.947 4.947 0 0 0 2.03-.42 8.89 8.89 0 0 0 3.966-6.767 14.233 14.233 0 0 0-.98-7.56zM19.318 42.91a2.754 2.754 0 0 1-.886-1.774c-.14-.746.443-1.376 1.05-1.89a2.965 2.965 0 0 1 2.216-.746 2.777 2.777 0 0 1 2.637 2.706c0 2.52-2.59 3.757-5.017 1.704zm15.05-4.9h-1.89c-.624.013-1.247.06-1.866.14-1.47.186-2.87.513-4.34.746a5.39 5.39 0 0 0-4.27-3.29 5.693 5.693 0 0 0-4.48 1.54c-.37.363-.69.77-.957 1.214a.723.723 0 0 0-.63-.397 7.282 7.282 0 0 1-1.867-.42c-.373-.14-.77-.257-.816-.63a6.117 6.117 0 0 1 .14-1.493c.233-1.47.676-3.22.793-4.2.21-2.567.56-5.087.77-7.63.327-3.78.443-7.56.677-11.317 3.92 0 7.91.187 11.876.42 2.707.14 5.39.35 8.05.653 9.17.957 6.767-1.75 5.414 5.6-.467 2.637-.84 5.25-1.19 7.91-.49 3.64-.91 7.28-1.33 10.944a4.137 4.137 0 0 0-.374.513c-1.166-.117-2.426-.257-3.71-.303zm6.44 4.9a2.754 2.754 0 0 1-.886-1.774c-.14-.746.42-1.376 1.05-1.89a2.965 2.965 0 0 1 2.216-.746 2.8 2.8 0 0 1 2.544 2.706c.116 2.52-2.497 3.757-4.924 1.704z" fill="#623061"/><path fill-rule="evenodd" clip-rule="evenodd" d="M36.352 21.863a1.704 1.704 0 0 0-.957-.63h-1.563c-.42 0-.492.14-1.215.163.36-.883.64-1.797.84-2.73a3.57 3.57 0 0 0 0-1.75 1.4 1.4 0 0 0-1.33-.816c-.513 0-1.867.163-1.913.163-1.097 0-2.17 0-3.267.14s-2.24-.07-3.313-.07a.748.748 0 0 0-.864.63.677.677 0 0 0 .117.42.677.677 0 0 0-.653.35l-1.307 2.17-1.587 2.684s-.35.583-.466.793a1.306 1.306 0 0 0 .256 1.563c.426.47.976.81 1.587.98.93.233 1.891.312 2.847.234.302-.024.607-.024.91 0-.164.396-.374.793-.42.933a14.305 14.305 0 0 1-.677 1.75c-.63 1.26-1.377 2.497-1.937 3.826l-.21.42a.886.886 0 0 0 .374 1.167c2.483-1.03 4.024-2.247 6.325-3.64a54.136 54.136 0 0 0 5.856-3.873 14.387 14.387 0 0 0 1.774-1.657 4.526 4.526 0 0 0 1.026-1.796 1.495 1.495 0 0 0-.233-1.424zm-3.548 2.777a48.79 48.79 0 0 1-5.227 4.06c-.793.56-1.563 1.05-2.333 1.54.054-.099.116-.192.186-.28.394-.617.753-1.256 1.074-1.913.372-.844.67-1.718.886-2.614a1.586 1.586 0 0 0-.746-1.587 3.99 3.99 0 0 0-1.75-.583 19.331 19.331 0 0 0-2.59 0h-.607l.957-2.543.933-2.333a.77.77 0 0 0 0-.607 37.43 37.43 0 0 0 3.197.42c1.073.093 2.333.187 3.36.21l.676.163v.117c-.233.607-.536 1.166-.723 1.563-.205.324-.392.659-.56 1.003a1.494 1.494 0 0 0 .163 1.54 3.174 3.174 0 0 0 1.844 1.05c.61.101 1.225.156 1.843.164l-.583.63zM7.892 25.415a2.824 2.824 0 0 0-.723-.21 2.845 2.845 0 0 0-.77 0c-.467 0-2.622.088-2.646.858 0 .234-.14.677 2.334 1.517.208.086.429.14.653.163.233.024.467.024.7 0 2.753 0 2.683-.7 2.73-.91.047-.21.056-.53-2.278-1.418zM5.201 16.333c.461.093.93.14 1.4.14.474.035.95.035 1.423 0 4.34-.233 4.154-.77 4.154-1.213 0-.443-.374-.957-4.037-1.54l-1.377-.163c-.45-.024-.902-.024-1.353 0-4.13.233-4.037.56-4.083.98-.047.42-.07 1.05 3.873 1.796zM7.347 19.133H6.04a19.544 19.544 0 0 0-2.024 0c-2.66.222-3.016.251-3.015.887 0 .397-.514.957 3.64 1.773.431.074.868.113 1.306.117.435.035.872.035 1.307 0 3.453-.327 3.85-.537 3.873-1.26.024-.723-.326-1.027-3.78-1.517z" fill="#623061"/></svg>
