<svg width="36" height="36" viewBox="0 0 36 36" fill="none" xmlns="http://www.w3.org/2000/svg">
<path d="M10.6658 11.2838C10.2012 10.9852 9.58247 11.1197 9.28382 11.5842C8.98517 12.0488 9.11967 12.6675 9.58424 12.9662L10.6658 11.2838ZM18 17.1875L17.4592 18.0287C17.7793 18.2344 18.1883 18.2407 18.5145 18.045L18 17.1875ZM26.952 12.9825C27.4256 12.6983 27.5791 12.0841 27.295 11.6105C27.0108 11.1369 26.3966 10.9834 25.923 11.2675L26.952 12.9825ZM10 22.0543V13.25H8V22.0543H10ZM11.25 12H24.75V10H11.25V12ZM26 13.25V22.0543H28V13.25H26ZM26 22.0543C26 22.7447 25.4404 23.3044 24.75 23.3044V25.3044C26.5449 25.3044 28 23.8493 28 22.0543H26ZM24.75 12C25.4404 12 26 12.5596 26 13.25H28C28 11.4551 26.5449 10 24.75 10V12ZM10 13.25C10 12.5596 10.5596 12 11.25 12V10C9.45507 10 8 11.4551 8 13.25H10ZM11.25 23.3044C10.5596 23.3044 10 22.7447 10 22.0543H8C8 23.8493 9.45507 25.3044 11.25 25.3044V23.3044ZM9.58424 12.9662L17.4592 18.0287L18.5408 16.3463L10.6658 11.2838L9.58424 12.9662ZM18.5145 18.045L26.952 12.9825L25.923 11.2675L17.4855 16.33L18.5145 18.045ZM24.75 23.3044H11.25V25.3044H24.75V23.3044Z" fill="#0A327A"/>
</svg>
