<svg width="48" height="48" viewBox="0 0 48 48" fill="none" xmlns="http://www.w3.org/2000/svg">
<path d="M37.6164 18.4614C37.6164 20.2797 37.2597 22.0802 36.5667 23.7601C35.8737 25.44 34.858 26.9664 33.5775 28.2521C32.297 29.5378 30.7769 30.5577 29.1038 31.2536C27.4308 31.9494 25.6376 32.3075 23.8267 32.3075C22.0159 32.3075 20.2227 31.9494 18.5497 31.2536C16.8766 30.5577 15.3565 29.5378 14.076 28.2521C12.7955 26.9664 11.7798 25.44 11.0868 23.7601C10.3938 22.0802 10.0371 20.2797 10.0371 18.4614C10.0371 14.7892 11.4899 11.2673 14.076 8.67068C16.6621 6.07402 20.1695 4.61523 23.8267 4.61523C27.484 4.61523 30.9914 6.07402 33.5775 8.67068C36.1636 11.2673 37.6164 14.7892 37.6164 18.4614Z" fill="#0A327A"/>
<path d="M14.1602 32.1909L13.4136 34.9245C12.1765 39.4582 11.5579 41.725 12.3833 42.9652C12.6729 43.4004 13.061 43.7485 13.5121 43.9799C14.7965 44.6366 16.7822 43.5982 20.7516 41.5212C22.0715 40.8289 22.7334 40.4848 23.4347 40.4096C23.6953 40.3816 23.9582 40.3816 24.2188 40.4096C24.9201 40.4848 25.58 40.8309 26.9018 41.5212C30.8713 43.5982 32.857 44.6366 34.1414 43.9799C34.5925 43.7485 34.9806 43.4004 35.2702 42.9652C36.0975 41.725 35.477 39.4582 34.2399 34.9245L33.4933 32.1909C30.6684 34.2022 27.2897 35.28 23.8267 35.2747C20.3637 35.2801 16.985 34.2023 14.1602 32.1909Z" fill="#0A327A"/>
</svg>
