<svg fill="none" xmlns="http://www.w3.org/2000/svg" viewBox="0 0 67 67"><path fill-rule="evenodd" clip-rule="evenodd" d="M64.835 30.252a11.537 11.537 0 0 0-4.414-4.55 33.446 33.446 0 0 0-8.288-2.709.894.894 0 0 0-1.11.57.92.92 0 0 0 .569 1.137l1.652.623-1.056 3.168c-.352 1.084-.705 1.95-.867 2.709a4.117 4.117 0 0 0 .38 2.708 4.928 4.928 0 0 0 3.628 2.167l2.194.379 3.683.244a.975.975 0 0 0 1.057-.948 1.029 1.029 0 0 0-.948-1.056l-3.115-.867-2.085-.786a4.849 4.849 0 0 1-1.057-.487c-.243-.136-.406-.217-.433-.434a14.515 14.515 0 0 1 .19-3.222l.352-2.871a16.897 16.897 0 0 1 3.873 2.004 8.532 8.532 0 0 1 2.925 3.71c.525 1.29.801 2.67.812 4.063a20.149 20.149 0 0 1-.27 4.414 6.634 6.634 0 0 1-2.357 4.659 4.063 4.063 0 0 1-1.3.406c-.902.054-1.806.054-2.708 0a1.084 1.084 0 0 0-.623.217 6.228 6.228 0 0 0-4.93-4.144 6.473 6.473 0 0 0-3.439.704c.596-3.467 1.192-6.96 1.842-10.427a250.101 250.101 0 0 1 1.841-8.964c.567-2.1.93-4.25 1.084-6.42a3.523 3.523 0 0 0-1.084-2.708 6.715 6.715 0 0 0-3.222-1.137c-2.086-.271-4.605 0-6.094 0-3.169-.19-6.365-.244-9.588-.217-4.766 0-9.56.271-14.273.46a.84.84 0 0 0-.785.65.84.84 0 0 0-.542.65c-.785 4.226-1.787 8.613-2.329 13.136-.38 2.98-.569 5.986-.758 8.992 0 1.137-.352 3.168-.46 4.82a10.002 10.002 0 0 0 0 2.465 2.872 2.872 0 0 0 1.516 1.95c1.28.556 2.67.806 4.062.731h.217a4.55 4.55 0 0 0 0 2.41 6.093 6.093 0 0 0 1.76 2.71c2.709 2.274 10.157 3.655 10.455-3.36a5.078 5.078 0 0 0 0-.866c1.625.217 3.196.46 4.82.542.722.054 1.446.054 2.167 0 .731 0 1.463 0 2.167-.163l3.52-.541c-.04.547.015 1.096.163 1.625a5.85 5.85 0 0 0 1.734 2.708c2.708 2.275 10.183 3.656 10.48-3.358v-.65c0-.217.136 0 .217 0 .921 0 1.95.27 2.953.27a5.744 5.744 0 0 0 2.356-.487 10.319 10.319 0 0 0 4.604-7.854 16.52 16.52 0 0 0-1.138-8.775zM22.261 49.806a3.197 3.197 0 0 1-1.03-2.058c-.162-.867.515-1.598 1.22-2.194a3.44 3.44 0 0 1 2.572-.867 3.223 3.223 0 0 1 3.06 3.142c0 2.925-3.006 4.36-5.822 1.977zm17.468-5.688h-2.194c-.724.015-1.447.07-2.166.163-1.706.217-3.331.596-5.038.867a6.256 6.256 0 0 0-4.956-3.82 6.606 6.606 0 0 0-5.2 1.788c-.428.42-.802.894-1.11 1.409a.84.84 0 0 0-.732-.46 8.451 8.451 0 0 1-2.166-.488c-.434-.163-.894-.298-.948-.731a7.1 7.1 0 0 1 .162-1.734c.271-1.706.786-3.737.921-4.875.244-2.979.65-5.904.894-8.856.38-4.387.514-8.775.785-13.136 4.55 0 9.182.217 13.786.488 3.141.162 6.256.406 9.344.758 10.643 1.11 7.854-2.03 6.283 6.5-.542 3.06-.975 6.094-1.381 9.182-.57 4.225-1.057 8.45-1.544 12.702-.16.187-.305.386-.434.596-1.354-.136-2.816-.298-4.306-.352zm7.475 5.688a3.196 3.196 0 0 1-1.029-2.058c-.162-.867.488-1.598 1.219-2.194a3.44 3.44 0 0 1 2.573-.867 3.25 3.25 0 0 1 2.952 3.142c.135 2.925-2.898 4.36-5.715 1.977z" fill="#623061"/><path fill-rule="evenodd" clip-rule="evenodd" d="M41.502 25.668c-.37-.363-.897-.62-1.493-.729h-2.438c-.655 0-.767.162-1.896.19a15.54 15.54 0 0 0 1.31-3.159 3.102 3.102 0 0 0 0-2.024c-.18-.292-.473-.538-.843-.707a2.794 2.794 0 0 0-1.23-.238c-.802 0-2.912.19-2.985.19-1.71 0-3.385 0-5.096.161-1.71.162-3.494-.08-5.168-.08a1.563 1.563 0 0 0-.461.01 1.383 1.383 0 0 0-.42.143 1.028 1.028 0 0 0-.31.253.735.735 0 0 0-.155.322.642.642 0 0 0 .181.486 1.373 1.373 0 0 0-.59.09.971.971 0 0 0-.429.315l-2.038 2.51-2.475 3.104s-.546.675-.727.917a1.18 1.18 0 0 0-.212.955c.072.326.287.627.612.854.664.543 1.522.936 2.475 1.133 1.45.27 2.95.36 4.44.27.472-.027.947-.027 1.42 0-.255.46-.583.918-.656 1.08a14.283 14.283 0 0 1-1.055 2.024c-.983 1.458-2.148 2.888-3.021 4.427l-.328.486a.787.787 0 0 0-.073.76c.108.252.343.463.656.589 3.874-1.192 6.278-2.6 9.866-4.21a91.233 91.233 0 0 0 9.135-4.481c.993-.58 1.918-1.22 2.766-1.916.743-.592 1.291-1.303 1.601-2.079a1.31 1.31 0 0 0 .104-.858 1.553 1.553 0 0 0-.468-.788zm-5.535 3.212a77.669 77.669 0 0 1-8.153 4.696c-1.237.648-2.439 1.215-3.64 1.782.085-.114.182-.223.292-.324a21.46 21.46 0 0 0 1.674-2.213 14.976 14.976 0 0 0 1.383-3.023 1.42 1.42 0 0 0-.21-1.048c-.207-.327-.539-.6-.955-.788a7.791 7.791 0 0 0-2.73-.675 40.624 40.624 0 0 0-4.04 0h-.946l1.492-2.941 1.456-2.7a.7.7 0 0 0 .098-.35c0-.121-.034-.24-.098-.351 1.675.216 3.312.378 4.987.485 1.674.108 3.64.216 5.24.243l1.056.19v.134c-.364.702-.837 1.35-1.128 1.809-.32.374-.611.762-.874 1.16a1.343 1.343 0 0 0-.208.917c.045.314.205.613.463.865.742.637 1.757 1.066 2.875 1.214.95.117 1.912.18 2.876.19l-.91.728zM8.999 29.5c-.268-.119-.55-.2-.84-.244a3.302 3.302 0 0 0-.893 0c-.542 0-3.044.102-3.071.996 0 .27-.162.785 2.708 1.76.243.1.498.164.759.19.27.027.542.027.812 0 3.196 0 3.115-.813 3.169-1.056.054-.244.064-.617-2.644-1.646zM5.874 18.958c.535.108 1.08.162 1.625.163.55.04 1.102.04 1.652 0 5.037-.271 4.82-.894 4.82-1.409 0-.514-.432-1.11-4.685-1.787l-1.598-.19a15.186 15.186 0 0 0-1.57 0c-4.794.271-4.686.65-4.74 1.138-.054.487-.081 1.218 4.496 2.085zM8.367 22.208H6.849c-.487-.04-1.863-.04-2.35 0-3.086.258-3.5.292-3.499 1.03 0 .46-.596 1.11 4.225 2.058.501.085 1.008.13 1.517.135.504.04 1.012.04 1.516 0 4.009-.379 4.47-.623 4.496-1.462.027-.84-.379-1.192-4.387-1.76z" fill="#623061"/></svg>
