<svg fill="none" xmlns="http://www.w3.org/2000/svg" viewBox="0 0 67 67"><g clip-path="url(#clip0_3150_504)" fill-rule="evenodd" clip-rule="evenodd" fill="#623061"><path d="M7.729 23.187a.708.708 0 0 0 1.416 0 27.584 27.584 0 0 0-.104-10.062c10.417-4.167 30.063-2.084 33.792.708.06.211.101.428.125.646.604 8.979-.104 10.041 1 10.041a.625.625 0 0 0 .625-.625c.167-9.916.458-10.562-.104-11.187-3.334-3.52-13.167-4.27-18.042-4.167-9.562-.062-18.312 2.709-18.625 3.875a16.52 16.52 0 0 0-.562 4.417c-.03 2.128.13 4.255.479 6.354zM41.167 39.813a.708.708 0 0 0-1.042-.959c-2.854 2.938-10.896 8.667-13.75 9a26.769 26.769 0 0 1-5.312-3.062c-8.75-6.042-8.521-7.146-9.271-6.25a.625.625 0 0 0 0 .875c2.5 2.395 11.48 11.354 14.875 10.895a20.373 20.373 0 0 0 6.562-3.395 49.226 49.226 0 0 0 7.938-7.105z"/><path d="M5.824 37.112c1.209 1.916 3.855 0 4.938-.334 4.167-1.166 9.25-3.354 13.562-2.958 2.438.23 2.084 1.083 2.48 2.083a5.396 5.396 0 0 0 5.27 2.563c2.25 0 6.792-1.459 11.042-1.792 1.146 0 2.27-.396 3.396-.562 2.083-.313 1.812.166 2.98 0 1.916 0 1.457-2.521 1.457-3.459 0-3.666 1.146-8.208-4.354-8.333a70.515 70.515 0 0 0-9.604 1.312c-3.437.875-3.917 1.105-4.437.73-.521-.375-1.084-2.084-2.792-2.98a18.75 18.75 0 0 0-13.25-.333 38.73 38.73 0 0 0-8.646 3.48c-2.75 1.645-4.167 2.228-3.812 3.083a23.5 23.5 0 0 0 1.77 7.5zm23.063-11.959c1.5.771 1.48 3.75 4.77 3.48 1.334 0 2.563-.605 3.772-.813 13-1.875 11.125-2.083 11.104 4.854 0 .125-.104.542-.146.917a24.459 24.459 0 0 0-5.48.646c-7.208.604-10.79 3.041-13.478 1.437-1.042-.625-.813-1.25-1.25-2.083-2.938-5.354-20.313 2.833-20.959 2.687a20.25 20.25 0 0 1-1.729-6.812c.208-.125 14.083-9.063 23.396-4.313zM14.583 44.938c-1.104 1.02-4.354 4.333-6.146 4.437a1.458 1.458 0 0 1 0-.333c2.271-4.459 1.896-3.417 2.084-3.959a1.333 1.333 0 0 0-1.605-1.812 11.5 11.5 0 0 1-4.687 1.146 12.834 12.834 0 0 0 4.542-5.021.625.625 0 0 0-1.084-.625 11.168 11.168 0 0 1-2.52 2.833 34.305 34.305 0 0 1-3.75 2.23c-1.355 1.083.666 3.687 5.687 2.603-.833 1.855-1.938 4.396.146 4.917 2.5.604 4.646-1.75 6.541-3.479.875-.792 2.667-2.375 1.917-3.104a1.04 1.04 0 0 0-1.125.166zM50.584 44c-.188-.146-.917-.542-.542-.292a11.71 11.71 0 0 1-5.791-4.75.624.624 0 1 0-1.084.625 12.73 12.73 0 0 0 4.459 5 11.605 11.605 0 0 1-4.605-1.104 1.312 1.312 0 0 0-1.604.792c-.291.916.292 1.583.709 2.229l1.416 2.73c.334.75-.708.312-1.333 0-2.521-1.334-3.334-3.167-4.167-2.21a.729.729 0 0 0 0 1 21.022 21.022 0 0 0 3.854 3.105c1.355.667 3.188.77 3.73-.646a6.584 6.584 0 0 0-.875-3.812c5.104 1.125 7.229-1.521 5.833-2.667z"/></g><defs><clipPath id="clip0_3150_504"><path fill="#fff" transform="translate(1 5)" d="M0 0h50v50H0z"/></clipPath></defs></svg>
