<svg fill="none" xmlns="http://www.w3.org/2000/svg" viewBox="0 0 67 67"><g clip-path="url(#clip0_3150_502)" fill="#623061"><path d="M43.147 42.5a20.58 20.58 0 0 0-3.562-4.167 21.227 21.227 0 0 0-4.48-2.98c-.52-.25-1.124-.54-1.812-.812a16.159 16.159 0 0 0-1.875-.687.646.646 0 0 0-.812.375.625.625 0 0 0 .375.812c.625.271 1.166.542 1.666.813.545.305 1.074.64 1.584 1A25 25 0 0 1 38 40.02a31.85 31.85 0 0 1 3.167 3.73 25.415 25.415 0 0 1 4.167 8.916.707.707 0 0 0 .833.584.73.73 0 0 0 .563-.834 24.625 24.625 0 0 0-3.584-9.916zM19.209 16.875a22.705 22.705 0 0 1-4.938.354.647.647 0 1 0 0 1.27c2.108.354 4.255.396 6.375.126 1.449-.23 2.854-.68 4.167-1.334l4.354-2.646c1.333-.958 1.333-.791 1.833-.25.792.854 1.771 2.084 2.709 2.98.352.363.728.704 1.125 1.02a.71.71 0 0 0 1.139-.301.71.71 0 0 0-.202-.761c-1.27-1.333-2.916-4-3.896-5.042a2.5 2.5 0 0 0-1.02-.708 1.792 1.792 0 0 0-1.084 0c-.603.284-1.182.619-1.729 1l-4.417 2.604a12.959 12.959 0 0 1-4.416 1.688zM28.314 35.917A5.79 5.79 0 0 1 27.96 38c-.275.38-.685.642-1.146.73-.569.16-1.16.223-1.75.187a6.56 6.56 0 0 1-2.084-.459 3.187 3.187 0 0 1-1.104-.666 2.312 2.312 0 0 1-.646-1.813 3.061 3.061 0 0 1 0-.812.876.876 0 0 0-1.52 0 3.521 3.521 0 0 0-.292 1.354 4 4 0 0 0 .75 2.646c.446.544.999.99 1.625 1.312a66.662 66.662 0 0 0-2.688 6.375 8.978 8.978 0 0 0-.5 2.084c0 .236.05.47.146.687a18.48 18.48 0 0 0 3.459 4.27 4.167 4.167 0 0 0 2.875 1.168c.3-.066.584-.194.833-.375a30.46 30.46 0 0 0 2.73-2.334 7.875 7.875 0 0 0 2.082-2.541 25.52 25.52 0 0 0-.979-5.5 37.372 37.372 0 0 0-1.27-3.896 3.749 3.749 0 0 0 1.354-1.563c.242-.795.327-1.63.25-2.458a7.726 7.726 0 0 0-.188-1.438c-.229-.395-1.562 0-1.541.355.02.354-.021.208-.042.604zm.229 13.229s0 .146-.146.208a33.804 33.804 0 0 1-3.291 2.854 4.354 4.354 0 0 1-.563.334l-.292-.23a10.795 10.795 0 0 1-1.437-1.25 23.087 23.087 0 0 1-1.98-2.312v-.687c.25-1.167.771-2.98 1.313-4.605.313-.958.625-1.854.896-2.541a8.33 8.33 0 0 0 1.896.375 6.478 6.478 0 0 0 2.083-.271c.364 1.17.663 2.36.896 3.562.317 1.504.525 3.03.625 4.563z"/><path d="M40.5 17.875a12.27 12.27 0 0 0-2.874-7.188 11.645 11.645 0 0 0-6.563-3.958.708.708 0 0 0-.755 1.078.73.73 0 0 0 .443.318 10.042 10.042 0 0 1 5.625 3.583 10.584 10.584 0 0 1 2.291 6.25 14.021 14.021 0 0 1-5.187 12.167c-3.146 2.27-7.604 3.083-13.23 1.812-7.333-1.562-10.166-8.937-8.687-15.312 1.375-5.875 6.438-10.938 15.333-10.23a.625.625 0 0 0 .688-.562.646.646 0 0 0-.5-.687c-9.958-1.125-15.77 4.479-17.48 11-1.853 7.104 1.188 15.27 8.876 17.77a20.23 20.23 0 0 0-1.688.646l-1.729.855a31.471 31.471 0 0 0-5.396 3.645 19.978 19.978 0 0 0-3.041 3.188A15.354 15.354 0 0 0 3.27 52.666a.646.646 0 0 0 1.271 0 13.73 13.73 0 0 1 2.75-7.291 29.75 29.75 0 0 1 3.959-4.5 37.163 37.163 0 0 1 4.729-3.854c.5-.334 1-.667 1.541-.959.511-.297 1.04-.561 1.584-.791a.729.729 0 0 0 .416-.938c3.177.701 6.47.701 9.646 0a14.583 14.583 0 0 0 5.688-2.396A15.98 15.98 0 0 0 40.5 17.875z"/><path d="M20.834 23.312a.708.708 0 0 0 1.208-.51.729.729 0 0 0-.208-.51 3.896 3.896 0 0 0-2.855-1.772 3.083 3.083 0 0 0-.875 0 3.207 3.207 0 0 0-1.208.417 5.063 5.063 0 0 0-1.917 2.083.645.645 0 0 0 0 .896.626.626 0 0 0 .896 0 5.686 5.686 0 0 1 1.896-.729A4.916 4.916 0 0 1 18.854 23a2.563 2.563 0 0 1 1.98.312zM32.105 22.75c.68.084 1.337.296 1.938.625a.646.646 0 0 0 .895 0 .623.623 0 0 0 0-.896 5.25 5.25 0 0 0-2.083-1.917 3.583 3.583 0 0 0-1.23-.333c-.29-.03-.583-.03-.874 0A3.917 3.917 0 0 0 28 22.187a.748.748 0 0 0 1.167.938 2.604 2.604 0 0 1 1.833-.5c.371 0 .742.042 1.104.125zM20.835 29.083c.345.31.722.583 1.125.813.501.27 1.032.48 1.583.625.547.126 1.106.19 1.667.187a7.02 7.02 0 0 0 3.292-.937c.298-.18.577-.39.833-.625.32-.328.62-.676.896-1.042a.715.715 0 0 0-1.021-1c-.27.209-.5.417-.792.604a2.663 2.663 0 0 1-.729.375c-.798.229-1.633.3-2.458.209h-1.25a10.782 10.782 0 0 1-1.23-.209 4.537 4.537 0 0 1-1.187-.458c-.417-.23-.812-.48-1.23-.75a.606.606 0 0 0-.874 0 .625.625 0 0 0 0 .875c.458.438.854.896 1.375 1.333z"/></g><defs><clipPath id="clip0_3150_502"><path fill="#fff" transform="translate(0 5)" d="M0 0h50v50H0z"/></clipPath></defs></svg>
