<svg width="104" height="104" viewBox="0 0 104 104" fill="none" xmlns="http://www.w3.org/2000/svg">
<path d="M42.8995 48.2734C44.1167 48.1179 45.2819 47.685 46.3054 47.0081C47.3289 46.3313 48.1833 45.4285 48.8029 44.3693C49.4225 43.3102 49.7907 42.1229 49.8791 40.899C49.9675 39.6752 49.7738 38.4473 49.3128 37.3101C48.6628 35.5334 47.5362 33.2368 45.9328 34.2334C45.7672 34.3353 45.6234 34.469 45.5097 34.6268C45.396 34.7845 45.3147 34.9632 45.2704 35.1525C45.2261 35.3418 45.2197 35.5381 45.2516 35.7299C45.2835 35.9217 45.353 36.1053 45.4562 36.2701C49.2695 43.3768 39.9962 46.1068 36.7895 41.5568C36.3916 40.4351 36.3399 39.2198 36.6413 38.0685C36.9426 36.9171 37.5831 35.8829 38.4795 35.1001C39.3359 34.4502 40.3057 33.9653 41.3395 33.6701C43.5062 33.2368 44.8495 35.4034 45.6728 33.6701C45.8514 33.3699 45.906 33.012 45.8251 32.6723C45.7442 32.3325 45.5342 32.0376 45.2395 31.8501C43.9568 30.9931 42.4488 30.5356 40.9062 30.5356C39.3635 30.5356 37.8555 30.9931 36.5728 31.8501C34.4037 33.0252 32.7862 35.0092 32.0721 37.3706C31.358 39.732 31.605 42.2799 32.7595 44.4601C33.9127 45.9935 35.4789 47.1665 37.2748 47.8419C39.0706 48.5172 41.0217 48.6669 42.8995 48.2734Z" fill="#623061"/>
<path d="M73.8823 62.8768C73.6755 62.5435 73.3447 62.306 72.9627 62.2166C72.5808 62.1272 72.179 62.1932 71.8457 62.4001C71.5124 62.607 71.2749 62.9377 71.1855 63.3197C71.0961 63.7016 71.1621 64.1035 71.369 64.4368C75.1823 71.5868 65.909 74.2301 62.7023 69.7234C62.2839 68.6185 62.2048 67.4138 62.4749 66.2635C62.7451 65.1133 63.3524 64.0699 64.219 63.2668C66.3857 61.8801 67.5557 61.1868 69.809 62.3568C69.9527 62.45 70.1139 62.5129 70.2827 62.5415C70.4516 62.5702 70.6245 62.564 70.7908 62.5235C70.9572 62.4829 71.1136 62.4087 71.2502 62.3055C71.3869 62.2024 71.5011 62.0723 71.5857 61.9234C72.5823 60.3201 69.5923 58.9768 67.729 58.7168C65.8909 58.6506 64.0677 59.069 62.4423 59.9301C61.2144 60.6179 60.1491 61.5622 59.319 62.6989C58.489 63.8355 57.9137 65.1377 57.6323 66.5168C57.3534 67.9798 57.4562 69.4901 57.9309 70.9019C58.4056 72.3137 59.2361 73.5793 60.3424 74.5767C61.4486 75.574 62.7932 76.2694 64.2465 76.5958C65.6997 76.9222 67.2125 76.8686 68.639 76.4401C70.1152 76.2482 71.5123 75.6617 72.6831 74.7425C73.854 73.8233 74.7552 72.6053 75.292 71.2168C75.8287 69.8284 75.9811 68.3209 75.733 66.8531C75.4849 65.3854 74.8456 64.0117 73.8823 62.8768Z" fill="#623061"/>
<path d="M74.4891 33.8432C54.9025 45.1099 48.4891 53.0399 35.1858 68.5099C34.0591 69.7232 32.4558 72.0632 30.8525 72.5399C30.5192 72.6376 30.2383 72.8636 30.0717 73.1684C29.9051 73.4731 29.8664 73.8316 29.9641 74.1649C30.0618 74.4981 30.2879 74.779 30.5926 74.9456C30.8974 75.1122 31.2558 75.1509 31.5891 75.0532C37.2225 73.5799 60.3191 46.4965 75.9625 36.6165C76.3302 36.4212 76.6053 36.0877 76.7272 35.6895C76.8491 35.2913 76.8078 34.861 76.6125 34.4932C76.4171 34.1254 76.0836 33.8503 75.6854 33.7284C75.2872 33.6065 74.8569 33.6478 74.4891 33.8432Z" fill="#623061"/>
<path d="M96.4595 32.6733C95.0013 31.6779 93.4116 30.8904 91.7362 30.3333C91.7362 28.7733 92.3428 26 92.2128 24.4833C91.6188 19.3907 89.4355 14.6146 85.9728 10.8333C83.9785 8.8619 81.496 7.45611 78.7795 6.76001C76.6423 5.88862 74.3116 5.60193 72.0269 5.92941C69.7422 6.25688 67.5859 7.1867 65.7795 8.62335C64.6528 2.86001 56.9828 1.04001 51.3062 2.34001C47.7312 3.03797 44.4186 4.7105 41.7345 7.17287C39.0503 9.63525 37.0991 12.7916 36.0962 16.2933C33.2067 14.6212 29.8303 13.9929 26.5327 14.5135C23.2351 15.0342 20.2166 16.6723 17.9828 19.1533C15.2515 21.8457 13.5757 25.4279 13.2595 29.25C13.4126 30.2863 13.8473 31.2606 14.5162 32.0667C4.89617 35.2733 -1.60383 48.9667 0.34617 58.8033C1.20046 61.9204 2.74127 64.8068 4.8557 67.2511C6.97014 69.6955 9.60463 71.6358 12.5662 72.93C5.8495 83.59 14.6028 101.53 40.3862 99.97C43.9552 99.4787 47.3087 97.9749 50.0495 95.6367C51.3757 97.6082 53.1806 99.2109 55.2951 100.295C57.4096 101.378 59.7646 101.908 62.1395 101.833C80.2095 102.743 92.9495 86.4067 91.2162 73.2333C90.9562 71.24 90.5228 72.67 93.1228 71.11C97.7161 67.6781 101.112 62.8872 102.829 57.4167C105.733 47.6667 103.09 40.6033 96.4595 32.6733ZM98.4528 56.3333C97.0186 60.6443 94.3335 64.4307 90.7395 67.21C88.0095 68.0767 89.0062 67.9033 87.0995 67.9033C86.5793 67.8592 86.0584 67.981 85.6117 68.2514C85.1651 68.5217 84.8155 68.9267 84.6134 69.408C84.4112 69.8894 84.3668 70.4225 84.4864 70.9307C84.6061 71.4389 84.8838 71.8961 85.2795 72.2367C89.0062 76.18 83.8928 90.4367 73.4928 94.9867C70.7509 96.3975 67.7184 97.1516 64.635 97.1892C61.5516 97.2268 58.5017 96.5469 55.7262 95.2033C54.2528 94.1633 53.6462 91.8667 52.3028 90.4367C51.7836 90.0107 51.1328 89.7778 50.4612 89.7778C49.7896 89.7778 49.1387 90.0107 48.6195 90.4367C46.3683 92.9872 43.3082 94.6856 39.9528 95.2467C18.2862 96.7633 11.5695 82.9833 16.2495 75.4C18.1562 74.88 20.5828 74.5333 20.3662 71.9333C20.3818 71.3478 20.1812 70.7771 19.8028 70.33C18.8928 69.3333 18.0262 69.5067 16.7262 69.7667C13.775 69.1345 11.0559 67.6992 8.86899 65.6193C6.68202 63.5394 5.11222 60.8957 4.33284 57.98C2.12284 48.8367 9.40284 34.6667 18.7195 34.6667C19.139 34.7471 19.5732 34.6576 19.9268 34.4179C20.2803 34.1782 20.5241 33.8078 20.6045 33.3883C20.685 32.9689 20.5955 32.5346 20.3557 32.1811C20.116 31.8276 19.7457 31.5838 19.3262 31.5033C18.8939 31.421 18.4724 31.2902 18.0695 31.1133C15.9895 29.64 16.0328 28.2533 17.3328 26C18.2669 22.9047 20.3815 20.3014 23.2195 18.7526C26.0575 17.2039 29.3911 16.8341 32.4995 17.7233C37.3528 18.98 36.8328 20.3667 37.6995 20.67C38.0324 20.7515 38.3839 20.7026 38.6819 20.5335C38.98 20.3643 39.2021 20.0876 39.3028 19.76C39.7362 18.33 36.2262 14.1267 45.7162 8.19001C47.425 6.97543 49.3601 6.11573 51.4068 5.66172C53.4536 5.2077 55.5707 5.16859 57.6328 5.54668C63.3095 6.80335 62.5728 10.14 63.3528 11.83C63.4595 12.1344 63.6385 12.4083 63.8744 12.6283C64.1103 12.8483 64.3961 13.0078 64.7072 13.093C65.0183 13.1782 65.3454 13.1867 65.6605 13.1177C65.9756 13.0486 66.2692 12.9042 66.5162 12.6967C67.9009 11.0901 69.7798 9.98858 71.8581 9.56508C73.9364 9.14158 76.0965 9.42 77.9995 10.3567C80.0116 10.9483 81.8506 12.0178 83.3598 13.4742C84.8689 14.9305 86.0033 16.7303 86.6662 18.72C88.247 22.3811 88.5967 26.4564 87.6628 30.3333C87.6628 33.54 89.0495 33.4967 93.2962 35.36C98.7995 42.25 101.009 47.8833 98.4528 56.3333Z" fill="#623061"/>
</svg>
