<svg fill="none" xmlns="http://www.w3.org/2000/svg" viewBox="0 0 67 67"><g clip-path="url(#clip0_3150_500)" fill-rule="evenodd" clip-rule="evenodd" fill="#623061"><path d="M4.813 30.333c2.083 1.583 3.563.104 1.958-1.646l-.166-.167a11.43 11.43 0 0 0-1.084-.916c-.395-.292-.812-.542-1.229-.792a17.852 17.852 0 0 0-3.166-1.396.778.778 0 1 0-.688 1.396c.896.604 1.646 1.375 2.5 2.083.548.487 1.125.94 1.73 1.354l.145.084zM25 41.687a.774.774 0 1 0-1.458.52 2.333 2.333 0 0 1-1.854 2.73 2.292 2.292 0 0 1-1.063-.23 2.896 2.896 0 0 1-.958-.604 7.212 7.212 0 0 1-.52-.604 1.605 1.605 0 0 1-.21-.479 1.708 1.708 0 0 1 .167-1.167c.146-.145.25-.291.375-.437a2.23 2.23 0 0 1 .646-.604 2.812 2.812 0 0 1 3.084 0 .687.687 0 0 0 .958-.98 4.166 4.166 0 0 0-4.02-1.124 3.543 3.543 0 0 0-.147-.959.791.791 0 0 0-1.452-.08.77.77 0 0 0-.027.601 1.75 1.75 0 0 1 0 1.083c-.642.368-1.174.9-1.542 1.542a1.174 1.174 0 0 1-.25 0 2.083 2.083 0 0 1-1.041-.229c-.401-.093-.778-.27-1.104-.52a3.665 3.665 0 0 1-.5-.605 1.271 1.271 0 0 1-.23-.48A2.083 2.083 0 0 1 15 36.875a2.77 2.77 0 0 1 3.084 0 .693.693 0 0 0 .958-1 3.935 3.935 0 0 0-3.333-1.208 3.21 3.21 0 0 0-.25-1.708.775.775 0 0 0-1.459.52 2.082 2.082 0 0 1-.396 1.771c-.405.216-.777.49-1.104.813-.12.06-.245.11-.375.146-.36 0-.715-.078-1.041-.23a2.896 2.896 0 0 1-.959-.604 4.71 4.71 0 0 1-.52-.604 1.167 1.167 0 0 1-.209-.5 1.958 1.958 0 0 1 1.188-2.187 2.813 2.813 0 0 1 3.083 0 .688.688 0 0 0 .917-.98 4.834 4.834 0 0 0-4.917-.916 3.812 3.812 0 0 0-2.083 1.646c-.6.839-.867 1.87-.75 2.895.073.44.221.862.437 1.25.296.464.645.89 1.042 1.271a5.083 5.083 0 0 0 2.104 1.084c.318.097.647.153.98.166a4.16 4.16 0 0 0 0 1.021c.076.434.232.85.457 1.23.282.479.633.914 1.042 1.291a5.27 5.27 0 0 0 2.083 1.083 4.875 4.875 0 0 0 1.521.167c.01.055.01.112 0 .167a3.5 3.5 0 0 0 .459 1.25c.282.473.633.9 1.041 1.27a4.875 4.875 0 0 0 2.084 1.084c.762.216 1.57.216 2.333 0a4.376 4.376 0 0 0 2.604-2.188 3.77 3.77 0 0 0-.02-3.187zM22.501 18.229c.283.054.562.13.833.229 1.438.583 2.23-.938 1.188-1.604a6.126 6.126 0 0 0-1.667-.688 11.024 11.024 0 0 0-3.958-.125c-1.162.079-2.33.023-3.48-.166l-4.27-1.604a15.849 15.849 0 0 0-3.063-.938.646.646 0 0 0-.583.75.667.667 0 0 0 .604.604s.25.125.48.25c1.291.667 4.02 2.375 5.874 3.313a6.25 6.25 0 0 0 2.48.791l2.354-.479a11.062 11.062 0 0 1 3.208-.333zM49.834 13.062a.792.792 0 0 0-1.084-.27l-3.708 2.083c-.665.38-1.362.701-2.084.958-.423.136-.867.2-1.312.188a16.2 16.2 0 0 1-2.083-.167 14.118 14.118 0 0 1-1.813-.438c-.875-.291-1.708-.666-2.583-.916a6.813 6.813 0 0 0-2.084-.292 5.5 5.5 0 0 0-1.645.333 8.646 8.646 0 0 0-2.084 1.021c-.52.313-5.312 4.75-5.77 5.23a12.751 12.751 0 0 0-2.084 2.562c-.4.708-.629 1.5-.666 2.313a3.144 3.144 0 0 0 .958 2.583 4.168 4.168 0 0 0 3.52.791 6.813 6.813 0 0 0 2.938-1.375 19.934 19.934 0 0 0 2.375-2.229c1.061.446 2.186.72 3.334.813.54.062 1.085.062 1.624 0a6.938 6.938 0 0 0 1.563-.417 9.355 9.355 0 0 0 3.063-2.083.667.667 0 0 0 .166-.959.687.687 0 0 0-.958-.166c-.959.406-1.968.68-3 .812l-1.813.313c-.416 0-.791.146-1.208.166-.652.053-1.307.053-1.958 0a.437.437 0 0 0 0-.229.666.666 0 0 0-.959 0 26.58 26.58 0 0 1-3.166 2.688 5.25 5.25 0 0 1-2.25.875 2.48 2.48 0 0 1-1.625-.292 1.042 1.042 0 0 1-.521-1.125c.087-.477.272-.93.541-1.333.52-.727 1.12-1.391 1.792-1.98 1.021-1.02 2.084-2.083 3.167-3.104a17.167 17.167 0 0 1 2.187-1.708A8.521 8.521 0 0 1 31.875 17c.82-.36 1.74-.427 2.604-.188.855.188 1.667.5 2.521.75.747.186 1.506.318 2.271.396.75.042 1.5.042 2.25 0a6.25 6.25 0 0 0 1.958-.375 15.283 15.283 0 0 0 2.375-1.25l3.605-2.27a.77.77 0 0 0 .374-1z"/><path d="M38.688 34.167a8.166 8.166 0 0 0-.459-1.063 15.95 15.95 0 0 0-2.083-2.812l-2.23-2.542a.687.687 0 0 0-1.103.813l1.646 2.958c.541.865 1.015 1.77 1.416 2.708.254.526.423 1.089.5 1.667a2.605 2.605 0 0 1-.52 2.083 2.563 2.563 0 0 1-1.084.73 2.434 2.434 0 0 0-.104-.23 15.866 15.866 0 0 0-1.458-1.854l-3-3.396a.78.78 0 0 0-1.292.875l2.333 3.98c.397.557.766 1.134 1.104 1.729.18.307.32.636.417.979a1.208 1.208 0 0 1-.292 1.437 2.084 2.084 0 0 1-1.041.459V42.5a7.127 7.127 0 0 0-.813-1.333c-.5-.604-.979-1.188-1.52-1.75-.542-.563-1.042-1.104-1.605-1.625a.688.688 0 0 0-.958-.104.708.708 0 0 0-.104.979c.333.5.625.979.916 1.5.292.52.813 1.52 1.188 2.312l.583 1.417-.291.5a1.938 1.938 0 0 1-1.271.875 2.084 2.084 0 0 1-1.5-.167.771.771 0 0 0-1.063.25.791.791 0 0 0 .25 1.084c.67.58 1.53.892 2.417.875a4.166 4.166 0 0 0 3.104-1.271 4.17 4.17 0 0 0 .75-1.063c.064-.203.106-.413.125-.625a4.167 4.167 0 0 0 2.083-.395 3.396 3.396 0 0 0 1.688-3.542 4.46 4.46 0 0 0 2.083-1 4.793 4.793 0 0 0 1.563-3.396 7.65 7.65 0 0 0-.375-1.854zM50 31.605a.771.771 0 0 0-.937-.563c-1.271.146-2.5.188-3.73.396-.836.134-1.659.344-2.458.625-.919.346-1.793.801-2.604 1.354-1.708.709-.688 2.084.917 1.625l1.937-.396 1.458-.354 1.438-.458a76.008 76.008 0 0 0 3.417-1.292.771.771 0 0 0 .562-.937z"/></g><defs><clipPath id="clip0_3150_500"><path fill="#fff" transform="translate(0 5)" d="M0 0h50v50H0z"/></clipPath></defs></svg>
