<svg width="65" height="65" viewBox="0 0 65 65" fill="none" xmlns="http://www.w3.org/2000/svg">
<g clip-path="url(#clip0_993_16668)">
<path d="M41.6103 29.5267C42.1368 29.3014 42.5954 28.9426 42.9407 28.4857C43.286 28.0289 43.506 27.4898 43.5791 26.9218C43.6521 26.3538 43.5757 25.7766 43.3573 25.2472C43.1388 24.7178 42.786 24.2546 42.3337 23.9034C41.595 23.5729 40.8064 23.3679 40.0003 23.2967C40.5603 16.1334 36.5703 12.0501 33.187 11.7934C33.1831 11.3179 33.0769 10.8488 32.8756 10.418C32.6742 9.98722 32.3826 9.6048 32.0203 9.29674C30.2937 7.9434 28.1003 8.38674 20.097 8.66674C19.9052 8.66674 19.7212 8.74294 19.5855 8.8786C19.4499 9.01425 19.3737 9.19823 19.3737 9.39007C19.3737 9.58191 19.4499 9.76589 19.5855 9.90154C19.7212 10.0372 19.9052 10.1134 20.097 10.1134C29.9903 10.4167 30.8303 9.85674 30.597 12.6801C29.967 14.1501 25.9303 13.5667 24.2503 13.7301C22.9903 13.8934 19.117 14.6401 18.5103 13.7301C18.3109 13.2946 18.2255 12.8155 18.2622 12.3379C18.299 11.8603 18.4566 11.3999 18.7203 11.0001C18.8085 10.8742 18.8496 10.7214 18.8362 10.5683C18.8229 10.4152 18.756 10.2717 18.6473 10.1631C18.5387 10.0544 18.3952 9.98754 18.2421 9.97419C18.089 9.96084 17.9362 10.0019 17.8103 10.0901C17.2928 10.7157 16.9633 11.4753 16.8601 12.2806C16.7568 13.086 16.884 13.9041 17.227 14.6401C18.3003 16.6701 22.2203 16.1567 24.5303 16.0634C26.8403 15.9701 32.1837 17.1367 33.0003 13.3334C33.2103 13.3334 33.5837 13.4734 33.6537 13.5201C36.2667 16.141 37.9121 19.5717 38.3203 23.2501C38.1537 23.2804 38.0029 23.3682 37.8944 23.4983C37.7858 23.6283 37.7264 23.7923 37.7264 23.9617C37.7264 24.1311 37.7858 24.2952 37.8944 24.4252C38.0029 24.5553 38.1537 24.6431 38.3203 24.6734C41.2837 25.0001 42.3337 25.0001 41.9603 26.7034C41.9603 27.2167 41.6803 27.7301 41.1903 27.8467C38.4084 28.185 35.5956 28.185 32.8137 27.8467C5.747 27.3334 10.6003 27.3334 7.47367 26.6801C7.17034 26.3534 7.66034 25.4434 8.10367 25.2567C9.13251 24.8029 10.2459 24.5723 11.3703 24.5801C12.3737 24.5801 26.9337 23.8801 35.357 24.2301C35.5062 24.2015 35.6408 24.1218 35.7376 24.0047C35.8345 23.8875 35.8874 23.7403 35.8874 23.5884C35.8874 23.4365 35.8345 23.2893 35.7376 23.1721C35.6408 23.055 35.5062 22.9753 35.357 22.9467C28.1237 22.3401 10.7403 22.3401 10.5537 22.3634C11.5173 19.6744 12.9382 17.1721 14.7537 14.9667C16.667 13.4967 16.527 13.4734 16.527 13.2167C16.527 13.0249 16.4508 12.8409 16.3151 12.7053C16.1795 12.5696 15.9955 12.4934 15.8037 12.4934C15.0103 12.4934 14.0537 13.2167 13.4703 13.5667C12.0372 14.5621 10.8834 15.9086 10.1194 17.4774C9.35549 19.0461 9.00689 20.7847 9.107 22.5267C8.43674 22.6481 7.78019 22.8357 7.147 23.0867C6.67152 23.2918 6.24746 23.5999 5.90542 23.9887C5.56337 24.3774 5.31186 24.8373 5.16901 25.335C5.02616 25.8328 4.99554 26.356 5.07935 26.867C5.16316 27.378 5.35931 27.864 5.65367 28.2901C6.12175 28.7684 6.72373 29.0938 7.38034 29.2234C7.38034 29.8534 7.38034 28.2434 7.89367 34.3567C8.897 45.3934 11.3003 46.4434 21.3337 46.8634C24.3225 46.9426 27.3125 46.7631 30.2703 46.3267C30.4622 46.3051 30.6376 46.2081 30.7579 46.0571C30.8782 45.9062 30.9337 45.7136 30.912 45.5217C30.8903 45.3299 30.7934 45.1545 30.6424 45.0342C30.4914 44.9138 30.2988 44.8584 30.107 44.8801C24.9032 45.2534 19.6729 44.8444 14.5903 43.6667C11.1837 42.7567 10.2737 37.6467 9.667 34.1001C8.64034 28.6867 8.94367 30.3667 8.87367 29.4334C11.207 29.8301 10.1337 29.7834 32.7203 29.7834C35.6825 30.0762 38.67 29.99 41.6103 29.5267Z" fill="#623061"/>
<path d="M15.2674 33.1203C13.3774 32.3736 15.6407 42.2903 17.484 41.4969C17.6474 41.4969 17.9274 41.3803 18.0207 41.0536C18.3707 40.2603 16.2707 32.6536 15.2674 33.1203Z" fill="#623061"/>
<path d="M31.927 33.1203C30.9237 32.6536 28.8237 40.2603 29.1737 41.0536C29.1737 41.3803 29.5237 41.4269 29.7103 41.4969C31.5537 42.2903 33.817 32.3736 31.927 33.1203Z" fill="#623061"/>
<path d="M23.4565 32.4662C23.3165 32.4662 23.1065 32.4662 23.0132 32.7462C22.2335 35.4094 22.1372 38.2261 22.7332 40.9362C22.7132 41.1519 22.7772 41.367 22.912 41.5366C23.0468 41.7061 23.2419 41.8171 23.4565 41.8462C25.1365 41.8462 24.4365 34.9862 24.0865 32.9329C23.8532 32.5129 23.6665 32.3962 23.4565 32.4662Z" fill="#623061"/>
<path d="M61.0004 41.1236C60.9865 41.0463 60.9572 40.9726 60.9141 40.9068C60.871 40.8411 60.8151 40.7848 60.7498 40.7412C60.6844 40.6976 60.6109 40.6677 60.5337 40.6532C60.4564 40.6387 60.3771 40.64 60.3004 40.657C58.597 40.9603 53.4404 37.8803 52.0404 39.9103C50.7104 37.4603 51.667 35.687 51.6437 33.587C51.74 32.7205 51.5221 31.8483 51.0296 31.1289C50.5372 30.4095 49.8029 29.8908 48.9604 29.667C46.5104 29.317 45.2037 32.9803 44.6204 34.777C44.457 35.267 44.4104 35.9903 43.8504 36.0603C43.2904 36.1303 43.5004 35.8503 41.2604 35.407C39.5337 35.057 37.5504 34.6136 36.2437 36.107C34.937 37.6003 35.1704 39.9336 35.1004 42.4536C35.1004 44.437 34.6104 47.1203 36.337 48.637C39.2537 50.9703 44.3404 49.2203 50.127 51.5536C50.827 53.6303 51.667 53.467 59.4604 55.497C59.6336 55.5279 59.8121 55.4887 59.9565 55.3881C60.1009 55.2875 60.1994 55.1336 60.2304 54.9603C60.2613 54.787 60.2222 54.6085 60.1215 54.4641C60.0209 54.3197 59.867 54.2212 59.6937 54.1903C59.6937 54.1903 53.697 52.1136 53.1837 51.857C52.6704 51.6003 52.1337 51.5303 52.1104 49.9903C52.5125 46.9343 53.089 43.9038 53.837 40.9136C55.4903 41.0217 57.1303 41.2794 58.737 41.6836C59.6004 41.9403 61.187 42.057 61.0004 41.1236ZM49.917 49.127C47.004 48.2481 43.9764 47.8077 40.9337 47.8203C37.0604 47.447 37.317 46.7703 37.317 44.4836C37.2823 42.3547 37.3993 40.226 37.667 38.1136C38.1104 36.5736 40.6537 37.4136 41.7737 37.6703C43.267 38.0203 44.9704 38.6036 45.927 36.947C46.5337 35.9203 47.0937 32.5836 48.4004 31.767C48.9837 31.417 49.4037 32.0703 49.6137 32.607C50.477 34.9403 48.0737 37.577 51.5737 41.3803C50.786 43.9078 50.2238 46.5002 49.8937 49.127H49.917Z" fill="#623061"/>
</g>
<defs>
<clipPath id="clip0_993_16668">
<rect width="56" height="56" fill="white" transform="translate(5 4)"/>
</clipPath>
</defs>
</svg>
