<svg width="65" height="65" viewBox="0 0 65 65" fill="none" xmlns="http://www.w3.org/2000/svg">
<g clip-path="url(#clip0_993_16678)">
<path fill-rule="evenodd" clip-rule="evenodd" d="M23.1492 25.8093C27.5192 25.0043 29.7809 20.6727 26.8292 16.0918C26.7032 15.8982 26.5076 15.7604 26.2829 15.7069C26.0582 15.6534 25.8215 15.6883 25.6217 15.8043C24.6634 16.3985 25.6217 17.146 25.9475 18.5643C27.5384 24.7935 16.6325 24.4485 18.1659 18.5643C18.367 17.5171 18.9302 16.574 19.7567 15.9002C20.4349 15.4171 21.1945 15.06 21.9992 14.846C23.7625 14.5393 24.6059 16.1493 25.2575 15.076C26.4267 13.236 18.1275 10.9168 15.5592 17.8168C13.7 22.9535 18.4725 26.6718 23.1492 25.8093Z" fill="#623061"/>
<path fill-rule="evenodd" clip-rule="evenodd" d="M49.5602 36.8301C49.506 36.7199 49.4294 36.6222 49.3353 36.5433C49.2412 36.4644 49.1316 36.406 49.0136 36.3719C48.8956 36.3378 48.7718 36.3288 48.6501 36.3453C48.5284 36.3619 48.4115 36.4037 48.3069 36.4681C48.2022 36.5325 48.1122 36.618 48.0426 36.7192C47.973 36.8203 47.9253 36.935 47.9025 37.0557C47.8798 37.1764 47.8825 37.3005 47.9105 37.4201C47.9385 37.5397 47.9912 37.6521 48.0652 37.7501C48.6117 38.6755 48.8656 39.7445 48.7936 40.8168C48.3336 44.4776 43.0436 44.7843 41.1269 42.0626C40.8652 41.4096 40.753 40.7063 40.7984 40.0043C40.8439 39.3023 41.0458 38.6193 41.3895 38.0055C41.7332 37.3916 42.2099 36.8625 42.7846 36.4568C43.3593 36.0511 44.0176 35.7792 44.7111 35.6609C45.473 35.5611 46.2458 35.7306 46.8961 36.1401C47.0714 36.2469 47.282 36.2796 47.4815 36.2311C47.681 36.1825 47.8531 36.0567 47.9598 35.8814C48.0666 35.706 48.0993 35.4954 48.0507 35.2959C48.0022 35.0964 47.8764 34.9244 47.7011 34.8176C46.8591 34.3161 45.9132 34.0147 44.9363 33.9364C43.9594 33.8582 42.9776 34.0053 42.0666 34.3664C41.1555 34.7275 40.3395 35.2929 39.6815 36.0192C39.0234 36.7454 38.5409 37.613 38.2711 38.5551C36.3544 43.7109 41.2036 47.3909 45.9377 46.5476C50.2502 45.7618 52.5311 41.4301 49.5602 36.8301Z" fill="#623061"/>
<path fill-rule="evenodd" clip-rule="evenodd" d="M54.6396 10.1695C28.8029 26.2504 15.2329 50.8604 10.5371 52.4704C10.3414 52.5314 10.1779 52.6676 10.0827 52.8491C9.9874 53.0306 9.96816 53.2426 10.0292 53.4383C10.0902 53.634 10.2264 53.7974 10.4079 53.8927C10.5894 53.9879 10.8014 54.0072 10.9971 53.9462C13.3546 53.2754 15.0412 50.8987 16.6129 49.3462C29.1671 36.8495 39.8621 22.5129 55.5979 11.6453C55.7776 11.5115 55.8995 11.3143 55.939 11.0938C55.9785 10.8733 55.9326 10.646 55.8106 10.4581C55.6886 10.2703 55.4997 10.1359 55.2822 10.0823C55.0647 10.0287 54.8349 10.0598 54.6396 10.1695Z" fill="#623061"/>
</g>
<defs>
<clipPath id="clip0_993_16678">
<rect width="46" height="46" fill="white" transform="translate(10 9)"/>
</clipPath>
</defs>
</svg>
