<svg width="65" height="65" viewBox="0 0 65 65" fill="none" xmlns="http://www.w3.org/2000/svg">
<g clip-path="url(#clip0_993_16658)">
<path fill-rule="evenodd" clip-rule="evenodd" d="M37.7838 42.4298L29.4538 48.6131C28.9638 48.9865 28.2405 49.7331 27.4705 50.2698C27.2155 50.5147 26.888 50.6703 26.5371 50.7131C25.5907 50.5793 24.7182 50.1266 24.0638 49.4298C22.8365 48.2041 21.7054 46.8858 20.6805 45.4865C18.8371 43.1531 17.0405 40.8198 15.3138 38.4865C13.5871 36.1531 12.0005 33.7031 10.4838 31.2065C7.33381 26.1198 7.52047 27.9165 8.73381 26.6098C9.46302 25.7849 10.2423 25.0057 11.0671 24.2765C11.8893 23.5489 12.7542 22.871 13.6571 22.2465L18.3238 18.5365L19.8638 17.3465C20.2371 17.3465 20.6338 17.7665 21.0538 18.1398C21.6329 18.6816 22.1783 19.2582 22.6871 19.8665L25.0205 22.6665L32.6738 32.9098C32.8069 33.0893 33.0058 33.2085 33.2267 33.2413C33.4477 33.2742 33.6727 33.2179 33.8521 33.0848C34.0316 32.9518 34.1509 32.7529 34.1837 32.5319C34.2165 32.3109 34.1602 32.0859 34.0271 31.9065L26.6538 21.4298L24.4371 18.4898C23.6745 17.4888 22.7974 16.5804 21.8238 15.7831C21.2005 15.2891 20.4258 15.0254 19.6305 15.0365C19.2066 15.1109 18.802 15.2696 18.4405 15.5031C17.9001 15.8464 17.3854 16.2285 16.9005 16.6465L12.2338 20.0998C11.2305 20.7765 10.2738 21.4765 9.34047 22.2231C8.4084 22.9974 7.52035 23.8231 6.68047 24.6965C6.11747 25.2465 5.61668 25.8569 5.18714 26.5165C5.0972 26.7225 5.05078 26.945 5.05078 27.1698C5.05078 27.3946 5.0972 27.6171 5.18714 27.8231C5.41009 28.4173 5.69147 28.9879 6.02714 29.5265C6.68047 30.6231 7.54381 31.6965 8.15047 32.6765C9.66714 35.2198 11.2771 37.7398 13.0971 40.1665C14.9171 42.5931 16.8305 44.8331 18.8138 47.1665C20.1711 48.9084 21.7385 50.4759 23.4805 51.8331C24.3779 52.4886 25.4501 52.8622 26.5605 52.9065C27.2011 52.8777 27.8186 52.6584 28.3338 52.2765C29.1524 51.6398 29.9316 50.9541 30.6671 50.2231C32.2538 48.9165 33.8405 47.5631 35.3338 46.2798C36.3916 45.4242 37.4649 44.5842 38.5538 43.7598C38.6831 43.6371 38.7642 43.4722 38.7825 43.295C38.8009 43.1177 38.7552 42.9397 38.6537 42.7932C38.5523 42.6467 38.4018 42.5413 38.2294 42.496C38.057 42.4508 37.8741 42.4687 37.7138 42.5465L37.7838 42.4298Z" fill="#623061"/>
<path fill-rule="evenodd" clip-rule="evenodd" d="M25.861 30.0397C24.9458 29.1435 23.749 28.5913 22.4733 28.4765C21.1976 28.3617 19.9214 28.6914 18.861 29.4097C18.2547 29.9077 17.7575 30.5252 17.4003 31.2237C17.043 31.9222 16.8333 32.6867 16.7843 33.4697C16.7178 34.2601 16.8396 35.0549 17.1397 35.789C17.4398 36.5232 17.9098 37.1757 18.511 37.6931C19.4369 38.4123 20.5821 38.7913 21.7543 38.7664C22.8473 38.7851 23.9233 38.4939 24.8576 37.9264C25.0275 37.8242 25.1514 37.6604 25.2035 37.4692C25.2557 37.278 25.2321 37.074 25.1376 36.8997C25.2532 36.9077 25.3691 36.8911 25.4777 36.8508C25.5863 36.8106 25.6852 36.7477 25.7676 36.6664C26.2659 36.273 26.6701 35.7734 26.9509 35.2041C27.2318 34.6348 27.3821 34.01 27.3911 33.3753C27.4 32.7405 27.2673 32.1117 27.0026 31.5347C26.7379 30.9577 26.3479 30.447 25.861 30.0397ZM24.5076 35.4297C24.3715 35.5799 24.2962 35.7754 24.2962 35.9781C24.2962 36.1807 24.3715 36.3762 24.5076 36.5264H24.2276C23.4937 36.845 22.6827 36.9423 21.8943 36.8064C21.2075 36.7221 20.5719 36.4002 20.0976 35.8964C19.832 35.5765 19.6451 35.1987 19.5519 34.7935C19.4587 34.3883 19.4618 33.9669 19.561 33.5631C19.6344 32.7574 20.0195 32.0122 20.6343 31.4864C21.1658 31.0982 21.8138 30.9028 22.4713 30.9325C23.1288 30.9622 23.7566 31.2152 24.251 31.6497C24.5654 31.845 24.8289 32.1122 25.0197 32.4294C25.2104 32.7466 25.323 33.1046 25.3481 33.4739C25.3732 33.8432 25.31 34.2132 25.1639 34.5533C25.0177 34.8933 24.7928 35.1938 24.5076 35.4297Z" fill="#623061"/>
<path fill-rule="evenodd" clip-rule="evenodd" d="M45.5543 18.9096C45.33 17.6876 45.034 16.48 44.6676 15.2929C44.3435 14.2969 43.9214 13.3356 43.4076 12.4229C42.9803 11.653 42.3181 11.0398 41.5176 10.6729C40.9651 10.4741 40.3732 10.4101 39.791 10.4862C38.7856 10.6696 37.7951 10.927 36.8276 11.2562C36.6327 11.3026 36.4642 11.4246 36.3592 11.5952C36.2541 11.7659 36.2212 11.9713 36.2676 12.1662C36.314 12.3612 36.436 12.5297 36.6066 12.6347C36.7773 12.7397 36.9827 12.7726 37.1776 12.7262C37.9477 12.5725 38.7272 12.4712 39.511 12.4229C39.8735 12.3965 40.2364 12.4691 40.561 12.6329C40.8876 12.8196 41.0276 13.2396 41.2143 13.6362C41.5494 14.4402 41.7997 15.2769 41.961 16.1329C42.4043 17.4396 42.7076 18.7696 43.0343 20.0996C43.361 21.4296 43.8043 22.8296 44.1776 24.1829C44.551 25.5362 44.761 26.0962 44.761 26.1196C44.9476 27.0996 46.2076 26.3062 46.301 24.8829C45.8343 22.4796 46.021 21.3129 45.5543 18.9096Z" fill="#623061"/>
<path fill-rule="evenodd" clip-rule="evenodd" d="M61.0008 42.5227C60.8395 40.8259 60.4389 39.1605 59.8108 37.576C59.1882 35.9722 58.3053 34.4822 57.1974 33.166C54.5294 30.1119 50.9579 27.987 47.0008 27.0993C46.1608 26.7027 45.5308 27.3093 45.5541 28.3127C45.1936 29.619 44.6349 30.8624 43.8974 31.9993C43.0048 32.7163 41.9343 33.1775 40.8001 33.3336C39.6659 33.4898 38.5106 33.3351 37.4574 32.886C36.8059 32.7496 36.1279 32.8231 35.5208 33.096C34.7667 33.3314 34.1113 33.8086 33.6557 34.4539C33.2002 35.0993 32.97 35.8767 33.0008 36.666C32.9971 37.3944 33.1641 38.1136 33.4882 38.7659C33.8123 39.4182 34.2847 39.9856 34.8674 40.4227C35.1708 40.586 35.8008 40.8893 36.5941 41.216C38.3908 41.9627 41.2608 42.9427 42.3574 43.5493C42.1708 44.016 42.8474 45.2527 42.9641 45.6027C43.5143 47.1592 44.3623 48.5936 45.4608 49.826C45.8765 50.3036 46.3944 50.6816 46.976 50.932C47.5576 51.1824 48.1881 51.2989 48.8208 51.2727C49.0436 51.2727 49.2572 51.1842 49.4147 51.0266C49.5723 50.8691 49.6608 50.6555 49.6608 50.4327C49.6608 50.2099 49.5723 49.9962 49.4147 49.8387C49.2572 49.6812 49.0436 49.5927 48.8208 49.5927C48.4443 49.569 48.0776 49.4627 47.7469 49.2812C47.4162 49.0997 47.1296 48.8475 46.9074 48.5427C46.0768 47.4614 45.4735 46.2232 45.1341 44.9027C45.0174 44.4827 44.9708 43.1527 44.7841 42.5693C44.7 42.2457 44.5009 41.9637 44.2241 41.776C43.6727 41.4222 43.0955 41.1102 42.4974 40.8427C40.4674 39.9093 37.1541 38.5093 36.3841 38.0427C36.2165 37.8658 36.0866 37.6567 36.0024 37.428C35.9182 37.1994 35.8813 36.956 35.8941 36.7127C35.8733 36.5084 35.9187 36.3027 36.0238 36.1263C36.1288 35.9498 36.2879 35.8118 36.4774 35.7327C36.7475 35.6847 37.024 35.6847 37.2941 35.7327C38.4338 35.8446 39.579 35.8913 40.7241 35.8727C41.7524 35.7822 42.748 35.4654 43.6395 34.9451C44.531 34.4247 45.2964 33.7136 45.8808 32.8627C46.6162 31.662 47.0039 30.2807 47.0008 28.8727C50.2034 30.047 52.9987 32.1212 55.0508 34.846C55.9122 36.0093 56.6182 37.28 57.1508 38.626C57.6972 39.9854 58.0886 41.4022 58.3174 42.8493C58.8532 46.3616 58.6946 49.9448 57.8508 53.396C57.7927 53.6125 57.821 53.8431 57.9299 54.0391C58.0388 54.235 58.2196 54.381 58.4341 54.446C58.6476 54.5034 58.875 54.4744 59.0672 54.3652C59.2594 54.256 59.4008 54.0754 59.4608 53.8627C60.7593 50.2314 61.2839 46.3687 61.0008 42.5227Z" fill="#623061"/>
<path fill-rule="evenodd" clip-rule="evenodd" d="M39.7206 27.4497C39.044 25.1164 38.4373 22.783 37.784 20.4497C37.364 18.8864 36.874 17.3464 36.4306 15.783C36.0658 14.1541 35.4768 12.5836 34.6806 11.1164C34.4173 10.6642 34.0527 10.2792 33.6154 9.99172C33.1782 9.70426 32.6802 9.52215 32.1606 9.4597C31.7882 9.43736 31.4168 9.5181 31.0873 9.69303C30.4914 10.051 29.915 10.4404 29.3606 10.8597L23.6673 14.4764C23.5625 14.5056 23.4654 14.5573 23.3827 14.628C23.3 14.6987 23.2337 14.7865 23.1885 14.8855C23.1434 14.9845 23.1203 15.0921 23.1211 15.2009C23.1219 15.3096 23.1464 15.4169 23.193 15.5153C23.2395 15.6136 23.307 15.7005 23.3907 15.77C23.4744 15.8395 23.5722 15.8899 23.6774 15.9176C23.7826 15.9453 23.8926 15.9498 23.9997 15.9305C24.1067 15.9113 24.2083 15.8689 24.2973 15.8064L30.4573 12.8664C31.5073 12.3297 31.8106 10.7897 32.7906 13.5664C33.2106 14.6864 33.4673 15.8997 33.654 16.5764C34.564 19.353 35.4506 22.1064 36.4306 24.8597C37.4106 27.613 38.0406 28.6164 39.0906 31.0897C39.5573 32.443 40.7706 32.7697 40.7706 31.7664C40.2806 30.133 40.2106 29.083 39.7206 27.4497Z" fill="#623061"/>
</g>
<defs>
<clipPath id="clip0_993_16658">
<rect width="56" height="56" fill="white" transform="translate(5 4)"/>
</clipPath>
</defs>
</svg>
