<svg width="65" height="65" viewBox="0 0 65 65" fill="none" xmlns="http://www.w3.org/2000/svg">
<g clip-path="url(#clip0_993_16649)">
<path fill-rule="evenodd" clip-rule="evenodd" d="M58.6722 29.457C55.4255 28.2306 52.0521 27.3703 48.6147 26.892C41.0547 25.7445 22.1996 26.622 19.8821 26.5545C19.7817 26.5515 19.6816 26.5683 19.5876 26.604C19.4937 26.6397 19.4077 26.6936 19.3345 26.7625C19.2614 26.8315 19.2026 26.9142 19.1614 27.0059C19.1202 27.0976 19.0976 27.1965 19.0946 27.297C19.0946 28.7145 20.2421 27.747 37.0946 28.152C53.9472 28.557 56.5572 31.4595 57.4797 31.6845C57.4275 32.4363 57.4653 33.1916 57.5922 33.9345C57.4572 37.242 57.1647 42.4845 56.6922 45.7695C54.8247 58.8645 57.7272 54.1845 40.7846 53.712C20.5346 53.1945 17.7671 54.027 17.7221 49.932C17.7221 49.752 18.6896 36.432 18.7121 36.432C18.7346 36.432 22.8521 36.792 25.6421 36.747C31.9871 37.2645 28.7471 36.9045 40.3796 37.152C51.4496 37.377 55.6122 37.827 55.9947 37.782C56.2053 37.7783 56.4075 37.699 56.5645 37.5585C56.7215 37.4181 56.8227 37.2259 56.8497 37.017C56.8497 35.8245 55.4771 36.1395 40.4472 34.767C35.9471 34.632 19.0046 35.1495 18.8246 35.217C18.8246 33.8895 19.1846 30.717 19.4546 29.4345C19.4559 29.2764 19.4016 29.1229 19.3012 29.0007C19.2008 28.8786 19.0608 28.7955 18.9054 28.7661C18.7501 28.7366 18.5894 28.7626 18.4513 28.8395C18.3131 28.9164 18.2064 29.0394 18.1496 29.187C17.5421 31.932 16.5071 43.947 16.2371 46.8495C15.7413 48.7298 15.7413 50.7066 16.2371 52.587C17.5421 55.5795 22.3121 55.3095 24.8096 55.602C32.1671 56.412 40.0872 55.9845 47.3097 56.862C50.3697 57.222 55.9047 58.662 57.3672 55.8945C58.8297 53.127 58.7847 49.1445 59.1672 46.287C59.6475 42.2694 59.9029 38.2281 59.9322 34.182C59.9997 32.112 60.5622 30.2895 58.6722 29.457Z" fill="#623061"/>
<path fill-rule="evenodd" clip-rule="evenodd" d="M10.005 30.3346C8.925 25.8346 8.8125 27.0046 10.275 26.7121C22.4876 23.7437 34.5096 20.0394 46.275 15.6196C47.7375 19.3996 49.2225 23.4271 49.425 24.1921C49.4774 24.3566 49.5907 24.4947 49.7418 24.5781C49.8928 24.6615 50.0701 24.684 50.2372 24.6408C50.4042 24.5975 50.5484 24.492 50.6401 24.3458C50.7317 24.1996 50.7639 24.0238 50.73 23.8546C49.2176 18.3757 47.4303 12.9764 45.375 7.67713C45.2108 7.33957 44.9427 7.06356 44.61 6.88963C38.7375 4.39213 7.7775 16.3621 6.675 17.5321C6.57867 17.5932 6.49771 17.6757 6.4384 17.7731C6.3791 17.8706 6.34304 17.9804 6.33303 18.094C6.32301 18.2076 6.33931 18.322 6.38066 18.4283C6.42201 18.5346 6.4873 18.63 6.57146 18.707C6.65562 18.784 6.75639 18.8406 6.86595 18.8723C6.97551 18.9041 7.09091 18.9102 7.2032 18.8901C7.31549 18.87 7.42165 18.8244 7.51345 18.7567C7.60524 18.689 7.6802 18.601 7.7325 18.4996C8.79 17.4871 38.8725 8.23963 43.3275 8.84713C43.7775 9.81463 43.3275 8.03713 45.5775 14.0671C41.0775 15.3496 30.2775 18.2521 22.515 20.8171C16.0575 23.1121 10.6125 25.1146 9.9375 25.2496C9.5401 25.3347 9.14915 25.4475 8.7675 25.5871C8.115 23.2471 7.5075 21.1546 7.3275 20.1421C7.28701 19.986 7.19198 19.8496 7.05961 19.7575C6.92723 19.6654 6.76626 19.6237 6.60583 19.6401C6.4454 19.6564 6.29611 19.7296 6.18498 19.8464C6.07385 19.9633 6.00823 20.1161 6 20.2771C6.27 27.1396 9.645 41.1121 11.4225 43.0246C11.5639 43.1416 11.7426 43.2038 11.9261 43.2C12.1095 43.1962 12.2855 43.1265 12.4219 43.0038C12.5583 42.881 12.646 42.7134 12.6691 42.5313C12.6921 42.3493 12.649 42.165 12.5475 42.0121C11.31 40.5271 12.0075 38.9071 10.005 30.3346Z" fill="#623061"/>
<path fill-rule="evenodd" clip-rule="evenodd" d="M44.3624 20.0748C41.7153 20.5039 39.1051 21.1358 36.5549 21.9648C34.7774 22.6398 33.6974 23.2248 33.4274 23.3148C32.9454 23.4572 32.4783 23.6456 32.0324 23.8773C31.2449 24.4623 31.7624 25.3848 32.4599 25.2048C35.1391 24.8614 37.7772 24.2509 40.3349 23.3823C41.7299 22.8648 43.1924 22.1898 44.8349 21.5148C45.0008 21.4337 45.1318 21.2952 45.2036 21.1251C45.2755 20.9549 45.2834 20.7645 45.2258 20.589C45.1682 20.4135 45.049 20.2647 44.8903 20.1702C44.7316 20.0757 44.5441 20.0418 44.3624 20.0748Z" fill="#623061"/>
<path fill-rule="evenodd" clip-rule="evenodd" d="M35.4073 42.1918C35.5774 42.2366 35.7583 42.2119 35.9102 42.1233C36.0621 42.0347 36.1726 41.8894 36.2173 41.7193C36.2621 41.5493 36.2374 41.3684 36.1488 41.2165C36.0602 41.0646 35.9149 40.9541 35.7448 40.9093C34.9494 40.6617 34.1078 40.5998 33.2847 40.7285C32.4617 40.8573 31.6791 41.1731 30.9973 41.6518C30.4732 41.0325 29.8055 40.5509 29.0525 40.2489C28.2995 39.9469 27.4841 39.8338 26.6773 39.9193C25.62 40.102 24.6215 40.534 23.7646 41.1797C22.9077 41.8253 22.217 42.6659 21.7498 43.6318C21.4354 44.2576 21.2676 44.9468 21.2591 45.6471C21.2507 46.3474 21.4018 47.0404 21.7011 47.6736C22.0003 48.3068 22.4398 48.8635 22.9862 49.3016C23.5327 49.7396 24.1717 50.0475 24.8548 50.2018C26.0698 50.5618 28.8598 50.7643 28.7923 49.4818C29.3126 50.2804 30.1169 50.8515 31.0423 51.0793C32.2963 51.4926 33.6354 51.5772 34.9314 51.3251C36.2275 51.0729 37.4372 50.4925 38.4448 49.6393C40.4248 47.2093 40.5148 43.2943 37.8598 41.9443C37.6883 41.8845 37.5012 41.8876 37.3318 41.9531C37.1624 42.0186 37.0218 42.1422 36.9352 42.3019C36.8486 42.4615 36.8217 42.6468 36.8592 42.8245C36.8966 43.0022 36.9961 43.1607 37.1398 43.2718C38.6248 44.1043 38.2423 46.7368 36.8248 48.1768C35.845 48.8073 34.6705 49.063 33.5173 48.8968C31.5373 48.8968 30.0073 48.1993 30.3898 45.9493C30.4639 45.3694 30.6537 44.8102 30.948 44.305C31.2424 43.7998 31.6352 43.3589 32.1032 43.0084C32.5711 42.658 33.1048 42.4051 33.6724 42.2648C34.24 42.1245 34.8299 42.0997 35.4073 42.1918ZM28.5223 48.9418C28.3562 48.8755 28.1709 48.8755 28.0048 48.9418C27.2129 49.0544 26.4054 48.923 25.69 48.5653C24.9745 48.2076 24.385 47.6404 23.9998 46.9393C22.8298 44.6893 27.0373 39.9193 29.8948 42.4393C28.9929 43.2184 28.369 44.2698 28.1173 45.4348C27.8656 46.5997 27.9999 47.8149 28.4998 48.8968L28.5223 48.9418Z" fill="#623061"/>
</g>
<defs>
<clipPath id="clip0_993_16649">
<rect width="54" height="54" fill="white" transform="translate(6 5)"/>
</clipPath>
</defs>
</svg>
