<svg width="36" height="36" viewBox="0 0 36 36" fill="none" xmlns="http://www.w3.org/2000/svg">
<path d="M21.0008 21.7925L22.5507 20.2419C22.7595 20.0356 23.0236 19.8944 23.3111 19.8355C23.5985 19.7765 23.8968 19.8022 24.1699 19.9096L26.0589 20.6641C26.3349 20.7762 26.5715 20.9675 26.739 21.2138C26.9065 21.4602 26.9973 21.7507 27 22.0486V25.5098C26.9984 25.7124 26.9558 25.9127 26.8748 26.0985C26.7938 26.2842 26.6761 26.4517 26.5287 26.5907C26.3813 26.7298 26.2073 26.8376 26.0171 26.9076C25.827 26.9776 25.6247 27.0083 25.4223 26.9981C12.1853 26.1743 9.51434 14.9601 9.00922 10.6683C8.98577 10.4575 9.00719 10.2442 9.07208 10.0423C9.13696 9.84045 9.24384 9.6546 9.38568 9.49701C9.52752 9.33942 9.70111 9.21365 9.89502 9.128C10.0889 9.04234 10.2988 8.99873 10.5108 9.00003H13.8529C14.1511 9.00091 14.4423 9.09103 14.6889 9.25881C14.9355 9.42658 15.1263 9.66432 15.2368 9.94146L15.991 11.8313C16.1019 12.1034 16.1302 12.4021 16.0724 12.6902C16.0145 12.9783 15.8731 13.2429 15.6658 13.4511L14.1158 15.0017C14.1158 15.0017 15.0085 21.0449 21.0008 21.7925Z" fill="#0A327A"/>
</svg>
