<svg width="18" height="18" viewBox="0 0 18 18" fill="none" xmlns="http://www.w3.org/2000/svg">
<path fill-rule="evenodd" clip-rule="evenodd" d="M7.956 1.8C4.55613 1.8 1.8 4.55613 1.8 7.956C1.8 11.3559 4.55613 14.112 7.956 14.112C9.63173 14.112 11.1511 13.4424 12.2611 12.3563C12.263 12.3544 12.2648 12.3526 12.2667 12.3508C13.4055 11.2336 14.112 9.6773 14.112 7.956C14.112 4.55613 11.3559 1.8 7.956 1.8ZM14.1132 12.9949C15.2374 11.6229 15.912 9.86821 15.912 7.956C15.912 3.56202 12.35 0 7.956 0C3.56202 0 0 3.56202 0 7.956C0 12.35 3.56202 15.912 7.956 15.912C9.78895 15.912 11.4771 15.2921 12.8224 14.2506L15.9861 17.7076C16.3216 18.0743 16.8909 18.0995 17.2576 17.7639C17.6243 17.4284 17.6495 16.8591 17.3139 16.4924L14.1132 12.9949Z" fill="#111111"/>
</svg>
