<svg width="38" height="37" viewBox="0 0 38 37" fill="none" xmlns="http://www.w3.org/2000/svg">
<path d="M16.263 2.09817C17.3232 -0.26396 20.6768 -0.263958 21.737 2.09817L24.9541 9.26616C25.3903 10.2381 26.3094 10.9058 27.3686 11.0204L35.1799 11.865C37.754 12.1434 38.7903 15.3328 36.8714 17.071L31.0484 22.3458C30.2588 23.061 29.9078 24.1414 30.1262 25.1841L31.7367 32.8741C32.2674 35.4083 29.5543 37.3795 27.3082 36.0916L20.4922 32.1836C19.568 31.6537 18.432 31.6537 17.5078 32.1836L10.6918 36.0916C8.44571 37.3795 5.73258 35.4083 6.26331 32.8741L7.87384 25.1841C8.09223 24.1414 7.7412 23.061 6.9516 22.3458L1.12857 17.071C-0.790332 15.3328 0.245993 12.1434 2.82012 11.865L10.6314 11.0204C11.6906 10.9058 12.6097 10.2381 13.0459 9.26616L16.263 2.09817Z" fill="#0A327A"/>
</svg>
