<svg width="27" height="27" viewBox="0 0 27 27" fill="none" xmlns="http://www.w3.org/2000/svg">
<path d="M23.2989 4.11132C23.2989 4.11132 25.4842 3.25913 25.3014 5.32857C25.2412 6.18076 24.695 9.1637 24.2698 12.3896L22.8129 21.9465C22.8129 21.9465 22.6914 23.3466 21.5985 23.5901C20.5061 23.8331 18.867 22.7379 18.5632 22.4944C18.3202 22.3116 14.0104 19.5722 12.4927 18.2334C12.0675 17.8678 11.5815 17.1377 12.5535 16.2855L18.9277 10.1981C19.6562 9.46688 20.3846 7.76251 17.3494 9.83251L8.84998 15.615C8.84998 15.615 7.87854 16.2242 6.05773 15.6763L2.11123 14.4585C2.11123 14.4585 0.654353 13.5456 3.14342 12.6326C9.21448 9.77176 16.6817 6.85013 23.2984 4.11076" fill="white"/>
</svg>
