<svg width="27" height="27" viewBox="0 0 27 27" fill="none" xmlns="http://www.w3.org/2000/svg">
<mask id="mask0_3059_842" style="mask-type:luminance" maskUnits="userSpaceOnUse" x="2" y="2" width="23" height="23">
<path d="M2.8125 2.8125H24.1875V24.1875H2.8125V2.8125Z" fill="white"/>
</mask>
<g mask="url(#mask0_3059_842)">
<path d="M15.5137 2.96984L14.8725 2.87984C12.9453 2.60158 10.9787 2.87686 9.20198 3.6736C7.42525 4.47034 5.91161 5.7557 4.8375 7.37984C3.69467 8.93231 3.01341 10.7759 2.8721 12.6985C2.73079 14.6211 3.13519 16.5445 4.03875 18.2473C4.13122 18.418 4.18879 18.6054 4.20811 18.7985C4.22742 18.9917 4.20809 19.1867 4.15125 19.3723C3.69 20.9586 3.2625 22.5561 2.8125 24.2323L3.375 24.0636C4.89375 23.6586 6.4125 23.2536 7.93125 22.8823C8.25181 22.8157 8.58501 22.8471 8.8875 22.9723C10.2501 23.6373 11.7392 24.0032 13.2548 24.0454C14.7704 24.0875 16.2775 23.805 17.675 23.2167C19.0724 22.6285 20.3279 21.7481 21.3571 20.6347C22.3863 19.5213 23.1655 18.2007 23.6423 16.7614C24.1191 15.3221 24.2825 13.7974 24.1215 12.2898C23.9606 10.7821 23.4791 9.32636 22.7092 8.02014C21.9393 6.71392 20.899 5.58748 19.6579 4.71643C18.4169 3.84537 17.0039 3.24986 15.5137 2.96984ZM18.3487 17.7298C17.9399 18.0959 17.4413 18.3471 16.9038 18.4577C16.3662 18.5684 15.809 18.5346 15.2888 18.3598C12.9314 17.696 10.8862 16.217 9.5175 14.1861C8.9947 13.4678 8.57441 12.6802 8.26875 11.8461C8.10321 11.3621 8.07336 10.842 8.18243 10.3422C8.29151 9.84246 8.53535 9.3821 8.8875 9.01109C9.05893 8.79229 9.29229 8.6302 9.55716 8.54592C9.82204 8.46164 10.1062 8.45909 10.3725 8.53859C10.5975 8.59484 10.755 8.92109 10.9575 9.16859C11.1217 9.63321 11.3141 10.0877 11.5312 10.5298C11.696 10.7554 11.7648 11.037 11.7226 11.3131C11.6805 11.5892 11.5308 11.8374 11.3063 12.0036C10.8 12.4536 10.8787 12.8248 11.2387 13.3311C12.0346 14.4776 13.1328 15.3811 14.4113 15.9411C14.7713 16.0986 15.0412 16.1323 15.2775 15.7611C15.3787 15.6148 15.5138 15.4911 15.6263 15.3561C16.2788 14.5348 16.0763 14.5461 17.1113 14.9961C17.4409 15.1345 17.7604 15.2965 18.0675 15.4798C18.3712 15.6598 18.8325 15.8511 18.9 16.1211C18.9649 16.414 18.9479 16.7191 18.8506 17.003C18.7533 17.2868 18.5797 17.5383 18.3487 17.7298Z" fill="white"/>
</g>
</svg>
